<svg width="26" height="26" viewBox="0 0 26 26" fill="none" xmlns="http://www.w3.org/2000/svg">
<g clip-path="url(#clip0_402_15877)">
<path d="M0 0H26V26H0V0Z" fill="#00008B"/>
<path d="M1.52344 0L6.47969 4.90208L11.4156 0H13V1.67917L8.125 6.52708L13 11.3479V13H11.375L6.5 8.15208L1.64531 13H0V11.375L4.85469 6.55417L0 1.73333V0H1.52344Z" fill="white"/>
<path d="M8.6125 7.61042L13 11.9167V13L7.49531 7.61042H8.6125ZM4.875 8.15208L4.99687 9.1L1.09687 13H0L4.875 8.15208ZM13 0V0.08125L7.94219 5.17292L7.98281 3.98125L11.9844 0H13ZM0 0L4.85469 4.76667H3.63594L0 1.1375V0Z" fill="#FF0000"/>
<path d="M4.89531 0V13H8.14531V0H4.89531ZM0 4.33333V8.66667H13V4.33333H0Z" fill="white"/>
<path d="M0 5.22708V7.82708H13V5.22708H0ZM5.54531 0V13H7.49531V0H5.54531Z" fill="#FF0000"/>
<path d="M21.4096 21.4879L20.5768 21.6288L20.6662 22.7392L20.0649 21.9592L19.4677 22.7446L19.549 21.6342L18.7162 21.5042L19.419 20.8975L18.9762 19.9496L19.7724 20.3017L20.0527 19.2454L20.3412 20.2963L21.1334 19.9333L20.6987 20.8867L21.4055 21.4879H21.4096ZM21.2593 15.1396L21.369 14.4354L20.9709 13.9479L21.5071 13.8667L21.7305 13.2113L21.954 13.8667L22.4902 13.9479L22.0921 14.4354L22.2018 15.1396L21.7305 14.7821L21.2593 15.1396ZM17.0302 11.8896L16.2055 12.0088L16.2787 13.1083L15.6937 12.3229L15.0924 13.0867L15.1899 11.9871L14.3693 11.8408L15.0721 11.2558L14.6455 10.3079L15.4296 10.6763L15.7221 9.64167L15.9943 10.6871L16.7824 10.3458L16.3396 11.2829L17.0343 11.8896H17.0302ZM25.3096 10.1129L24.4605 10.2592L24.554 11.3913L23.9405 10.595L23.3312 11.3967L23.4165 10.2592L22.5674 10.1292L23.2865 9.50625L22.8355 8.53667L23.648 8.89959L23.9324 7.82709L24.2249 8.89959L25.0334 8.52584L24.5865 9.50083L25.3096 10.1129ZM21.4055 5.59L20.5646 5.71459L20.6418 6.84125L20.0446 6.03959L19.4312 6.81959L19.5287 5.69833L18.6877 5.54667L19.4068 4.95084L18.9721 3.98125L19.7724 4.355L20.069 3.29875L20.3452 4.36583L21.1496 4.01375L20.6987 4.96708L21.4055 5.59ZM9.50648 20.8921L7.64586 21.1846L7.83273 23.6708L6.50023 21.9158L5.15961 23.66L5.35867 21.1738L3.49805 20.8596L5.07836 19.5163L4.10336 17.3821L5.87461 18.1946L6.51648 15.8438L7.14617 18.2L8.92148 17.4038L7.9343 19.5271L9.51055 20.8867L9.50648 20.8921Z" fill="white"/>
</g>
<defs>
<clipPath id="clip0_402_15877">
<rect width="26" height="26" rx="13" fill="white"/>
</clipPath>
</defs>
</svg>
