<svg width="86" height="85" viewBox="0 0 86 85" fill="none" xmlns="http://www.w3.org/2000/svg">
<circle opacity="0.2" cx="43" cy="42.5" r="42.5" fill="url(#paint0_linear_115_670)"/>
<circle opacity="0.12" cx="43" cy="42.5" r="33.5" fill="url(#paint1_linear_115_670)"/>
<path d="M43.8794 24.85L43.9127 24.8679C43.9443 24.8848 43.9771 24.8995 44.0108 24.9117C44.5666 25.0658 45.0155 25.3423 45.3259 25.7345C45.6378 26.1285 45.8015 26.6285 45.8034 27.2125C45.8129 30.1029 45.8109 32.9934 45.809 35.8836C45.8084 36.7629 45.8078 37.6423 45.8075 38.5216C45.8096 38.624 45.7986 38.7263 45.7746 38.8259C45.7444 38.975 45.6598 39.1076 45.537 39.1977C45.4165 39.2862 45.2679 39.3274 45.1192 39.3138C44.9692 39.3176 44.8229 39.2653 44.7092 39.1669C44.5931 39.0665 44.5196 38.9256 44.5037 38.773M43.8794 24.85L44.4834 27.447C44.4831 31.0795 44.4834 34.7119 44.4843 38.3444C44.4791 38.4875 44.4856 38.6309 44.5037 38.773M43.8794 24.85H43.8417M43.8794 24.85H43.8417M44.5037 38.773C44.5038 38.7736 44.5038 38.7742 44.5039 38.7749L44.6527 38.7558L44.5035 38.7708C44.5035 38.7715 44.5036 38.7722 44.5037 38.773ZM43.8417 24.85H27.7773H27.7541L27.7319 24.857C27.1096 25.0546 26.5194 25.3577 26.1723 25.993L26.1722 25.9929L26.1692 25.9991C26.0536 26.2358 25.9502 26.4783 25.8592 26.7255L25.85 26.7506V26.7773V42.8417V42.86L25.8544 42.8777C26.0173 43.5362 26.3425 44.0322 26.8245 44.3588C27.3038 44.6836 27.9229 44.8304 28.6565 44.8216C31.1806 44.7914 33.7045 44.797 36.2297 44.8026C37.2685 44.8049 38.3075 44.8072 39.3469 44.807C39.4787 44.8119 39.6108 44.8067 39.7419 44.7914L39.7419 44.7916M43.8417 24.85L39.7419 44.7916M39.7419 44.7916L39.7477 44.7906M39.7419 44.7916L39.7477 44.7906M39.7477 44.7906C39.9169 44.7641 40.0649 44.6964 40.1686 44.576C40.2719 44.4561 40.3167 44.3012 40.313 44.1282C40.3161 44.0501 40.304 43.9721 40.2775 43.8985C40.2503 43.823 40.2085 43.7537 40.1544 43.6945C40.1003 43.6353 40.0351 43.5874 39.9624 43.5535C39.8911 43.5203 39.8141 43.5013 39.7355 43.4974C39.5953 43.4836 39.4543 43.4787 39.3134 43.4827C35.6693 43.4831 32.0253 43.4828 28.3813 43.4818C27.9318 43.4817 27.6398 43.3805 27.4581 43.1988C27.2763 43.0172 27.1755 42.7258 27.1755 42.278C27.1753 37.312 27.1753 32.346 27.1755 27.38C27.1755 26.929 27.2755 26.6376 27.4562 26.4566C27.6368 26.2757 27.9275 26.1755 28.3776 26.1755C28.3776 26.1755 28.3776 26.1755 28.3776 26.1755L43.2073 26.1754C43.71 26.1754 44.0162 26.2722 44.2012 26.4565M39.7477 44.7906L44.2012 26.4565M44.2012 26.4565C44.386 26.6406 44.4833 26.9456 44.4834 27.447L44.2012 26.4565Z" fill="#549FDA" stroke="#549FDA" stroke-width="0.3"/>
<path d="M43.7706 41.5178C46.5273 41.5183 49.284 41.518 52.0408 41.5171C52.2989 41.517 52.5196 41.4709 52.6794 41.3597C52.8483 41.2421 52.9302 41.0652 52.9296 40.8545C52.929 40.6436 52.8467 40.4674 52.6776 40.3503C52.5178 40.2397 52.2976 40.1937 52.04 40.1923L52.0051 40.1922C52.0051 40.1922 52.005 40.1922 52.005 40.1922C49.2368 40.1903 46.4687 40.1905 43.7005 40.193C42.9333 40.1936 42.3021 40.4244 41.8624 40.8645C41.4227 41.3045 41.192 41.9366 41.1916 42.7056C41.1893 47.6836 41.1893 52.6617 41.1916 57.6398C41.1919 58.4082 41.4238 59.0397 41.8644 59.4794C42.3049 59.919 42.9368 60.1495 43.7034 60.1496C48.6814 60.1501 53.6595 60.1501 58.6376 60.1496C59.4053 60.1495 60.0372 59.9187 60.4775 59.4792C60.9178 59.0396 61.1491 58.4086 61.1493 57.6419V57.6419L61.1496 50.1919C61.1496 50.1919 61.1496 50.1919 61.1496 50.1919C61.1502 47.6972 61.1501 45.2024 61.1494 42.7077C61.1491 41.9395 60.9194 41.3075 60.4807 40.8669C60.042 40.4263 59.4115 40.1945 58.6441 40.1929L58.6439 40.1929C57.3234 40.1915 56.0028 40.1917 54.6822 40.1933C54.5581 40.1889 54.4339 40.1985 54.3119 40.2221L54.3119 40.222L54.3057 40.2235C54.1621 40.2577 54.0345 40.3398 53.9438 40.4563C53.8531 40.5727 53.8048 40.7166 53.8067 40.8641C53.8087 41.0117 53.8608 41.1542 53.9546 41.2682C54.0484 41.3822 54.1781 41.4608 54.3226 41.4912L54.3225 41.4914L54.3297 41.4926C54.4622 41.5138 54.5963 41.5218 54.7303 41.5167C55.3003 41.5173 55.8698 41.5172 56.4393 41.5171C57.1785 41.517 57.9176 41.5168 58.6572 41.5183C59.0789 41.5191 59.3625 41.6223 59.5421 41.8033C59.7219 41.9844 59.8239 42.2698 59.824 42.693C59.8243 47.6711 59.8243 52.6491 59.824 57.6272C59.824 58.0728 59.7227 58.3624 59.5403 58.5429C59.3575 58.7238 59.0641 58.8243 58.613 58.8243C53.6578 58.8245 48.7025 58.8245 43.7472 58.8243C43.2771 58.8243 42.9806 58.7244 42.7983 58.5398C42.6155 58.3548 42.5163 58.0533 42.5162 57.5756C42.5158 52.6431 42.5158 47.7106 42.5162 42.7782C42.5163 42.2883 42.6144 41.9851 42.7981 41.8006C42.9817 41.6162 43.2832 41.5178 43.7706 41.5178ZM43.7706 41.5178L43.7706 41.3678M43.7706 41.5178L43.7706 41.3678M43.7706 41.3678C46.5273 41.3683 49.284 41.368 52.0407 41.3671C52.5292 41.3669 52.7805 41.1899 52.7796 40.8549C52.7787 40.5189 52.5275 40.345 52.0392 40.3423L52.005 40.3422L54.7275 41.3667C55.2979 41.3673 55.8684 41.3672 56.4389 41.3671C57.1784 41.367 57.918 41.3668 58.6575 41.3683C59.5452 41.37 59.9739 41.8031 59.974 42.693C59.9743 47.6711 59.9743 52.6491 59.974 57.6272C59.974 58.5573 59.5525 58.9743 58.613 58.9743C53.6578 58.9745 48.7025 58.9745 43.7472 58.9743C42.7734 58.9743 42.3663 58.563 42.3662 57.5756C42.3658 52.6431 42.3658 47.7106 42.3662 42.7781C42.3663 41.7694 42.7664 41.3679 43.7706 41.3678Z" fill="#549FDA" stroke="#549FDA" stroke-width="0.3"/>
<path d="M33.2096 34.4807L33.2097 34.4807C33.0283 34.1713 32.8675 33.8503 32.7282 33.5199C32.642 33.3292 32.6211 33.1359 32.6773 32.9639C32.7344 32.7893 32.8649 32.6558 33.0432 32.5782C33.2137 32.504 33.392 32.495 33.555 32.5679C33.7154 32.6395 33.8406 32.7812 33.9278 32.9688L33.9281 32.9694L33.9281 32.9694C34.4312 34.0655 35.0688 35.0947 35.8262 36.0332C36.8829 34.7256 37.6999 33.2414 38.2397 31.6494H38.0507L31.1513 31.6492C31.0443 31.6538 30.9371 31.6516 30.8303 31.6428C30.6713 31.6333 30.5218 31.5638 30.4121 31.4483C30.3038 31.3341 30.2424 31.1836 30.2397 31.0265C30.2249 30.8767 30.2652 30.7264 30.3534 30.6042C30.4431 30.4799 30.5759 30.3934 30.7259 30.3615C30.8706 30.3301 31.0187 30.318 31.1666 30.3253C32.2293 30.3236 33.292 30.3238 34.3794 30.3239C34.6381 30.3239 34.8982 30.324 35.16 30.324C35.1599 30.3165 35.1598 30.3089 35.1596 30.3014C35.1576 30.171 35.1556 30.0399 35.1638 29.9136C35.1889 29.5296 35.4491 29.2394 35.8187 29.2336C36.0061 29.2306 36.1725 29.303 36.2922 29.4336C36.4106 29.5628 36.476 29.7403 36.4833 29.9393C36.4873 30.0491 36.4864 30.1612 36.4854 30.2813C36.4853 30.2922 36.4852 30.3032 36.4851 30.3142C36.5674 30.319 36.6399 30.3232 36.7151 30.3232C37.9778 30.3244 39.2405 30.325 40.5032 30.325C40.6399 30.3164 40.7771 30.3263 40.9112 30.3542L40.922 30.3565L40.9219 30.3569C41.0756 30.4009 41.2082 30.4807 41.2975 30.6037C41.3875 30.7277 41.4224 30.8805 41.4074 31.0488C41.3927 31.2136 41.3348 31.3604 41.2259 31.4687C41.1164 31.5775 40.9693 31.6336 40.8028 31.642C40.6301 31.6508 40.4573 31.6497 40.2894 31.6487L40.2649 31.6485C40.0895 31.6475 39.9194 31.647 39.7508 31.6571C39.7208 31.6613 39.6922 31.6722 39.6669 31.689C39.6445 31.7039 39.6254 31.7231 39.6106 31.7455C39.001 33.7065 38.0133 35.4566 36.7263 37.0408C37.4622 37.7909 38.2829 38.453 39.1718 39.0137L39.1725 39.0141C39.1986 39.0308 39.2279 39.0486 39.2588 39.0674C39.3268 39.1087 39.4024 39.1545 39.4684 39.2032C39.7616 39.419 39.8613 39.7777 39.6855 40.0859C39.6853 40.0863 39.6851 40.0867 39.6848 40.0871L39.5547 40.0125C39.5216 40.073 39.4761 40.1258 39.4213 40.1676C39.3665 40.2095 39.3035 40.2393 39.2365 40.2554C39.1694 40.2714 39.0998 40.2732 39.032 40.2606C38.9642 40.2481 38.8998 40.2214 38.8429 40.1825L33.2096 34.4807ZM33.2096 34.4807L33.2119 34.4843C33.6137 35.1271 34.0266 35.7636 34.4474 36.4124C34.5917 36.635 34.737 36.859 34.8831 37.0853C34.11 37.866 33.2458 38.5513 32.3091 39.1262L32.3085 39.1266C32.1167 39.2457 31.9749 39.3908 31.9114 39.5622C31.8456 39.74 31.8724 39.9229 31.9734 40.0914C32.0783 40.2663 32.2348 40.3804 32.429 40.4055C32.618 40.4299 32.8192 40.3671 33.0154 40.2395C33.0442 40.2208 33.073 40.202 33.1019 40.1833C33.5112 39.9174 33.9287 39.6461 34.3176 39.3388C34.7068 39.0312 35.083 38.7035 35.4529 38.3813C35.5771 38.2731 35.7006 38.1655 35.8236 38.0595C35.9569 38.173 36.0903 38.2879 36.2242 38.4032C36.6163 38.7409 37.0126 39.0822 37.4226 39.4024L37.4244 39.4038C37.8538 39.7291 38.3004 40.0312 38.7621 40.3089L33.2096 34.4807Z" fill="#549FDA" stroke="#549FDA" stroke-width="0.3"/>
<path d="M55.7318 55.0596L55.7293 55.0878C55.7145 55.2533 55.6675 55.4043 55.5732 55.5236C55.4768 55.6455 55.3416 55.721 55.1768 55.751C55.0094 55.7814 54.8538 55.7561 54.723 55.6755C54.5938 55.596 54.5019 55.4708 54.4438 55.3238C54.4281 55.2838 54.4123 55.2438 54.3964 55.2037C54.1828 54.6627 53.9673 54.117 53.7809 53.5613C53.7435 53.4499 53.7067 53.4034 53.6723 53.3795C53.6373 53.3552 53.5801 53.3371 53.4633 53.338C51.9367 53.3495 50.41 53.3491 48.8832 53.3367L48.8831 53.3367C48.7663 53.3357 48.7092 53.3563 48.6744 53.382C48.6384 53.4085 48.6025 53.4578 48.5653 53.565L48.4236 53.5158L48.5653 53.565C48.3961 54.052 48.2092 54.533 48.0235 55.0108C47.9951 55.0838 47.9668 55.1566 47.9386 55.2294L47.7987 55.1752L47.9386 55.2294C47.8578 55.4378 47.7378 55.6019 47.577 55.6925C47.4112 55.7859 47.2231 55.7891 47.0383 55.714L47.0948 55.575L47.0383 55.714C46.8548 55.6394 46.7185 55.5132 46.6594 55.3332C46.6022 55.1588 46.6258 54.959 46.7055 54.7494C47.9096 51.5832 49.1144 48.4173 50.3201 45.2517L55.7318 55.0596ZM55.7318 55.0596L55.7238 55.0325M55.7318 55.0596L55.7238 55.0325M55.7238 55.0325C55.7188 55.0153 55.7131 54.9939 55.7067 54.97C55.6896 54.9061 55.6675 54.8234 55.6396 54.7494C54.4448 51.5797 53.2482 48.4106 52.05 45.2422C51.97 45.0308 51.8612 44.8624 51.7119 44.7483C51.5604 44.6325 51.3807 44.5831 51.18 44.5864C50.9575 44.5899 50.775 44.6569 50.6294 44.7803M55.7238 55.0325L50.6294 44.7803M50.6294 44.7803C50.4868 44.9012 50.3902 45.0671 50.3201 45.2515L50.6294 44.7803ZM53.1819 51.9925H49.1727L51.186 46.7031L53.1819 51.9925Z" fill="#549FDA" stroke="#549FDA" stroke-width="0.3"/>
<path d="M31.877 49.6879C31.8906 50.7701 32.2962 51.8106 33.0186 52.6165C33.741 53.4225 34.7312 53.939 35.8056 54.0703L35.8061 54.0704C36.2414 54.122 36.6888 54.1217 37.1255 54.1213C37.2978 54.1212 37.4684 54.121 37.6359 54.1241C37.4701 54.2733 37.2966 54.4138 37.1161 54.5452L37.116 54.5451L37.1114 54.5488C36.9532 54.6737 36.8487 54.8308 36.8187 55.0045C36.7884 55.1802 36.8376 55.3548 36.9536 55.5037C37.0644 55.646 37.213 55.7398 37.3837 55.7613C37.554 55.7828 37.7278 55.7301 37.8858 55.6145C38.6046 55.0914 39.3159 54.5584 40.0196 54.0155C40.2162 53.8639 40.3336 53.6683 40.3299 53.4526C40.3263 53.2381 40.2038 53.0442 40.0068 52.8931L40.0065 52.8928C39.3183 52.368 38.6265 51.8482 37.931 51.3332L37.8418 51.4538L37.931 51.3332C37.7614 51.2076 37.5746 51.1455 37.3938 51.162C37.2105 51.1787 37.0502 51.2748 36.938 51.4326C36.8298 51.5846 36.7863 51.7571 36.8226 51.9309C36.8584 52.1017 36.9672 52.2542 37.1261 52.3799C37.3071 52.5232 37.4927 52.6625 37.6767 52.8004C37.63 52.8005 37.5833 52.8005 37.5366 52.8005C37.1956 52.8008 36.8549 52.8011 36.514 52.8C34.5748 52.7938 33.2065 51.4262 33.1994 49.4833C33.1973 48.9268 33.1978 48.3716 33.1982 47.816C33.1985 47.3707 33.1989 46.9251 33.198 46.4785C33.1975 46.2525 33.1529 46.0561 33.0428 45.9121C32.9279 45.7617 32.7593 45.6907 32.5631 45.6845C32.3571 45.678 32.1764 45.7461 32.0505 45.8962C31.9287 46.0414 31.8749 46.2437 31.8743 46.4756C31.8737 46.7194 31.8727 46.9635 31.8717 47.2077C31.8683 48.0335 31.8649 48.861 31.877 49.6879ZM31.877 49.6879C31.877 49.688 31.877 49.688 31.877 49.6881L32.027 49.6859L31.877 49.6877C31.877 49.6878 31.877 49.6879 31.877 49.6879Z" fill="#549FDA" stroke="#549FDA" stroke-width="0.3"/>
<path d="M49.3241 32.1994C49.4998 32.3316 49.6767 32.4649 49.8501 32.6011C50.0174 32.7326 50.1341 32.8884 50.1741 33.0628C50.2151 33.2417 50.1702 33.4181 50.0565 33.5733C49.9422 33.7294 49.7812 33.823 49.5979 33.8374C49.4174 33.8516 49.2315 33.7879 49.0623 33.6623C48.3759 33.1531 47.6926 32.6398 47.0122 32.1226L47.0119 32.1223C46.8017 31.9615 46.6681 31.7626 46.6689 31.5383C46.6696 31.3141 46.8041 31.1156 47.0148 30.9551M49.3241 32.1994L47.0148 30.9551M49.3241 32.1994C49.37 32.1994 49.4159 32.1993 49.4618 32.1993C49.8025 32.199 50.1428 32.1987 50.4833 32.1998C51.4601 32.2027 52.2858 32.5488 52.8678 33.1309C53.4499 33.713 53.7966 34.5393 53.8003 35.5181C53.8025 36.0733 53.802 36.6272 53.8016 37.1815C53.8012 37.6288 53.8008 38.0765 53.8018 38.5253C53.8023 38.7516 53.8475 38.9482 53.9589 39.0918C54.0753 39.2417 54.2455 39.3109 54.4427 39.3153C54.6481 39.3198 54.8276 39.2503 54.952 39.0992C55.0722 38.9531 55.1249 38.7505 55.1254 38.5179C55.1262 38.2312 55.1297 37.943 55.1332 37.6539C55.1425 36.8826 55.152 36.1052 55.1085 35.3331M49.3241 32.1994L55.1086 35.3345C55.1086 35.334 55.1086 35.3336 55.1085 35.3331M47.0148 30.9551C47.6947 30.437 48.3789 29.9246 49.0675 29.4179C49.2394 29.2911 49.423 29.224 49.603 29.2388C49.7868 29.2539 49.9426 29.3524 50.0569 29.5088C50.1709 29.6647 50.2143 29.8427 50.1736 30.0216C50.1339 30.1967 50.0182 30.3534 49.8514 30.4832L49.847 30.4866L49.8469 30.4866C49.6808 30.6062 49.5217 30.7352 49.3704 30.8729M47.0148 30.9551L49.3704 30.8729M55.1085 35.3331C55.0855 34.7257 54.9526 34.1276 54.716 33.5677L54.7161 33.5677L54.7144 33.564C54.3162 32.6884 53.7598 32.0249 53.0566 31.5757C52.3537 31.1267 51.513 30.8975 50.5544 30.876C50.198 30.868 49.84 30.8701 49.4845 30.8722C49.4464 30.8725 49.4084 30.8727 49.3704 30.8729M55.1085 35.3331L49.3704 30.8729" fill="#549FDA" stroke="#549FDA" stroke-width="0.3"/>
<defs>
<linearGradient id="paint0_linear_115_670" x1="42.8907" y1="-12.3458" x2="43" y2="85" gradientUnits="userSpaceOnUse">
<stop stop-color="#96BFDF" stop-opacity="0.75"/>
<stop offset="1" stop-color="#CFFDFF"/>
</linearGradient>
<linearGradient id="paint1_linear_115_670" x1="42.9139" y1="-0.731362" x2="43.0861" y2="67.4743" gradientUnits="userSpaceOnUse">
<stop stop-color="#549FDA" stop-opacity="0.42"/>
<stop offset="1" stop-color="#B2F8FB" stop-opacity="0.62"/>
</linearGradient>
</defs>
</svg>
