<svg width="86" height="85" viewBox="0 0 86 85" fill="none" xmlns="http://www.w3.org/2000/svg">
<circle opacity="0.2" cx="43" cy="42.5" r="42.5" fill="url(#paint0_linear_115_680)"/>
<circle opacity="0.12" cx="43" cy="42.5" r="33.5" fill="url(#paint1_linear_115_680)"/>
<path d="M33.0947 57.5498C33.0946 57.7256 33.0944 57.8996 33.0942 58.0723C33.0936 58.595 33.093 59.1052 33.0958 59.615C33.097 59.8402 33.1506 60.0372 33.2741 60.1926C33.3977 60.3482 33.5774 60.4446 33.7971 60.4955L33.7986 60.4958C33.9582 60.531 34.1213 60.5481 34.2847 60.5469M33.0947 57.5498L34.2845 60.5469C34.2846 60.5469 34.2846 60.5469 34.2847 60.5469M33.0947 57.5498L31.5138 57.5498C31.4393 57.5498 31.3642 57.55 31.2887 57.5503C31.1191 57.551 30.9477 57.5517 30.7774 57.549C30.5012 57.5448 30.2652 57.4631 30.0986 57.2932C29.932 57.1233 29.8545 56.8854 29.8547 56.6081C29.8571 53.1215 29.8599 49.6349 29.8631 46.1483C29.8634 44.8991 29.8611 43.6504 29.8588 42.4014C29.8572 41.5018 29.8556 40.6021 29.8549 39.7021C29.8544 39.042 29.8546 38.382 29.8548 37.7222C29.8553 36.3789 29.8557 35.036 29.85 33.6928C29.8486 33.3634 29.94 33.0899 30.1848 32.8483C30.7575 32.2829 31.3251 31.7127 31.8932 31.1418C32.0904 30.9437 32.2877 30.7455 32.4852 30.5475C33.1705 29.8605 33.8556 29.1733 34.5406 28.4861L34.5408 28.4859C35.2486 27.7782 35.9574 27.0714 36.6673 26.3656C36.7763 26.2569 36.8854 26.1483 36.9944 26.0398C37.2967 25.7389 37.5985 25.4385 37.8985 25.1358C37.9897 25.0417 38.0999 24.968 38.2217 24.9195C38.3428 24.8713 38.4726 24.8492 38.6028 24.8546L38.8924 24.8549C43.2374 24.8604 47.582 24.8658 51.9264 24.85C52.265 24.8488 52.5365 24.9518 52.7196 25.1484C52.9015 25.3438 52.9771 25.6112 52.9664 25.9017C52.9481 26.3981 52.9521 26.8934 52.9562 27.4036C52.9576 27.578 52.9591 27.7542 52.9596 27.9327H53.0723C53.2848 27.9327 53.4974 27.9325 53.7101 27.9323C54.2011 27.9319 54.6923 27.9315 55.1834 27.9327C55.482 27.9334 55.7318 28.0026 55.9054 28.1752C56.0792 28.348 56.1485 28.5968 56.1485 28.8935C56.1491 32.0133 56.1493 35.1332 56.1491 38.253L56.1495 46.3047L56.1496 54.6088C56.1496 54.9587 56.1497 55.3087 56.1498 55.6587C56.1502 56.9678 56.1506 58.2773 56.1451 59.5867L56.145 59.5888C56.1417 59.7732 56.1049 59.9554 56.0363 60.1266C55.9826 60.2629 55.9016 60.3752 55.7824 60.4511C55.6642 60.5262 55.5233 60.5562 55.3663 60.5557C51.8105 60.5455 48.2546 60.5432 44.6987 60.5489H44.6985C41.2272 60.5488 37.756 60.5482 34.2847 60.5469M33.0947 57.5498L34.2847 60.5469M32.4977 32.1748C33.011 31.6496 33.5311 31.1313 34.0521 30.6122C34.1805 30.4842 34.309 30.3563 34.4374 30.2281C35.1302 29.5381 35.8225 28.8475 36.5142 28.1564C36.65 28.0208 36.7856 27.8832 36.9208 27.7461C37.0168 27.6488 37.1125 27.5517 37.2078 27.4557L37.1014 27.35L37.2078 27.4557C37.2182 27.4453 37.2273 27.4359 37.2359 27.4271C37.2511 27.4115 37.2646 27.3976 37.2801 27.383C37.3028 27.3615 37.3199 27.3481 37.3333 27.3405C37.3391 27.3372 37.3428 27.3357 37.3447 27.3351C37.347 27.3361 37.3513 27.3383 37.3579 27.3433L37.4487 27.2239L37.3579 27.3433C37.3729 27.3547 37.396 27.383 37.416 27.4279C37.4355 27.4716 37.4452 27.5159 37.4457 27.5471C37.4551 28.1305 37.454 28.7137 37.4529 29.2985C37.4526 29.4859 37.4523 29.6736 37.4523 29.8614V29.8615C37.4529 30.626 37.4526 31.3905 37.4515 32.155C37.4514 32.2312 37.449 32.2802 37.4433 32.3138C37.4409 32.3281 37.4383 32.3364 37.4367 32.3406M32.4977 32.1748L32.3904 32.0699L32.4977 32.1748C32.4977 32.1748 32.4977 32.1748 32.4977 32.1748ZM32.4977 32.1748C32.4881 32.1845 32.4711 32.2121 32.4601 32.2518C32.455 32.2701 32.4524 32.287 32.4518 32.3007C32.4516 32.3037 32.4516 32.3062 32.4516 32.3085M32.4516 32.3085C32.4492 32.3067 32.4471 32.305 32.4455 32.3035C32.4432 32.3015 32.4423 32.3004 32.4423 32.3004C32.4424 32.3004 32.4483 32.3068 32.4527 32.3207C32.4527 32.3208 32.4527 32.3207 32.4527 32.3206C32.4525 32.3199 32.4517 32.3161 32.4516 32.3085ZM32.4516 32.3085C32.4581 32.3133 32.4673 32.3192 32.4792 32.3253C32.4952 32.3336 32.5127 32.3405 32.5292 32.3452C32.5464 32.3501 32.5579 32.3513 32.5627 32.3513C34.1288 32.3596 35.695 32.361 37.2613 32.3557L37.2614 32.3557C37.3368 32.3556 37.3839 32.3525 37.415 32.3464C37.4262 32.3442 37.433 32.3421 37.4367 32.3406M37.4367 32.3406C37.4347 32.3461 37.4341 32.345 37.4371 32.3418C37.4391 32.3396 37.4406 32.3388 37.4406 32.3388C37.4407 32.3388 37.4396 32.3395 37.4367 32.3406ZM38.6089 32.9525V32.9525C38.6087 30.7502 38.6088 28.548 38.6092 26.3458C38.6092 26.1588 38.637 26.0982 38.6617 26.0734C38.6862 26.0488 38.7467 26.0204 38.9347 26.0204C43.2164 26.0198 47.4982 26.0197 51.7799 26.0201C51.7815 26.0201 51.783 26.0201 51.7846 26.0201V56.3732H31.0144V56.2691C31.0149 53.3181 31.0153 50.3671 31.0155 47.4161L31.0155 38.7472L31.0154 33.8642C31.0154 33.763 31.0202 33.6933 31.0306 33.6436C31.0406 33.5957 31.0534 33.5784 31.0612 33.5708C31.0692 33.5629 31.0874 33.5498 31.137 33.5397C31.1881 33.5293 31.2595 33.5245 31.3626 33.5245C31.3626 33.5245 31.3626 33.5245 31.3626 33.5245L38.0367 33.524C38.1307 33.5239 38.2155 33.5211 38.2869 33.508C38.3598 33.4947 38.4343 33.4682 38.4936 33.409C38.553 33.3498 38.5795 33.2753 38.5929 33.2025C38.606 33.1311 38.6089 33.0464 38.6089 32.9525ZM52.9602 35.9369V35.9368L52.9599 29.2175V29.0861H54.9848V59.3726H34.2647V57.5497H34.279L34.437 57.5497L41.1132 57.5498L51.8921 57.5498C52.2381 57.5498 52.5183 57.4866 52.7073 57.2994C52.8967 57.1117 52.9604 56.8334 52.9597 56.4901C52.9585 55.8642 52.9569 55.2383 52.9553 54.6125C52.9518 53.296 52.9484 51.9798 52.9489 50.6634C52.9532 45.7545 52.957 40.8457 52.9602 35.9369Z" fill="#549FDA" stroke="#549FDA" stroke-width="0.3"/>
<path d="M33.4362 40.3973H33.4362C33.3489 40.3973 33.2704 40.397 33.2076 40.3891C33.145 40.3811 33.0689 40.3626 33.0097 40.3026C32.9509 40.243 32.9331 40.1669 32.9253 40.1043C32.9175 40.0411 32.9171 39.962 32.917 39.8735V39.8735C32.917 39.8606 32.917 39.8479 32.917 39.8355C32.9171 39.7789 32.9172 39.727 32.9144 39.6747L33.4362 40.3973ZM33.4362 40.3973L41.4602 40.3974M33.4362 40.3973L41.4602 40.3974M41.4602 40.3974C44.0976 40.3975 46.7349 40.3975 49.3723 40.3973C49.4125 40.3973 49.4511 40.3976 49.4876 40.3979C49.5648 40.3986 49.6325 40.3991 49.6858 40.3963C49.7607 40.3923 49.8578 40.3811 49.9312 40.3136C50.0069 40.2441 50.0238 40.1468 50.0305 40.0681C50.0366 39.9967 50.0359 39.9037 50.0351 39.7926C50.035 39.7757 50.0348 39.7585 50.0347 39.7408C50.0342 39.6613 50.0327 39.5882 50.0232 39.5277C50.0136 39.4663 49.9926 39.3955 49.9353 39.3396C49.8786 39.2842 49.8075 39.2644 49.7457 39.2553C49.6842 39.2462 49.6096 39.245 49.5272 39.2449M41.4602 40.3974L49.5272 39.2449M33.0208 39.349C33.1079 39.2647 33.2269 39.2425 33.3394 39.2427C35.7015 39.2478 38.0636 39.2508 40.4257 39.2518C41.4826 39.2519 42.5392 39.2499 43.5959 39.2479C44.3197 39.2465 45.0435 39.2451 45.7675 39.2444C47.0208 39.2432 48.274 39.2434 49.5272 39.2449C49.5272 39.2449 49.5272 39.2449 49.5272 39.2449M33.0208 39.349L49.5271 39.3949L49.5272 39.2449M33.0208 39.349C32.931 39.436 32.9083 39.5563 32.9144 39.6747L33.0208 39.349Z" fill="#549FDA" stroke="#549FDA" stroke-width="0.3"/>
<path d="M33.4262 36.167H33.4262C36.1024 36.1671 38.7786 36.1671 41.4549 36.167C44.093 36.1668 46.7312 36.1668 49.3693 36.1671L49.3796 36.1671C49.5002 36.1671 49.603 36.1671 49.6832 36.1584C49.7644 36.1496 49.8556 36.1292 49.9251 36.0608C49.995 35.992 50.0162 35.901 50.0254 35.82C50.0345 35.7401 50.0346 35.6377 50.0348 35.518L50.0348 35.5092C50.0349 35.4263 50.0349 35.3515 50.0281 35.292C50.0213 35.2334 50.0051 35.1588 49.9476 35.1002C49.8896 35.0411 49.8151 35.024 49.7563 35.0169C49.697 35.0096 49.6227 35.0095 49.5409 35.0095C44.2114 35.0092 38.882 35.0092 33.5526 35.0095L33.5471 35.0095C33.4333 35.0095 33.3353 35.0095 33.2585 35.0184C33.1811 35.0273 33.0932 35.0479 33.0261 35.1157C32.9597 35.1829 32.9391 35.2708 32.9297 35.3484C32.9204 35.4252 32.9192 35.5235 32.9178 35.6382C32.9178 35.641 32.9178 35.6439 32.9177 35.6467C32.9167 35.7307 32.9173 35.807 32.9264 35.8704C32.9356 35.9344 32.9561 36.0066 33.0121 36.0643C33.0685 36.1224 33.1402 36.1447 33.2042 36.1551C33.2673 36.1654 33.3431 36.167 33.4262 36.167Z" fill="#549FDA" stroke="#549FDA" stroke-width="0.3"/>
<path d="M35.2714 48.8806H35.2714C34.6445 48.8807 34.0177 48.8795 33.3909 48.8768L35.2714 48.8806ZM35.2714 48.8806L49.376 48.8774C49.406 48.8774 49.4342 48.8771 49.4615 48.8768C49.5171 48.8762 49.5687 48.8757 49.6226 48.8777L49.6282 48.7278M35.2714 48.8806L49.6282 48.7278M49.6282 48.7278L49.6226 48.8777C49.7359 48.8819 49.8537 48.8587 49.9382 48.7713C50.0224 48.6843 50.042 48.5662 50.0351 48.4542C50.0329 48.4183 50.0335 48.386 50.0341 48.348C50.0345 48.3274 50.0349 48.3052 50.0349 48.2799V48.2726C50.0349 48.1788 50.0348 48.0964 50.0278 48.0315C50.0207 47.9663 50.004 47.8861 49.9436 47.8237C49.8823 47.7604 49.8023 47.7422 49.7372 47.7346C49.6728 47.7271 49.5911 47.7271 49.4992 47.7271L49.4941 47.7271L41.6399 47.7269V47.7261M49.6282 48.7278L41.6399 47.7261M41.6399 47.7261H41.4899M41.6399 47.7261H41.4899M41.4899 47.7261H33.6004C33.5974 47.7261 33.5945 47.7261 33.5916 47.7261C33.4654 47.7261 33.3581 47.7261 33.2745 47.7354C33.1901 47.7449 33.0966 47.7666 33.026 47.8378C32.9557 47.9088 32.9345 48.0025 32.9254 48.0871C32.9164 48.1711 32.9167 48.279 32.917 48.4061C32.917 48.409 32.917 48.4119 32.917 48.4148C32.9172 48.484 32.9196 48.5497 32.9306 48.6067M41.4899 47.7261L32.9306 48.6067M32.9306 48.6067C32.942 48.6655 32.9653 48.7291 33.0181 48.7803M32.9306 48.6067L33.0181 48.7803M33.0181 48.7803C33.0704 48.8308 33.1344 48.8526 33.1933 48.8634M33.0181 48.7803L33.1933 48.8634M33.1933 48.8634C33.2511 48.8741 33.3185 48.8766 33.3908 48.8768L33.1933 48.8634Z" fill="#549FDA" stroke="#549FDA" stroke-width="0.3"/>
<path d="M33.4173 44.6307H33.4173L41.4657 44.6308L49.422 44.6308L49.4306 44.6308C49.539 44.6308 49.6328 44.6308 49.7062 44.6226C49.7805 44.6143 49.8672 44.5949 49.9333 44.5285C49.9993 44.4622 50.0184 44.3754 50.0265 44.301C50.0345 44.2274 50.0344 44.1333 50.0342 44.0244L50.0342 44.0159C50.0341 43.9274 50.0337 43.8483 50.0259 43.7851C50.0181 43.7225 50.0001 43.6462 49.9408 43.5865C49.8813 43.5268 49.8049 43.5086 49.7422 43.5009C49.6792 43.493 49.6002 43.4928 49.5121 43.4928L41.7411 43.4929L33.553 43.4935C33.5501 43.4935 33.5472 43.4935 33.5443 43.4935C33.4296 43.4935 33.3311 43.4935 33.254 43.502C33.1762 43.5107 33.0872 43.5308 33.0195 43.5988C32.9519 43.6667 32.9321 43.7558 32.9237 43.8337C32.9154 43.9108 32.9157 44.0094 32.916 44.1243C32.9161 44.1272 32.9161 44.13 32.9161 44.1329C32.9163 44.2136 32.9174 44.2874 32.9261 44.3477C32.9349 44.4084 32.9545 44.4802 33.0115 44.5369C33.0684 44.5934 33.1403 44.6127 33.2012 44.6213C33.2618 44.6298 33.3359 44.6307 33.4173 44.6307Z" fill="#549FDA" stroke="#549FDA" stroke-width="0.3"/>
<path d="M35.5331 53.1149C40.2044 53.1129 44.8758 53.1102 49.5472 53.1068C49.6238 53.1067 49.6947 53.1051 49.7542 53.0951C49.8151 53.0849 49.8832 53.0631 49.9374 53.0074C49.9909 52.9525 50.0116 52.8844 50.0217 52.8243C50.0317 52.7649 50.0342 52.6936 50.0355 52.6159C50.036 52.5858 50.0355 52.5519 50.0351 52.5214C50.0348 52.5047 50.0346 52.4889 50.0346 52.4753C50.0343 52.3938 50.0335 52.3198 50.0254 52.2598C50.0172 52.1998 49.9987 52.1273 49.9417 52.0701C49.8846 52.0127 49.8121 51.9941 49.752 51.9859C49.6921 51.9778 49.6183 51.9772 49.5372 51.9772L41.4862 51.9771H41.3362V51.9786C40.6848 51.9786 40.0334 51.9784 39.382 51.9781C37.4536 51.9774 35.5248 51.9767 33.5962 51.9814C33.5629 51.9815 33.531 51.9815 33.5006 51.9814C33.3979 51.9813 33.3123 51.9812 33.2468 51.986C33.1677 51.9918 33.0646 52.0065 32.9936 52.0862C32.9254 52.1627 32.9189 52.2651 32.917 52.3388C32.9159 52.3789 32.9167 52.4326 32.9177 52.4933C32.9185 52.5467 32.9194 52.6055 32.9192 52.6655C32.9189 52.7334 32.9206 52.7978 32.9308 52.8532C32.9412 52.9104 32.9633 52.974 33.0164 53.0248C33.0687 53.0748 33.1327 53.0946 33.1888 53.104C33.2442 53.1132 33.309 53.1149 33.3779 53.115H33.3779C34.0963 53.1153 34.8147 53.1153 35.5331 53.1149ZM35.5331 53.1149L35.533 52.9649M35.5331 53.1149L35.533 52.9649M35.533 52.9649C34.8147 52.9653 34.0963 52.9653 33.378 52.965L41.4862 52.1271H41.6362L49.5372 52.1272C49.8703 52.1272 49.8836 52.1409 49.8846 52.4757C49.8846 52.4932 49.8849 52.5106 49.8851 52.528C49.8856 52.5565 49.886 52.5849 49.8855 52.6134C49.8802 52.9274 49.8556 52.9566 49.5471 52.9568C44.8757 52.9602 40.2044 52.9629 35.533 52.9649Z" fill="#549FDA" stroke="#549FDA" stroke-width="0.3"/>
<path d="M40.5707 31.92H40.5708L45.0668 31.9202C45.0668 31.9202 45.0668 31.9202 45.0668 31.9202C46.5196 31.9204 47.9724 31.9204 49.4252 31.9202L49.4328 31.9202C49.5411 31.9201 49.635 31.9201 49.7086 31.9118C49.7829 31.9033 49.8696 31.8835 49.9355 31.8163C50.0008 31.7497 50.0195 31.6627 50.0275 31.5881C50.0353 31.514 50.0351 31.4194 50.0347 31.3096L50.0347 31.3012C50.0344 31.2088 50.0336 31.1269 50.025 31.0611C50.0165 30.9957 49.9974 30.9191 49.9388 30.8588C49.8794 30.7977 49.803 30.7774 49.7377 30.7685C49.6727 30.7596 49.5922 30.759 49.5027 30.759H49.5026C46.5894 30.7598 43.6762 30.7598 40.763 30.7592C40.7499 30.7591 40.737 30.7591 40.7244 30.7591C40.6019 30.759 40.5004 30.7589 40.423 30.7663C40.3411 30.774 40.2435 30.7925 40.1736 30.8676C40.1048 30.9415 40.0925 31.0389 40.0882 31.1155C40.0851 31.1702 40.0857 31.2394 40.0864 31.3181C40.0868 31.3537 40.0871 31.3912 40.0871 31.4302C40.0872 31.5097 40.0878 31.5821 40.0955 31.6408C40.1031 31.6992 40.1207 31.771 40.1765 31.8278C40.2328 31.8852 40.3045 31.9035 40.3629 31.9115C40.4212 31.9194 40.4928 31.92 40.5707 31.92Z" fill="#549FDA" stroke="#549FDA" stroke-width="0.3"/>
<defs>
<linearGradient id="paint0_linear_115_680" x1="42.8907" y1="-12.3458" x2="43" y2="85" gradientUnits="userSpaceOnUse">
<stop stop-color="#96BFDF" stop-opacity="0.75"/>
<stop offset="1" stop-color="#CFFDFF"/>
</linearGradient>
<linearGradient id="paint1_linear_115_680" x1="42.9139" y1="-0.731362" x2="43.0861" y2="67.4743" gradientUnits="userSpaceOnUse">
<stop stop-color="#549FDA" stop-opacity="0.42"/>
<stop offset="1" stop-color="#B2F8FB" stop-opacity="0.62"/>
</linearGradient>
</defs>
</svg>
