<svg width="86" height="85" viewBox="0 0 86 85" fill="none" xmlns="http://www.w3.org/2000/svg">
<circle opacity="0.2" cx="43" cy="42.5" r="42.5" fill="url(#paint0_linear_115_686)"/>
<circle opacity="0.12" cx="43" cy="42.5" r="33.5" fill="url(#paint1_linear_115_686)"/>
<path d="M45.0072 26.9998C45.4405 27.5334 45.8648 28.0547 46.2872 28.5777C46.3477 28.6525 46.4013 28.7334 46.4542 28.814C46.6836 29.1632 46.6217 29.5583 46.3047 29.7784C45.9895 29.9973 45.5929 29.9167 45.3554 29.5745C44.9009 28.9195 44.399 28.3063 43.8028 27.7753C43.0829 27.134 42.2784 26.6501 41.3244 26.4489C41.2813 26.4398 41.2374 26.4352 41.1734 26.4254V32.9799C41.6962 33.0095 42.2127 33.0288 42.7275 33.0703C43.3471 33.1203 43.9656 33.1847 44.5836 33.2513C45.0189 33.2982 45.2788 33.6229 45.2201 34.0273C45.166 34.401 44.8278 34.6204 44.4164 34.5836C43.4066 34.4933 42.3955 34.4172 41.3849 34.3365C41.3197 34.3313 41.2538 34.3359 41.1714 34.3359V41.9099H41.4234C42.8602 41.9099 44.297 41.9102 45.7338 41.9108C46.2372 41.9117 46.5621 42.3374 46.4143 42.7913C46.3208 43.0785 46.0702 43.2474 45.726 43.2477C44.2966 43.2487 42.8672 43.2489 41.4378 43.2481H41.1663V50.7765C41.5756 50.7765 41.9737 50.7972 42.369 50.773C44.3139 50.6617 46.2419 50.3483 48.1223 49.8378C48.6727 49.6862 49.1353 50.1165 48.9829 50.6582C48.349 52.9124 47.4631 55.0505 46.0262 56.9221C45.7021 57.3443 45.3363 57.7342 44.9622 58.171C45.2584 58.0755 45.5294 57.9941 45.7963 57.9009C48.1659 57.0743 50.2229 55.7508 51.985 53.9627C52.181 53.7638 52.3956 53.642 52.6771 53.7046C52.7939 53.729 52.9019 53.7846 52.9898 53.8656C53.0776 53.9466 53.142 54.0499 53.1761 54.1647C53.2102 54.2794 53.2127 54.4012 53.1834 54.5173C53.1541 54.6334 53.0941 54.7393 53.0097 54.8239C52.6821 55.1668 52.3382 55.4963 51.9808 55.8078C49.2173 58.2163 46.02 59.6482 42.3765 60.0269C35.8231 60.7079 29.6398 57.8147 25.969 52.3555C24.2033 49.7295 23.2247 46.8312 23.0334 43.6606C22.5638 36.0132 27.086 28.9066 34.2217 26.198C39.0937 24.3487 43.8835 24.6596 48.5413 26.998C48.6673 27.0587 48.7802 27.1438 48.8736 27.2482C49.0684 27.4785 49.0519 27.8383 48.8599 28.0726C48.6612 28.315 48.3336 28.3799 48.0339 28.2423C47.4356 27.9678 46.8417 27.6825 46.2348 27.4285C45.8354 27.2613 45.4166 27.1408 45.0072 26.9998ZM32.2675 41.8972H39.7924V34.3348C39.7426 34.3348 39.7136 34.334 39.6847 34.3349C37.5541 34.4 35.4514 34.6673 33.3832 35.1951C33.2314 35.2339 33.1668 35.3026 33.1294 35.4504C32.7213 37.0796 32.4572 38.7417 32.3402 40.4175C32.3049 40.9049 32.2916 41.3939 32.2675 41.8972ZM32.2795 43.2542C32.2795 43.3314 32.2782 43.3894 32.2797 43.4474C32.3334 45.5289 32.6096 47.5986 33.1034 49.621C33.1595 49.8515 33.2721 49.9375 33.4892 49.9914C35.1718 50.407 36.8885 50.6685 38.6183 50.7728C39.0065 50.7968 39.3974 50.7763 39.7939 50.7763V43.2542H32.2795ZM24.9802 38.0278C25.3771 37.6834 25.7332 37.3476 26.1163 37.0464C27.8182 35.7084 29.7587 34.8468 31.8096 34.2149C32.0008 34.1559 32.0949 34.068 32.1535 33.8734C32.7027 32.0505 33.4401 30.3111 34.5403 28.7495C34.966 28.1453 35.4582 27.5884 35.9079 27.0252C33.1376 27.8469 30.6393 29.4032 28.676 31.5302C26.9407 33.3943 25.7141 35.5528 24.9802 38.0278ZM35.921 58.1265C35.5325 57.6575 35.1118 57.1962 34.7432 56.6963C33.5358 55.0592 32.7388 53.2189 32.1516 51.281C32.0965 51.0992 32.0143 51.008 31.8274 50.9475C31.2016 50.7452 30.5761 50.5362 29.9666 50.2897C28.2661 49.6019 26.6841 48.7129 25.3383 47.4419C25.2327 47.3421 25.1498 47.218 25.0563 47.1053L25.0106 47.1521C26.2188 51.6989 30.1849 56.4806 35.921 58.1265ZM41.1637 58.7367C41.2738 58.7151 41.3538 58.7036 41.4314 58.6832C41.5672 58.6477 41.7035 58.6122 41.8363 58.5671C42.9886 58.1758 43.8867 57.4273 44.6586 56.5129C45.9076 55.033 46.7111 53.3112 47.3287 51.4915C47.3306 51.4677 47.3287 51.4438 47.323 51.4207C45.2904 51.8869 43.2373 52.1115 41.1637 52.169V58.7367ZM31.6554 35.7346C31.6162 35.7388 31.5773 35.7456 31.539 35.7549C29.9032 36.33 28.3467 37.061 26.968 38.132C26.0263 38.8635 25.2126 39.7105 24.7248 40.8219C24.5758 41.1613 24.4818 41.525 24.3565 41.8959H30.937C30.9721 39.8233 31.2128 37.7594 31.6554 35.7346ZM30.9007 43.26H24.3804C24.4354 43.4703 24.4766 43.6662 24.5379 43.8556C24.9147 45.0186 25.6612 45.9201 26.5695 46.6982C28.0384 47.9566 29.7484 48.7739 31.5561 49.4067C31.5746 49.4116 31.5939 49.4129 31.6129 49.4105C31.4544 48.3889 31.2668 47.3811 31.1492 46.3652C31.0307 45.3413 30.9818 44.3092 30.9007 43.26ZM33.6446 33.7229C35.7038 33.2564 37.7427 33.0436 39.7995 32.9889V26.4324C39.7417 26.4396 39.6979 26.442 39.6555 26.4509C38.9641 26.5967 38.3441 26.9005 37.7722 27.3104C36.9302 27.9141 36.2586 28.6812 35.6751 29.5302C34.7955 30.8103 34.163 32.2116 33.6446 33.7229ZM39.8015 52.1667C37.7217 52.1183 35.6869 51.8924 33.6596 51.4422C34.297 53.4363 35.4023 55.5464 36.6941 56.8994C37.2407 57.4719 37.839 57.9806 38.5585 58.3168C38.9476 58.4986 39.3639 58.622 39.8015 58.7841V52.1667Z" fill="#549FDA"/>
<path d="M59.9382 42.8001C61.4286 45.768 60.4404 48.9879 58.2106 50.7148C55.9977 52.4287 52.8984 52.4528 50.645 50.7681C48.3576 49.0581 47.3404 45.7683 48.8407 42.8093C46.7224 40.8976 45.6465 38.5251 45.8078 35.6506C45.9346 33.3931 46.8553 31.477 48.4853 29.9187C51.8304 26.7208 57.0752 26.7695 60.4122 30.0271C61.5611 31.1523 62.3723 32.5788 62.7533 34.144C63.1342 35.7092 63.0698 37.3504 62.5672 38.8807C62.0573 40.4358 61.1671 41.7368 59.9382 42.8001ZM55.0567 31.4051C55.1494 31.4332 55.2199 31.454 55.2901 31.4759C56.4423 31.8342 57.2246 32.8173 57.2933 33.993C57.3184 34.4216 57.0585 34.7485 56.6749 34.771C56.2747 34.7945 56.0131 34.5254 55.9548 34.0907C55.923 33.8539 55.861 33.6021 55.7411 33.3997C55.3796 32.7892 54.5802 32.5343 53.8661 32.7649C53.094 33.0142 52.6614 33.7738 52.8842 34.4891C53.0673 35.077 53.6605 35.4974 54.3252 35.5289C54.5974 35.5418 54.8755 35.5578 55.1381 35.6239C57.014 36.0962 57.9244 38.1821 56.8103 39.8153C56.7911 39.8489 56.7742 39.8839 56.7598 39.9199C57.6887 40.305 58.5133 40.9061 59.1657 41.6735C61.1584 39.9863 62.2793 36.9429 61.3186 33.9798C60.341 30.9646 57.576 28.9116 54.4894 28.8929C51.339 28.8739 48.5386 30.8516 47.5234 33.7939C46.4831 36.8087 47.5605 39.92 49.6184 41.6764C50.2709 40.9064 51.0964 40.303 52.0267 39.9159C51.6336 39.2553 51.4884 38.8219 51.4903 38.333C51.4919 37.9286 51.7574 37.634 52.1315 37.6215C52.5228 37.6084 52.8041 37.8828 52.8231 38.3026C52.8429 38.7383 53.0321 39.083 53.362 39.3598C53.4952 39.4716 53.634 39.5029 53.8099 39.4916C54.1709 39.4684 54.5375 39.4471 54.8953 39.4861C55.1624 39.5152 55.3614 39.4483 55.5269 39.2625C55.6494 39.1341 55.753 38.9889 55.8348 38.8312C56.207 38.0388 55.7009 37.1136 54.7818 36.9171C54.5017 36.8573 54.2078 36.8663 53.9227 36.8265C52.625 36.6453 51.6166 35.6008 51.4968 34.3218C51.3817 33.0926 52.1897 31.9084 53.4382 31.5007C53.6352 31.4363 53.7359 31.3748 53.7343 31.1357C53.7317 30.7616 54.0377 30.4933 54.3951 30.4951C54.7625 30.4969 55.0388 30.776 55.0562 31.1646C55.0595 31.2383 55.0567 31.3123 55.0567 31.4051ZM54.3776 50.6835C57.0639 50.6928 59.3023 48.4787 59.3119 45.8029C59.3219 43.028 57.1341 40.7992 54.3962 40.795C51.6885 40.7908 49.4765 43.0072 49.4719 45.7289C49.4673 48.4502 51.6693 50.6741 54.3776 50.6835Z" fill="#549FDA"/>
<path d="M56.6393 54.482C56.6394 54.1036 56.6371 53.7251 56.64 53.3466C56.6431 52.9316 56.9198 52.6355 57.3013 52.6328C57.6794 52.6301 57.9695 52.9303 57.9714 53.3384C57.9749 54.1027 57.9749 54.8671 57.9714 55.6315C57.9691 56.0286 57.684 56.3183 57.3093 56.3196C56.9314 56.321 56.6461 56.0358 56.6405 55.6397C56.635 55.2539 56.6393 54.8679 56.6393 54.482Z" fill="#549FDA"/>
<path d="M62.5084 50.2254C62.5083 50.5002 62.5125 50.775 62.5073 51.0496C62.4996 51.4554 62.2282 51.7354 61.8478 51.7385C61.4548 51.7417 61.1772 51.4613 61.1733 51.0432C61.1682 50.4938 61.1682 49.9444 61.1733 49.3949C61.177 48.9782 61.4566 48.6901 61.8429 48.6913C62.2255 48.6925 62.5019 48.985 62.5077 49.4013C62.5116 49.676 62.5085 49.9507 62.5084 50.2254Z" fill="#549FDA"/>
<path d="M61.6659 43.8173C61.6659 43.6096 61.6587 43.4015 61.6674 43.1942C61.6715 43.0177 61.7449 42.85 61.8717 42.7276C61.9984 42.6052 62.1683 42.5381 62.3441 42.5409C62.7086 42.5475 62.9919 42.8361 62.9965 43.2167C63.0014 43.6247 63.0014 44.0327 62.9965 44.4407C62.9917 44.8245 62.7125 45.1082 62.3438 45.1151C62.1679 45.1185 61.9979 45.0517 61.8711 44.9293C61.7443 44.807 61.6711 44.6391 61.6675 44.4626C61.6586 44.2479 61.6659 44.0324 61.6659 43.8173Z" fill="#549FDA"/>
<path d="M55.27 46.2338H55.37V46.1338V45.3649V45.2649H55.27H54.2113C54.2097 44.8925 54.2428 44.5832 54.3076 44.3398C54.3783 44.0744 54.4841 43.8972 54.6137 43.7971L54.6137 43.7971C54.8341 43.6269 55.2286 43.6132 55.8291 43.8231L55.9235 43.8561L55.9565 43.7617L56.21 43.0358L56.243 42.9415L56.1486 42.9085C55.2683 42.6008 54.5436 42.6275 54.0217 43.0302L54.0217 43.0302C53.4841 43.4452 53.2382 44.1932 53.242 45.2649H52.5155H52.4155V45.3649V46.1338V46.2338H52.5155H53.2622C53.2466 46.6467 53.1974 46.9646 53.0856 47.2135C52.9673 47.4771 52.7757 47.6701 52.4587 47.8139L52.4 47.8405V47.905V48.6998V48.7998H52.5H56.1843H56.2843V48.6998V47.9309V47.8309H56.1843H53.8583C54.1386 47.3556 54.2145 46.7929 54.2324 46.2338H55.27Z" fill="#549FDA" stroke="#549FDA" stroke-width="0.2"/>
<defs>
<linearGradient id="paint0_linear_115_686" x1="42.8907" y1="-12.3458" x2="43" y2="85" gradientUnits="userSpaceOnUse">
<stop stop-color="#96BFDF" stop-opacity="0.75"/>
<stop offset="1" stop-color="#CFFDFF"/>
</linearGradient>
<linearGradient id="paint1_linear_115_686" x1="42.9139" y1="-0.731362" x2="43.0861" y2="67.4743" gradientUnits="userSpaceOnUse">
<stop stop-color="#549FDA" stop-opacity="0.42"/>
<stop offset="1" stop-color="#B2F8FB" stop-opacity="0.62"/>
</linearGradient>
</defs>
</svg>
