<svg width="86" height="85" viewBox="0 0 86 85" fill="none" xmlns="http://www.w3.org/2000/svg">
<circle opacity="0.2" cx="43" cy="42.5" r="42.5" fill="url(#paint0_linear_115_691)"/>
<circle opacity="0.12" cx="43" cy="42.5" r="33.5" fill="url(#paint1_linear_115_691)"/>
<path d="M38.5768 37.0204L42.9429 28.0407C42.943 28.0406 42.943 28.0405 42.943 28.0405C42.9504 28.0256 42.9605 28.0152 42.9706 28.0089L42.4395 27.1656L42.9706 28.0089C42.9806 28.0026 42.9907 28 43 28C43.0093 28 43.0194 28.0026 43.0294 28.0089C43.0394 28.0152 43.0495 28.0255 43.0568 28.0402C43.0569 28.0404 43.057 28.0405 43.0571 28.0407L47.4232 37.0204L47.6542 37.4954L48.1766 37.5724L57.9407 39.0126L57.9408 39.0126C57.9502 39.014 57.9607 39.0182 57.9706 39.0268C57.9807 39.0354 57.99 39.0483 57.9954 39.0651C58.0008 39.082 58.0015 39.1006 57.9972 39.1182C57.993 39.1357 57.9844 39.1497 57.9745 39.1596L57.9743 39.1597L50.9089 46.1484L50.5395 46.5137L50.6261 47.0259L52.2942 56.9008C52.2942 56.9009 52.2942 56.901 52.2942 56.9011C52.2972 56.9191 52.2951 56.9373 52.2887 56.9532L53.2168 57.3254L52.2887 56.9532C52.2823 56.9692 52.2725 56.9809 52.2623 56.9884L52.8561 57.793L52.2623 56.9884C52.2523 56.9958 52.242 56.9992 52.2327 56.9999C52.2234 57.0005 52.2134 56.9987 52.2035 56.9934L43.471 52.3313L43 52.0799L42.529 52.3313L33.7965 56.9934C33.7965 56.9935 33.7964 56.9935 33.7963 56.9936C33.7864 56.9987 33.7765 57.0005 33.7673 56.9999C33.758 56.9992 33.7477 56.9958 33.7377 56.9884L33.1439 57.793L33.7377 56.9884C33.7275 56.9809 33.7177 56.9692 33.7113 56.9532C33.7049 56.9372 33.7028 56.9189 33.7058 56.9009C33.7058 56.9008 33.7058 56.9008 33.7058 56.9008L35.3739 47.0281L35.4605 46.516L35.0912 46.1507L28.0258 39.1598L28.0255 39.1596C28.0156 39.1497 28.007 39.1357 28.0028 39.1182C27.9985 39.1006 27.9992 39.0821 28.0046 39.0651C28.01 39.0483 28.0193 39.0354 28.0294 39.0268C28.0393 39.0182 28.0498 39.014 28.0592 39.0126L28.0593 39.0126L37.8234 37.5724L38.3458 37.4954L38.5768 37.0204Z" stroke="#549FDA" stroke-width="2"/>
<defs>
<linearGradient id="paint0_linear_115_691" x1="42.8907" y1="-12.3458" x2="43" y2="85" gradientUnits="userSpaceOnUse">
<stop stop-color="#96BFDF" stop-opacity="0.75"/>
<stop offset="1" stop-color="#CFFDFF"/>
</linearGradient>
<linearGradient id="paint1_linear_115_691" x1="42.9139" y1="-0.731362" x2="43.0861" y2="67.4743" gradientUnits="userSpaceOnUse">
<stop stop-color="#549FDA" stop-opacity="0.42"/>
<stop offset="1" stop-color="#B2F8FB" stop-opacity="0.62"/>
</linearGradient>
</defs>
</svg>
