<svg width="86" height="85" viewBox="0 0 86 85" fill="none" xmlns="http://www.w3.org/2000/svg">
<circle opacity="0.2" cx="43" cy="42.5" r="42.5" fill="url(#paint0_linear_115_696)"/>
<circle opacity="0.12" cx="43" cy="42.5" r="33.5" fill="url(#paint1_linear_115_696)"/>
<g clip-path="url(#clip0_115_696)">
<path d="M32.4112 63.0255C32.0939 62.8047 31.9993 62.4976 32.0003 62.1077C32.01 58.3098 32.0054 54.512 32.0084 50.7141C32.0086 50.5446 31.9837 50.3203 32.0739 50.2178C32.234 50.0358 32.4622 49.8398 32.6824 49.8101C32.98 49.7699 33.1953 50.0028 33.2459 50.3271C33.2625 50.4838 33.2671 50.6416 33.2595 50.799C33.2601 54.2529 33.2603 57.7068 33.26 61.1607V61.7031H47.5787V60.3566H47.1029C43.2439 60.3566 39.3849 60.3565 35.5259 60.3564C34.7928 60.3563 34.6029 60.166 34.6028 59.4233C34.6021 52.4868 34.6021 45.5504 34.6029 38.6139C34.603 37.8913 34.7933 37.6961 35.4976 37.6955C37.462 37.6937 39.4263 37.6941 41.3906 37.6965C41.5427 37.6967 41.7442 37.6634 41.8362 37.7467C42.0159 37.9095 42.2487 38.1455 42.2459 38.348C42.243 38.5509 42.0071 38.786 41.8199 38.9368C41.7114 39.0243 41.4976 38.9829 41.3311 38.9832C39.6733 38.9856 38.0155 38.9861 36.3576 38.9847C36.208 38.9847 36.0583 38.9847 35.8827 38.9847V59.0356H47.6053C47.6053 58.8505 47.6053 58.6823 47.6053 58.5141C47.6054 55.2465 47.6055 51.979 47.6058 48.7114C47.606 47.9764 47.7788 47.7995 48.4888 47.7982C49.042 47.7971 49.5952 47.798 50.1719 47.798V38.9847H49.6669C48.023 38.9847 46.3791 38.9843 44.7352 38.9836C44.5821 38.9891 44.4289 38.9804 44.2774 38.9576C44.1366 38.9415 44.007 38.8713 43.9144 38.761C43.8219 38.6508 43.7732 38.5086 43.7781 38.363C43.7624 38.2107 43.8054 38.058 43.8979 37.9379C43.9904 37.8178 44.125 37.7399 44.2728 37.7208C44.3963 37.6991 44.5216 37.6907 44.6467 37.6958C46.611 37.6944 48.5753 37.6943 50.5397 37.6954C51.2683 37.6959 51.4496 37.8846 51.4498 38.6418C51.4508 41.5081 51.451 44.3744 51.4503 47.2407C51.4503 47.4094 51.4503 47.578 51.4503 47.7722H52.7927V47.317C52.7927 42.7739 52.7947 38.2308 52.7986 33.6877C52.804 33.5545 52.7811 33.4217 52.7314 33.2986C52.6817 33.1755 52.6064 33.065 52.5108 32.9749C50.2291 30.6404 47.9539 28.2991 45.6854 25.9509C45.587 25.8334 45.4627 25.7419 45.3229 25.6839C45.183 25.626 45.0317 25.6033 44.8816 25.6178C44.4947 25.6478 44.1038 25.6248 43.6521 25.6248C43.6521 26.0032 43.6521 26.3564 43.6521 26.7097C43.6521 27.5696 43.6641 28.4298 43.6457 29.2892C43.639 29.602 43.7023 29.7539 44.0303 29.86C45.5447 30.3501 46.4264 31.8694 46.2038 33.5285C46.0013 35.0376 44.6906 36.2384 43.1812 36.2979C42.4012 36.34 41.633 36.0882 41.0206 35.5896C40.4081 35.0911 39.9932 34.3799 39.8538 33.5893C39.7143 32.7988 39.8598 31.983 40.2629 31.2948C40.666 30.6066 41.2992 30.0932 42.0438 29.8507C42.3254 29.7574 42.4081 29.6362 42.4044 29.3441C42.3894 28.1275 42.3981 26.9106 42.3981 25.6311C41.8311 25.6311 41.2942 25.6219 40.7582 25.6401C40.6686 25.6432 40.5733 25.7557 40.4968 25.8343C38.1503 28.2441 35.8079 30.6582 33.4696 33.0763C33.3354 33.2479 33.2642 33.4627 33.2685 33.6829C33.2573 38.2117 33.2545 42.7404 33.2599 47.2692C33.2599 47.9585 33.0877 48.2383 32.6584 48.2502C32.2109 48.2626 32.0062 47.9552 32.0062 47.267C32.006 42.6236 32.0038 37.9802 31.9996 33.3368C31.992 33.1456 32.0247 32.955 32.0954 32.778C32.1661 32.601 32.2731 32.4418 32.4092 32.3113C34.8805 29.7868 37.3439 27.2541 39.7994 24.7132C39.9158 24.5816 40.0595 24.4788 40.2199 24.4123C40.3802 24.3458 40.5531 24.3173 40.7257 24.3291C41.2649 24.3516 41.8057 24.3348 42.3981 24.3348C42.3981 24.1261 42.3981 23.9592 42.3981 23.7923C42.3985 22.4451 42.3937 21.0979 42.4021 19.7508C42.4051 19.2783 42.6556 18.9976 43.0296 19C43.4028 19.0024 43.6327 19.2821 43.6505 19.7589C43.6548 19.8734 43.652 19.9882 43.652 20.1028C43.6521 21.3497 43.6521 22.5965 43.6521 23.8434V24.3349C44.2896 24.3349 44.8754 24.307 45.4564 24.3483C45.7143 24.3631 45.9602 24.4647 46.1564 24.6375C48.701 27.2285 51.2318 29.8338 53.7486 32.4535C53.9346 32.6476 54.0334 33.0133 54.0344 33.2997C54.052 38.3873 54.0481 43.475 54.0488 48.5627C54.0488 48.7483 54.0488 48.9338 54.0488 49.1367C54.8869 49.3405 55.7857 48.9324 56.638 49.4779C57.5574 48.7009 58.5475 47.9345 59.4554 47.0763C60.2876 46.2897 60.4963 45.2163 60.4682 44.0863C60.4421 43.0345 60.8391 42.3907 61.6723 42.115C62.7756 41.7498 63.7571 42.2934 64.0804 43.4411C64.6003 45.2872 64.7882 47.1465 64.3096 49.0355C64.3041 49.0873 64.3037 49.1394 64.3084 49.1912C65.1615 49.1912 66.0094 49.1912 66.8573 49.1912C67.735 49.1912 68.6127 49.1882 69.4903 49.1922C70.4396 49.1966 71.1233 49.632 71.4332 50.4664C71.7577 51.3402 71.6092 52.1252 70.9384 52.7835C70.9056 52.8206 70.8748 52.8597 70.8464 52.9004C71.3581 53.9205 71.2304 54.8479 70.3965 55.6737C70.8273 56.7247 70.7105 57.6911 69.8646 58.5448C70.1183 59.0357 70.1764 59.6089 70.0265 60.1431C69.7607 61.0561 69.0501 61.6621 68.1349 61.6804C67.0765 61.7015 66.0174 61.6924 64.9587 61.6826C64.5083 61.6784 64.2641 61.4467 64.2541 61.0638C64.2436 60.6634 64.4972 60.4075 64.9625 60.402C65.9794 60.3898 66.9967 60.4095 68.0132 60.3872C68.2331 60.3824 68.5473 60.3218 68.6458 60.1692C68.7976 59.9274 68.85 59.6335 68.7915 59.3519C68.734 59.1576 68.433 58.9877 68.207 58.9124C67.9792 58.8366 67.7094 58.9056 67.4602 58.8845C67.2978 58.8777 67.1443 58.8064 67.0322 58.6854C66.92 58.5644 66.858 58.4034 66.8591 58.2362C66.8611 58.0693 66.9269 57.9099 67.0422 57.7924C67.1576 57.675 67.3132 57.609 67.4755 57.6087C67.8648 57.5907 68.2556 57.6086 68.6455 57.5993C69.1327 57.5877 69.43 57.2957 69.4307 56.8437C69.4314 56.4094 69.1513 56.1172 68.6867 56.0866C68.4508 56.0711 68.2129 56.0888 67.9765 56.0779C67.5673 56.0591 67.3279 55.8249 67.3229 55.4531C67.318 55.0886 67.5586 54.8228 67.9572 54.7994C68.3322 54.7775 68.7094 54.7978 69.0854 54.7896C69.5987 54.7783 69.8665 54.5227 69.871 54.0532C69.8756 53.5634 69.6016 53.3051 69.0631 53.2983C68.7149 53.294 68.3662 53.3073 68.0183 53.2939C67.5723 53.2766 67.3056 53.0053 67.3234 52.6116C67.3405 52.2323 67.5937 52.0141 68.0392 52.009C68.5407 52.0033 69.0425 52.0164 69.5437 52.0039C70.0412 51.9915 70.3349 51.7076 70.3445 51.259C70.3544 50.795 70.0479 50.4861 69.5328 50.4842C67.5824 50.4773 65.632 50.4822 63.6816 50.4807C62.8535 50.48 62.6293 50.157 62.9037 49.3481C63.5409 47.4699 63.4067 45.6016 62.8526 43.7351C62.7522 43.3969 62.5409 43.2215 62.2025 43.275C61.8633 43.3286 61.7321 43.5651 61.7119 43.9158C61.6749 44.5568 61.6627 45.2087 61.5337 45.8327C61.2985 46.9714 60.6209 47.8441 59.7603 48.5688C58.8448 49.3397 57.9232 50.1031 56.9957 50.8588C56.722 51.083 56.6359 51.3496 56.6385 51.7123C56.655 54.0769 56.647 56.4417 56.647 58.8064C56.647 58.9604 56.647 59.1144 56.647 59.2931C57.5348 59.382 58.384 59.7111 59.1082 60.2469C59.283 60.3732 59.5584 60.3854 59.7887 60.3907C60.5546 60.4083 61.3215 60.3825 62.0871 60.4054C62.6419 60.422 62.9572 60.9679 62.6486 61.3783C62.5071 61.5474 62.3067 61.6526 62.0905 61.6713C61.2139 61.6996 60.3309 61.7347 59.4602 61.6537C59.014 61.6122 58.5634 61.3789 58.1608 61.1475C57.6933 60.8789 57.231 60.6534 56.6669 60.6207C56.6592 60.7389 56.6519 60.8361 56.6467 60.9335C56.6185 61.4643 56.4133 61.676 55.8869 61.6842C55.2903 61.6935 54.6935 61.6864 54.0647 61.6864C54.033 62.1944 54.1405 62.722 53.6438 63.0255H32.4112ZM52.7749 49.1245H48.881V61.707H52.7749V49.1245ZM54.0855 50.4906V60.3657H55.3559V50.4906H54.0855ZM42.4 31.1252C41.4278 31.4441 40.9069 32.4138 41.1051 33.4306C41.3016 34.4386 42.2348 35.111 43.2814 34.9986C44.2379 34.896 44.9941 34.0104 44.9937 32.9933C44.9934 32.1123 44.3666 31.244 43.65 31.1697C43.65 31.7576 43.6614 32.3431 43.6465 32.9279C43.6345 33.3991 43.3775 33.6531 42.9819 33.6277C42.6278 33.605 42.4134 33.3623 42.4033 32.9238C42.3898 32.339 42.4 31.7537 42.4 31.1252Z" fill="#549FDA"/>
<path d="M51.4498 51.7044C51.4418 51.8771 51.369 52.0399 51.2466 52.1584C51.1242 52.2769 50.9619 52.3419 50.7938 52.3396C50.6331 52.33 50.4823 52.2567 50.3729 52.1352C50.2636 52.0137 50.2042 51.8534 50.2071 51.6879C50.2063 51.6023 50.2226 51.5175 50.2552 51.4387C50.2878 51.3599 50.3359 51.289 50.3964 51.2303C50.457 51.1716 50.5287 51.1264 50.607 51.0977C50.6854 51.0689 50.7687 51.0571 50.8517 51.0631C51.0126 51.0699 51.1647 51.1405 51.2761 51.26C51.3876 51.3795 51.4498 51.5387 51.4498 51.7044Z" fill="#549FDA"/>
<path d="M52.7998 61.7V48.2V47.7H46.7998V61.7H52.7998Z" fill="url(#paint2_linear_115_696)"/>
<path d="M50.7998 47.6V59.7H45.7998" stroke="#549FDA" stroke-width="1.3"/>
</g>
<path d="M46 50.9353C46 51.6183 45.7867 52.2065 45.3602 52.6998C44.9336 53.1931 44.3795 53.4978 43.6978 53.6138V54.7857C43.6978 54.8482 43.6785 54.8996 43.64 54.9397C43.6014 54.9799 43.5521 55 43.492 55H42.6239C42.5682 55 42.5199 54.9788 42.4792 54.9364C42.4385 54.894 42.4181 54.8438 42.4181 54.7857V53.6138C42.1352 53.5737 41.8619 53.5045 41.5982 53.4062C41.3346 53.308 41.117 53.2087 40.9455 53.1083C40.774 53.0078 40.6154 52.9007 40.4696 52.7868C40.3239 52.673 40.2242 52.5893 40.1706 52.5357C40.117 52.4821 40.0795 52.442 40.0581 52.4152C39.9852 52.3214 39.9809 52.2299 40.0452 52.1406L40.7076 51.2366C40.7376 51.192 40.7869 51.1652 40.8555 51.1562C40.9198 51.1473 40.9712 51.1674 41.0098 51.2165L41.0227 51.2299C41.5071 51.6719 42.028 51.9509 42.5853 52.067C42.7439 52.1027 42.9026 52.1205 43.0612 52.1205C43.4084 52.1205 43.7139 52.0246 43.9776 51.8326C44.2412 51.6406 44.373 51.3683 44.373 51.0156C44.373 50.8906 44.3409 50.7723 44.2766 50.6607C44.2123 50.5491 44.1405 50.4554 44.0612 50.3795C43.9818 50.3036 43.8564 50.2199 43.685 50.1283C43.5135 50.0368 43.372 49.9654 43.2605 49.9141C43.1491 49.8627 42.9776 49.7902 42.7461 49.6964C42.5789 49.625 42.4471 49.5692 42.3506 49.529C42.2541 49.4888 42.1223 49.4297 41.9551 49.3516C41.7879 49.2734 41.654 49.2042 41.5532 49.144C41.4525 49.0837 41.3313 49.0045 41.1899 48.9062C41.0484 48.808 40.9337 48.7132 40.8458 48.6217C40.7579 48.5301 40.6647 48.4208 40.5661 48.2935C40.4675 48.1663 40.3914 48.0368 40.3378 47.9051C40.2842 47.7734 40.2392 47.625 40.2028 47.4598C40.1663 47.2946 40.1481 47.1205 40.1481 46.9375C40.1481 46.3214 40.3582 45.7812 40.7783 45.317C41.1984 44.8527 41.7451 44.5536 42.4181 44.4196V43.2143C42.4181 43.1562 42.4385 43.106 42.4792 43.0636C42.5199 43.0212 42.5682 43 42.6239 43H43.492C43.5521 43 43.6014 43.0201 43.64 43.0603C43.6785 43.1004 43.6978 43.1518 43.6978 43.2143V44.3929C43.9422 44.4196 44.1791 44.471 44.4084 44.5469C44.6378 44.6228 44.8243 44.6975 44.9679 44.7712C45.1115 44.8449 45.2476 44.9286 45.3762 45.0223C45.5048 45.1161 45.5884 45.1808 45.627 45.2165C45.6656 45.2522 45.6978 45.2835 45.7235 45.3103C45.7964 45.3906 45.8071 45.4754 45.7556 45.5647L45.2348 46.5424C45.2005 46.6094 45.1512 46.6451 45.0868 46.6496C45.0268 46.6629 44.969 46.6473 44.9132 46.6027C44.9004 46.5893 44.8693 46.5625 44.82 46.5223C44.7707 46.4821 44.6871 46.423 44.5692 46.3449C44.4513 46.2667 44.3259 46.1953 44.193 46.1306C44.0601 46.0658 43.9004 46.0078 43.7139 45.9565C43.5274 45.9051 43.3441 45.8795 43.1641 45.8795C42.7568 45.8795 42.4246 45.9754 42.1673 46.1674C41.9101 46.3594 41.7815 46.6071 41.7815 46.9107C41.7815 47.0268 41.7997 47.1339 41.8362 47.2321C41.8726 47.3304 41.9358 47.423 42.0259 47.51C42.1159 47.5971 42.2006 47.6708 42.2799 47.731C42.3592 47.7913 42.4792 47.8605 42.64 47.9386C42.8008 48.0167 42.9304 48.077 43.029 48.1194C43.1276 48.1618 43.2777 48.2232 43.4792 48.3036C43.7064 48.3929 43.88 48.4632 44.0001 48.5145C44.1201 48.5658 44.283 48.644 44.4888 48.7489C44.6946 48.8538 44.8564 48.9487 44.9743 49.0335C45.0922 49.1183 45.2251 49.2299 45.373 49.3683C45.5209 49.5067 45.6345 49.6484 45.7138 49.7935C45.7931 49.9386 45.8607 50.1094 45.9164 50.3058C45.9721 50.5022 46 50.7121 46 50.9353Z" fill="#549FDA"/>
<defs>
<linearGradient id="paint0_linear_115_696" x1="42.8907" y1="-12.3458" x2="43" y2="85" gradientUnits="userSpaceOnUse">
<stop stop-color="#96BFDF" stop-opacity="0.75"/>
<stop offset="1" stop-color="#CFFDFF"/>
</linearGradient>
<linearGradient id="paint1_linear_115_696" x1="42.9139" y1="-0.731362" x2="43.0861" y2="67.4743" gradientUnits="userSpaceOnUse">
<stop stop-color="#549FDA" stop-opacity="0.42"/>
<stop offset="1" stop-color="#B2F8FB" stop-opacity="0.62"/>
</linearGradient>
<linearGradient id="paint2_linear_115_696" x1="49.7998" y1="47.7" x2="49.7998" y2="61.7" gradientUnits="userSpaceOnUse">
<stop stop-color="#ECF8FB"/>
<stop offset="1" stop-color="#EEFBFD"/>
</linearGradient>
<clipPath id="clip0_115_696">
<rect width="22" height="44" fill="white" transform="translate(32 19)"/>
</clipPath>
</defs>
</svg>
