<svg width="26" height="26" viewBox="0 0 26 26" fill="none" xmlns="http://www.w3.org/2000/svg">
<g clip-path="url(#clip0_402_15888)">
<path fill-rule="evenodd" clip-rule="evenodd" d="M0 0H26V26H0V0Z" fill="#229E45"/>
<path fill-rule="evenodd" clip-rule="evenodd" d="M13.0575 23.6167L25.3059 13.0162L12.9844 2.38333L0.695312 13.0379L13.0575 23.6167Z" fill="#F8E509"/>
<path fill-rule="evenodd" clip-rule="evenodd" d="M18.3942 13C18.3942 16.8079 16.0745 19.8954 13.2105 19.8954C12.187 19.8933 11.187 19.4866 10.3368 18.7268C9.4867 17.967 8.82459 16.8881 8.43423 15.6267C8.04386 14.3652 7.94276 12.9777 8.14371 11.6397C8.34466 10.3016 8.83863 9.07303 9.56319 8.10923C10.2877 7.14543 11.2103 6.48969 12.2144 6.22491C13.2184 5.96013 14.2587 6.09819 15.2039 6.62165C16.1491 7.1451 16.9566 8.03045 17.5245 9.16576C18.0924 10.3011 18.395 11.6354 18.3942 13Z" fill="#2B49A3"/>
<path fill-rule="evenodd" clip-rule="evenodd" d="M11.5092 17.1329L11.3467 17.0083L11.1842 17.1167L11.2208 16.8729L11.0908 16.6888L11.2736 16.6617L11.363 16.445L11.4402 16.6725L11.6189 16.7158L11.4848 16.8783M14.9786 18.3029L14.8202 18.1783L14.6577 18.2867L14.6902 18.0429L14.5642 17.8642L14.747 17.8371L14.8323 17.615L14.9136 17.8425L15.0923 17.8858L14.9542 18.0537M13.4836 16.4287L13.3455 16.3204L13.2033 16.4179L13.2358 16.2067L13.122 16.0496L13.2845 16.0279L13.3577 15.8329L13.4227 16.0333L13.5811 16.0713L13.4592 16.2175M16.9936 15.7571L16.8555 15.6487L16.7133 15.7463L16.7458 15.535L16.6361 15.3833L16.7945 15.3617L16.8677 15.1721L16.9327 15.3671L17.087 15.405L16.9692 15.5458M13.4227 14.3542L13.2602 14.235L13.0977 14.3433L13.1302 14.0942L13.0042 13.9154L13.187 13.8883L13.2723 13.6663L13.3536 13.8938L13.5323 13.9371L13.3942 14.1104M9.14484 12.2146L8.98234 12.0954L8.81984 12.2038L8.86047 11.9546L8.72641 11.7758L8.91328 11.7487L8.99453 11.5267L9.07578 11.7542L9.25453 11.7975L9.12047 11.9654M9.66078 15.0638L9.49828 14.9392L9.33578 15.0475L9.37234 14.8037L9.24234 14.625L9.42516 14.5925L9.51047 14.3758L9.59172 14.6033L9.77047 14.6467L9.63641 14.8146M14.9989 11.1692L14.8527 11.0608L14.7064 11.1583L14.7389 10.9417L14.6252 10.7792L14.7877 10.7521L14.8648 10.5571L14.9339 10.7629L15.0964 10.8008L14.9745 10.9471M14.7023 13.0217L14.5927 12.935L14.4748 13.0108L14.4992 12.8375L14.4098 12.7129L14.5398 12.6913L14.6008 12.5396L14.6536 12.7021L14.7755 12.7292L14.6861 12.8483M8.90922 15.5783L8.79953 15.4971L8.68984 15.5675L8.71422 15.405L8.62891 15.2858L8.75078 15.2642L8.80766 15.1179L8.86047 15.2696L8.98234 15.3021L8.88891 15.4104M17.022 16.2392L16.9327 16.1796L16.8433 16.2338L16.8636 16.1092L16.7945 16.0225L16.892 16.0063L16.9408 15.8979L16.9814 16.0063L17.083 16.0333L17.0058 16.1146" fill="#FFFFEF"/>
<path fill-rule="evenodd" clip-rule="evenodd" d="M8.90922 15.5783L8.79953 15.4971L8.68984 15.5675L8.71422 15.405L8.62891 15.2858L8.75078 15.2642L8.80766 15.1179L8.86047 15.2696L8.98234 15.3021L8.88891 15.4104" fill="#FFFFEF"/>
<path fill-rule="evenodd" clip-rule="evenodd" d="M8.90922 15.5783L8.79953 15.4971L8.68984 15.5675L8.71422 15.405L8.62891 15.2858L8.75078 15.2642L8.80766 15.1179L8.86047 15.2696L8.98234 15.3021L8.88891 15.4104M10.6073 15.5729L10.5017 15.4971L10.392 15.5675L10.4164 15.405L10.3311 15.2858L10.453 15.2642L10.5098 15.1179L10.5627 15.2696L10.6845 15.2967L10.5911 15.4104M10.3961 16.3313L10.2905 16.25L10.1808 16.3258L10.2052 16.1633L10.1198 16.0388L10.2417 16.0171L10.2986 15.8708L10.3514 16.0225L10.4733 16.055L10.3798 16.1633M13.9305 14.9608L13.8248 14.8742L13.7111 14.95L13.7355 14.7875L13.6542 14.6629L13.7761 14.6467L13.833 14.5004L13.8817 14.6521L14.0036 14.6792L13.9142 14.7929M12.8945 14.9554L12.7848 14.8742L12.6752 14.95L12.6995 14.7875L12.6183 14.6629L12.7402 14.6467L12.797 14.495L12.8458 14.6521L12.9677 14.6792L12.8783 14.7929M10.0833 14.4787L10.0142 14.4246L9.94516 14.4679L9.96141 14.365L9.90859 14.2892L9.98578 14.2783L10.0183 14.1862L10.0508 14.2838L10.128 14.3L10.0711 14.3704M16.888 16.8296L16.7823 16.7483L16.6727 16.8242L16.697 16.6617L16.6117 16.5371L16.7336 16.5154L16.7905 16.3692L16.8433 16.5208L16.9652 16.5533L16.8717 16.6617M16.0267 16.9867L15.9373 16.9108L15.8439 16.9758L15.8642 16.835L15.7952 16.7375L15.8967 16.7213L15.9455 16.5967L15.9861 16.7267L16.0877 16.7483L16.0105 16.8458M16.433 16.9704L16.3517 16.9054L16.2664 16.9596L16.2827 16.835L16.2177 16.7429L16.3111 16.7267L16.3558 16.6183L16.3964 16.7267L16.4898 16.7537L16.4208 16.8404M17.603 15.6054L17.5217 15.5513L17.4405 15.6054L17.4608 15.4808L17.3958 15.3888L17.4892 15.3725L17.5298 15.2642L17.5705 15.3779L17.6558 15.3996L17.5908 15.4862M16.0145 17.7504L15.913 17.6746L15.8033 17.7396L15.8277 17.5879L15.7464 17.4796L15.8683 17.4633L15.9211 17.3279L15.9698 17.4688L16.0917 17.4958L15.9983 17.5987M16.0227 18.3679L15.9252 18.2921L15.8277 18.3625L15.852 18.2108L15.7748 18.1025L15.8845 18.0808L15.9333 17.9454L15.978 18.0862L16.0877 18.1133L16.0064 18.2217M15.2345 16.9704L15.1573 16.9054L15.0761 16.9596L15.0923 16.8404L15.0314 16.7483L15.1208 16.7375L15.1614 16.6292L15.202 16.7375L15.2914 16.7592L15.2264 16.8458M14.5033 16.9704L14.422 16.9054L14.3408 16.9596L14.3611 16.8404L14.2961 16.7483L14.3895 16.7375L14.4302 16.6292L14.4708 16.7375L14.5561 16.7592L14.4911 16.8458M13.2561 15.5133L13.1748 15.4537L13.0936 15.5079L13.1139 15.3833L13.0489 15.2967L13.1383 15.2804L13.1789 15.1721L13.2195 15.2804L13.3089 15.3075L13.2439 15.3888M13.3942 18.4763L13.3292 18.4275L13.2561 18.4763L13.2723 18.3679L13.2195 18.2921L13.2967 18.2812L13.3333 18.1892L13.3658 18.2867L13.443 18.3029L13.3861 18.3733M11.5092 13.6825L11.3467 13.5579L11.1842 13.6663L11.2208 13.4225L11.0908 13.2438L11.2736 13.2112L11.363 12.9946L11.4402 13.2221L11.6189 13.2654L11.4848 13.4333" fill="#FFFFEF"/>
<path fill-rule="evenodd" clip-rule="evenodd" d="M18.053 15.4808C18.1536 15.1326 18.2324 14.7739 18.2886 14.4083C15.5342 11.1854 12.467 9.53333 8.59141 9.87458C8.45084 10.2372 8.33526 10.6161 8.24609 11.0067C12.8367 10.4217 16.2086 13.13 18.053 15.4808Z" fill="white"/>
<path d="M16.8196 13.6717L16.913 13.7421C16.8991 13.7789 16.8948 13.8208 16.9009 13.8612C16.9104 13.9004 16.9307 13.9334 16.9577 13.9533C16.9862 13.9804 17.0146 13.9967 17.039 13.9912C17.0634 13.9912 17.0796 13.975 17.0918 13.9533C17.0989 13.9389 17.1018 13.9216 17.0999 13.9046C17.0966 13.8846 17.0896 13.866 17.0796 13.8504C17.0715 13.8342 17.0512 13.7962 17.0187 13.7529C16.9853 13.7069 16.9602 13.6513 16.9455 13.5904C16.9354 13.5443 16.938 13.4949 16.953 13.4511C16.9679 13.4074 16.9941 13.3722 17.0268 13.3521C17.0563 13.3356 17.089 13.3319 17.1202 13.3412C17.1584 13.353 17.1944 13.3751 17.2259 13.4062C17.2827 13.4604 17.3193 13.5146 17.3315 13.5796C17.3371 13.61 17.3378 13.6416 17.3336 13.6724C17.3294 13.7032 17.3204 13.7325 17.3071 13.7583L17.2096 13.6771C17.2218 13.6446 17.2259 13.6121 17.2177 13.585C17.2137 13.5579 17.1974 13.5308 17.169 13.5092C17.1481 13.4868 17.1226 13.4735 17.0959 13.4712C17.0885 13.4709 17.0812 13.4733 17.0748 13.478C17.0683 13.4828 17.063 13.4898 17.0593 13.4983C17.0512 13.5146 17.0512 13.5308 17.0552 13.5525C17.0593 13.5742 17.0796 13.6175 17.1202 13.6717C17.1609 13.7258 17.1852 13.7746 17.2015 13.8071C17.216 13.8426 17.2226 13.8829 17.2204 13.9232C17.2182 13.9635 17.2074 14.0022 17.1893 14.0346C17.1703 14.0714 17.1434 14.0997 17.1121 14.1158C17.0816 14.1345 17.0476 14.1402 17.0146 14.1321C16.978 14.1212 16.9415 14.0996 16.9009 14.0617C16.8399 14.0075 16.8034 13.9479 16.7912 13.8829C16.7779 13.8092 16.7867 13.7315 16.8155 13.6662L16.8196 13.6717ZM16.3484 13.26L16.4499 13.3304C16.4373 13.3678 16.4345 13.4098 16.4418 13.4496C16.4522 13.4868 16.4724 13.5176 16.4987 13.5362C16.5312 13.5633 16.5555 13.5742 16.5799 13.5687C16.6043 13.5687 16.6205 13.5525 16.6327 13.5254C16.6389 13.5125 16.6417 13.4973 16.6409 13.4821C16.6409 13.4658 16.6327 13.4442 16.6205 13.4279C16.5997 13.3944 16.5781 13.3619 16.5555 13.3304C16.5109 13.2708 16.4824 13.2221 16.4743 13.1787C16.4677 13.1509 16.4657 13.1214 16.4685 13.0924C16.4713 13.0634 16.4788 13.0355 16.4905 13.0108C16.506 12.9774 16.5286 12.951 16.5555 12.935C16.5835 12.9178 16.6146 12.9122 16.6449 12.9187C16.6825 12.9272 16.7184 12.9456 16.7505 12.9729C16.8115 13.0271 16.848 13.0812 16.8602 13.1408C16.8676 13.1713 16.87 13.2035 16.8672 13.2353C16.8644 13.2671 16.8565 13.2977 16.844 13.325L16.7424 13.2492C16.7546 13.2112 16.7587 13.1842 16.7505 13.1571C16.7424 13.13 16.7262 13.1029 16.6977 13.0812C16.6753 13.0597 16.6482 13.0484 16.6205 13.0487C16.6139 13.0493 16.6074 13.0521 16.6018 13.0569C16.5961 13.0616 16.5914 13.0681 16.588 13.0758C16.5799 13.0921 16.5799 13.1083 16.584 13.13C16.588 13.1517 16.6124 13.195 16.653 13.2492C16.6937 13.3033 16.7221 13.3467 16.7343 13.3792C16.7506 13.4131 16.7592 13.4526 16.7592 13.4929C16.7592 13.5332 16.7506 13.5727 16.7343 13.6067C16.7168 13.6445 16.6914 13.6746 16.6612 13.6933C16.6307 13.712 16.5967 13.7177 16.5637 13.7096C16.5219 13.7002 16.4818 13.6799 16.4459 13.65C16.3933 13.6127 16.3529 13.551 16.3321 13.4767C16.3164 13.4043 16.3222 13.3267 16.3484 13.26ZM15.7715 13.0542L16.068 12.4042L16.4255 12.7021L16.3768 12.8104L16.1168 12.5937L16.0518 12.74L16.2955 12.9404L16.2427 13.0487L15.999 12.8483L15.9177 13.0271L16.1899 13.2437L16.1412 13.3521L15.7755 13.0542H15.7715ZM14.9305 12.1333L14.9752 12.025L15.1946 12.1712L15.093 12.4421C15.0605 12.4529 15.0199 12.4583 14.9712 12.4529C14.9244 12.446 14.8789 12.4277 14.8371 12.3987C14.788 12.3668 14.7459 12.3183 14.7152 12.2579C14.6873 12.2019 14.6731 12.1356 14.6746 12.0683C14.6767 11.9983 14.6906 11.9298 14.7152 11.8679C14.7396 11.8028 14.776 11.7469 14.8209 11.7054C14.8638 11.6658 14.9149 11.645 14.9671 11.6458C15.0077 11.6458 15.0484 11.6621 15.0971 11.7C15.1621 11.7379 15.2027 11.7921 15.223 11.8517C15.2442 11.9108 15.2485 11.9782 15.2352 12.0412L15.1255 11.9979C15.1323 11.9616 15.1294 11.9234 15.1174 11.8896C15.1052 11.8571 15.0849 11.8354 15.0524 11.8137C15.0335 11.7993 15.0125 11.7904 14.9908 11.7876C14.9691 11.7848 14.9471 11.7882 14.9265 11.7975C14.8859 11.8137 14.8493 11.8625 14.8209 11.9383C14.7924 12.0142 14.7802 12.0846 14.7924 12.1442C14.798 12.1724 14.8082 12.1987 14.8223 12.2212C14.8363 12.2436 14.8538 12.2617 14.8737 12.2742C14.894 12.2904 14.9184 12.3012 14.9427 12.3012C14.967 12.3061 14.9916 12.3061 15.0159 12.3012L15.0484 12.2146L14.9305 12.1333ZM11.2662 10.9254L11.3474 10.1671L11.518 10.205L11.5627 10.7358L11.7212 10.2483L11.8918 10.2808L11.8105 11.0283L11.7009 11.0067L11.7699 10.4162L11.5912 10.985L11.4815 10.9633L11.4368 10.3512L11.3718 10.9471L11.2662 10.9254ZM10.6934 10.8333L10.7462 10.075L11.1646 10.1292L11.1565 10.2592L10.8518 10.2212L10.8396 10.3837L11.124 10.4217L11.1118 10.5517L10.8274 10.5137L10.8152 10.7196L11.1321 10.7575L11.124 10.8875L10.6934 10.8333Z" fill="#309E3A"/>
<path d="M8.79589 10.3621C8.79589 10.2808 8.80808 10.2213 8.82433 10.1671C8.83857 10.1286 8.85783 10.0937 8.8812 10.0642C8.90204 10.0361 8.92691 10.014 8.95433 9.99917C8.99495 9.98292 9.03558 9.97208 9.0762 9.97208C9.16151 9.97208 9.22651 10.0154 9.27933 10.0804C9.30446 10.1218 9.32316 10.1695 9.33432 10.2207C9.34548 10.2718 9.34888 10.3254 9.34433 10.3783C9.34433 10.4975 9.31589 10.595 9.26308 10.6654C9.23594 10.6989 9.20383 10.7243 9.16884 10.7402C9.13385 10.7561 9.09676 10.762 9.05995 10.7575C9.02364 10.758 8.98763 10.7486 8.95411 10.73C8.92059 10.7114 8.89026 10.6839 8.86495 10.6492C8.8144 10.5694 8.78957 10.4662 8.79589 10.3621Z" fill="#309E3A"/>
<path d="M8.91406 10.3621C8.91406 10.4433 8.92625 10.5083 8.95469 10.5571C8.98312 10.6004 9.01969 10.6275 9.06844 10.6275C9.08953 10.6295 9.11068 10.6251 9.13036 10.6148C9.15004 10.6045 9.16774 10.5885 9.18219 10.5679C9.21063 10.5246 9.22281 10.4596 9.22688 10.3675C9.22688 10.2808 9.21875 10.2158 9.18625 10.1725C9.17302 10.1507 9.15631 10.133 9.13734 10.1208C9.11838 10.1087 9.09762 10.1023 9.07656 10.1021C9.05519 10.1012 9.03393 10.1065 9.01428 10.1177C8.99462 10.129 8.97706 10.1458 8.96281 10.1671C8.93031 10.2104 8.91812 10.2754 8.91406 10.3621Z" fill="#F7FFFF"/>
<path d="M9.46484 10.7521L9.47297 9.99375H9.71672C9.77766 9.99375 9.81828 10.0046 9.84672 10.0208C9.87516 10.0317 9.89547 10.0588 9.91172 10.0913C9.92797 10.1238 9.93609 10.1671 9.93609 10.2158C9.93641 10.2679 9.92189 10.3183 9.89547 10.3567C9.86544 10.3942 9.82679 10.4171 9.78578 10.4217L9.84672 10.4867C9.86297 10.5083 9.88328 10.5517 9.90766 10.6113L9.97672 10.7629H9.83859L9.75734 10.5896L9.70047 10.4813C9.69062 10.4663 9.67801 10.4551 9.66391 10.4488C9.64543 10.4416 9.62628 10.4379 9.60703 10.4379H9.58266V10.7521H9.46484Z" fill="#309E3A"/>
<path d="M9.58594 10.3187H9.66719C9.72406 10.3187 9.76063 10.3187 9.77281 10.3079C9.785 10.3079 9.79719 10.2917 9.80531 10.2808C9.81344 10.27 9.8175 10.2429 9.8175 10.2267C9.8175 10.1942 9.81344 10.1725 9.80125 10.1617C9.79313 10.1454 9.77688 10.1346 9.76063 10.1292H9.67938L9.58594 10.1237V10.3133V10.3187Z" fill="white"/>
<path d="M10.1163 10.0317L10.3276 10.0479C10.3723 10.0479 10.4088 10.0533 10.4332 10.0642C10.4648 10.0795 10.4929 10.1056 10.5145 10.14C10.5379 10.1779 10.5545 10.2223 10.5632 10.27C10.5754 10.3188 10.5795 10.3783 10.5754 10.4488C10.5754 10.504 10.5685 10.5589 10.5551 10.6113C10.5388 10.6654 10.5145 10.7088 10.486 10.7413C10.4623 10.7673 10.4346 10.7858 10.4048 10.7954C10.3804 10.8063 10.3438 10.8063 10.3032 10.8063L10.0879 10.79L10.1163 10.0317Z" fill="#309E3A"/>
<path d="M10.2254 10.1671L10.2051 10.6708H10.3595C10.3798 10.6708 10.396 10.66 10.4082 10.6438C10.4204 10.6275 10.4326 10.6058 10.4407 10.5733C10.4488 10.5408 10.457 10.4921 10.457 10.4325L10.4529 10.2971C10.4471 10.2685 10.4359 10.2424 10.4204 10.2213C10.4069 10.2032 10.3901 10.1901 10.3716 10.1833C10.3409 10.1742 10.3097 10.1688 10.2782 10.1671H10.2254Z" fill="white"/>
<path d="M12.9023 11.3858L13.0364 10.6492L13.2152 10.7033L13.3452 10.7575C13.3736 10.7792 13.398 10.8117 13.4102 10.8604C13.4264 10.9038 13.4264 10.9525 13.4183 11.0121C13.4102 11.0554 13.398 11.0933 13.3777 11.1204C13.3628 11.1442 13.3441 11.1633 13.3231 11.1764C13.302 11.1895 13.279 11.1963 13.2558 11.1963C13.2273 11.1963 13.1867 11.1854 13.1339 11.1692L13.0648 11.1421L13.0161 11.4238L12.9023 11.3858Z" fill="#309E3A"/>
<path d="M13.1223 10.8117L13.0898 11.0175L13.1508 11.0392C13.1914 11.05 13.2239 11.0608 13.2402 11.0554C13.256 11.0525 13.2707 11.0431 13.2823 11.0286C13.294 11.014 13.3019 10.995 13.3052 10.9742C13.3052 10.9471 13.3052 10.9254 13.297 10.9038C13.2881 10.8817 13.2738 10.8645 13.2564 10.855L13.1792 10.8279L13.1264 10.8117H13.1223Z" fill="white"/>
<path d="M13.4297 11.5971L13.6206 10.8821L13.8441 10.9904C13.905 11.0175 13.9416 11.0446 13.9659 11.0662C13.9862 11.0933 14.0025 11.1204 14.0066 11.1637C14.0106 11.2071 14.0147 11.245 14.0066 11.2883C13.9903 11.3425 13.9659 11.3804 13.9334 11.4075C13.9009 11.4292 13.8603 11.4346 13.8116 11.4237C13.8278 11.4508 13.8441 11.4779 13.8522 11.5104L13.8847 11.6567L13.9091 11.8246L13.7831 11.765L13.7425 11.57C13.7351 11.5259 13.7256 11.4825 13.7141 11.44C13.7087 11.4231 13.7003 11.4083 13.6897 11.3967C13.6816 11.3804 13.6653 11.3696 13.6369 11.3587L13.6166 11.3479L13.5353 11.6512L13.4297 11.5971Z" fill="#309E3A"/>
<path d="M13.6486 11.2342L13.7258 11.2721C13.7786 11.2992 13.8111 11.31 13.8273 11.31C13.8395 11.31 13.8517 11.31 13.8639 11.2937C13.8761 11.2829 13.8842 11.2667 13.8883 11.245C13.8964 11.2233 13.8964 11.2017 13.8883 11.18C13.8823 11.159 13.8707 11.1417 13.8558 11.1312L13.7745 11.0933L13.6933 11.0554L13.6445 11.2342H13.6486Z" fill="white"/>
<path d="M14.0969 11.57C14.1109 11.5066 14.1344 11.4476 14.166 11.3967C14.1866 11.364 14.2113 11.3365 14.2391 11.3154C14.2643 11.2964 14.2918 11.2836 14.3204 11.2775C14.361 11.2775 14.4016 11.2775 14.4463 11.2992C14.4826 11.3111 14.5166 11.3333 14.546 11.3641C14.5755 11.3949 14.5996 11.4337 14.6169 11.4779C14.6494 11.5646 14.6494 11.6675 14.6251 11.7867C14.605 11.889 14.5553 11.9767 14.4869 12.0304C14.426 12.0792 14.3529 12.0846 14.2757 12.0521C14.2395 12.0398 14.2056 12.0175 14.1762 11.9867C14.1468 11.956 14.1226 11.9173 14.1051 11.8733C14.0888 11.826 14.0797 11.7748 14.0783 11.7227C14.0769 11.6707 14.0833 11.6188 14.0969 11.57Z" fill="#309E3A"/>
<path d="M14.211 11.6133C14.1948 11.6946 14.1907 11.765 14.211 11.8192C14.2313 11.8733 14.2598 11.9058 14.3045 11.9275C14.3451 11.9437 14.3857 11.9383 14.4263 11.9058C14.467 11.8787 14.4913 11.8192 14.5116 11.7325C14.532 11.6512 14.532 11.5862 14.5116 11.5321C14.5036 11.5064 14.4915 11.4834 14.476 11.4646C14.4606 11.4459 14.4422 11.4319 14.4223 11.4237C14.4023 11.4145 14.381 11.4112 14.36 11.414C14.339 11.4168 14.3186 11.4257 14.3004 11.44C14.2598 11.4725 14.2313 11.5267 14.211 11.6133Z" fill="white"/>
<path d="M15.2051 12.6262L15.4651 11.9546L15.6804 12.1008C15.721 12.1268 15.758 12.1616 15.7901 12.2037C15.8104 12.2308 15.8226 12.2633 15.8226 12.3067C15.8226 12.35 15.8226 12.3879 15.8063 12.4258C15.7907 12.4745 15.7616 12.5133 15.7251 12.5342C15.6845 12.545 15.6438 12.545 15.5991 12.5233C15.6154 12.5558 15.6235 12.5883 15.6316 12.6154C15.6398 12.6479 15.6438 12.6967 15.6479 12.7671L15.656 12.9404L15.5341 12.8592L15.5179 12.6587C15.516 12.6133 15.5119 12.5681 15.5057 12.5233C15.5029 12.5031 15.4959 12.4843 15.4854 12.4692L15.4366 12.4312L15.4163 12.415L15.3066 12.6967L15.2051 12.6262Z" fill="#309E3A"/>
<path d="M15.457 12.3067L15.5342 12.3608C15.583 12.3933 15.6155 12.415 15.6277 12.415C15.6398 12.415 15.6561 12.415 15.6683 12.4042C15.6805 12.3987 15.6886 12.3825 15.6967 12.3608C15.7048 12.3392 15.7089 12.3175 15.7048 12.2958C15.6998 12.2743 15.6899 12.2553 15.6764 12.2417C15.6526 12.2222 15.6282 12.2041 15.6033 12.1875L15.522 12.1333L15.457 12.3067Z" fill="white"/>
<path d="M17.3103 14.0129C17.3366 13.9572 17.3712 13.9093 17.4119 13.8721C17.4392 13.8488 17.4695 13.8322 17.5013 13.8233C17.5308 13.8153 17.5612 13.8153 17.5906 13.8233C17.6313 13.8342 17.6678 13.8558 17.7044 13.8883C17.736 13.9146 17.7632 13.9493 17.7842 13.9904C17.8051 14.0314 17.8195 14.0778 17.8263 14.1267C17.8385 14.2187 17.8181 14.3217 17.7694 14.4246C17.7286 14.5141 17.6629 14.5784 17.5866 14.6033C17.5502 14.6138 17.5126 14.6139 17.4762 14.6036C17.4398 14.5934 17.4054 14.573 17.3753 14.5438C17.3437 14.5175 17.3165 14.4827 17.2956 14.4417C17.2746 14.4007 17.2602 14.3543 17.2535 14.3054C17.2413 14.2079 17.2616 14.1104 17.3103 14.0129Z" fill="#309E3A"/>
<path d="M17.4123 14.0996C17.3717 14.17 17.3595 14.235 17.3676 14.2946C17.3706 14.322 17.3779 14.3483 17.3892 14.3716C17.4004 14.395 17.4152 14.4149 17.4326 14.43C17.4732 14.4679 17.5139 14.4787 17.5545 14.4625C17.5951 14.4462 17.6357 14.4083 17.6723 14.3325C17.7089 14.2567 17.7251 14.1917 17.717 14.1375C17.7129 14.0833 17.6885 14.0346 17.652 13.9967C17.6154 13.9587 17.5707 13.9533 17.5301 13.9696C17.4895 13.9804 17.4489 14.0237 17.4082 14.0996H17.4123Z" fill="white"/>
<path d="M12.2598 11.0771L12.3532 10.5462L12.6457 10.6383L12.6335 10.725L12.4182 10.66L12.3979 10.7792L12.597 10.8387L12.5807 10.9308L12.3816 10.8658L12.3573 11.0121L12.5807 11.0825L12.5645 11.1692L12.2598 11.0771Z" fill="#309E3A"/>
</g>
<defs>
<clipPath id="clip0_402_15888">
<rect width="26" height="26" rx="13" fill="white"/>
</clipPath>
</defs>
</svg>
