<svg width="86" height="85" viewBox="0 0 86 85" fill="none" xmlns="http://www.w3.org/2000/svg">
<circle opacity="0.2" cx="43" cy="42.5" r="42.5" fill="url(#paint0_linear_147_1339)"/>
<circle opacity="0.12" cx="43" cy="42.5" r="33.5" fill="url(#paint1_linear_147_1339)"/>
<path d="M41.4789 27.3642L41.4791 27.3641C42.2123 26.9359 42.9709 26.8701 43.7527 27.2151C43.8617 27.0735 43.9694 26.9318 44.0767 26.7905C44.345 26.4374 44.6111 26.0873 44.8902 25.7498C45.8378 24.6041 46.8911 23.5616 48.1636 22.7599C48.8065 22.3549 49.4936 22.0295 50.2709 21.9258C50.931 21.8377 51.5177 21.9773 51.9685 22.3118C52.4191 22.6463 52.7248 23.1691 52.8355 23.8306C52.9943 24.7791 52.8286 25.6941 52.5612 26.5845C52.0927 28.1439 51.3313 29.5577 50.4339 30.8986C50.4032 30.9444 50.3723 30.9903 50.3385 31.0407C50.3521 31.0495 50.3656 31.058 50.3797 31.0662C50.5594 31.1712 50.7385 31.2764 50.9175 31.3816C51.3508 31.6363 51.7834 31.8904 52.2201 32.1379C53.1641 32.6727 53.6115 33.4955 53.6128 34.5625C53.6154 36.747 53.6157 38.9314 53.6137 41.1159L53.6136 54.8066C53.6136 56.0857 53.2694 57.264 52.4841 58.2884C51.4356 59.6559 50.0466 60.3862 48.304 60.387C47.4017 60.3874 46.4994 60.3883 45.5971 60.3892C42.8048 60.392 40.0122 60.3947 37.2198 60.3834C35.0524 60.3746 33.5053 59.3153 32.5051 57.4385C32.0718 56.6254 31.9012 55.7429 31.9011 54.8324C31.9 48.0844 31.8997 41.3364 31.9002 34.5884L41.4789 27.3642ZM41.4789 27.3642C38.7658 28.9574 36.0476 30.5418 33.3241 32.1172C32.8473 32.3931 32.4899 32.7361 32.2523 33.1503M41.4789 27.3642L32.2523 33.1503M32.2523 33.1503C32.0148 33.5645 31.9002 34.0441 31.9002 34.5884L32.2523 33.1503ZM47.248 30.9818L47.3236 31.0222L47.375 30.9536L48.1625 29.9026L48.2298 29.8129L48.1329 29.7563L45.2872 28.0944C45.2942 28.0843 45.3011 28.0742 45.3079 28.0642C45.3618 27.9858 45.4121 27.9126 45.4652 27.8401C46.3252 26.6686 47.2717 25.5846 48.4235 24.6992C48.9734 24.2764 49.5389 23.8985 50.197 23.6981C50.3347 23.6563 50.4771 23.6322 50.6209 23.6262L50.6168 23.5263L50.6207 23.6262C50.7501 23.6211 50.8464 23.6488 50.9192 23.7003C50.9925 23.7522 51.0522 23.8354 51.095 23.9597L51.1895 23.9271L51.095 23.9597C51.2106 24.2952 51.1886 24.6436 51.1363 25.0067C50.9768 26.1154 50.5656 27.1421 50.0515 28.1374L50.0514 28.1375C49.2281 29.7365 48.1664 31.201 46.9028 32.4808L46.9027 32.4808C46.2055 33.1873 45.4542 33.8214 44.575 34.2774C44.3234 34.4052 44.0599 34.5077 43.7882 34.5837L43.7875 34.5839C43.721 34.603 43.6469 34.6079 43.5628 34.6078C43.5349 34.6077 43.5043 34.6071 43.4724 34.6064C43.4152 34.6052 43.354 34.6038 43.298 34.6059C43.2387 34.6082 43.1821 34.6076 43.123 34.6069C43.0841 34.6065 43.0442 34.606 43.0016 34.6064C42.8995 34.6072 42.7919 34.6129 42.6863 34.6389C42.3193 34.729 42.1045 35.0531 42.0956 35.4125C42.0911 35.5982 42.1343 35.765 42.2285 35.9033C42.3227 36.0416 42.4631 36.1441 42.6408 36.2095C43.2482 36.433 43.851 36.3708 44.4396 36.2003L44.4118 36.1042L44.4396 36.2003C44.4622 36.1937 44.4848 36.187 44.5083 36.1799C44.4183 36.4964 44.2416 36.7827 43.9966 37.0057L43.9962 37.0061C43.7776 37.2072 43.5134 37.3521 43.2264 37.4281C42.9393 37.5042 42.638 37.5092 42.3486 37.4427C42.0592 37.3762 41.7903 37.2401 41.5653 37.0464C41.3402 36.8526 41.1658 36.6069 41.057 36.3306C40.9482 36.0543 40.9084 35.7556 40.9409 35.4604C40.9735 35.1652 41.0775 34.8824 41.2439 34.6365C41.4103 34.3905 41.6341 34.1888 41.896 34.0488C42.1579 33.9087 42.45 33.8346 42.7469 33.8328L42.7482 33.8328C43.0515 33.8272 43.3507 33.9027 43.615 34.0515C43.6666 34.0882 43.7284 34.1078 43.7919 34.1076C43.8565 34.1073 43.9194 34.0864 43.9713 34.0479C44.2169 33.883 44.4642 33.721 44.7181 33.5547C44.8141 33.4919 44.9111 33.4284 45.0092 33.3639L45.1156 33.294L45.0225 33.2072C44.6273 32.8386 44.147 32.5736 43.6245 32.4359L43.6243 32.4358C41.6882 31.9298 39.7955 33.1574 39.4576 35.1323C39.2185 36.5298 39.9322 37.9557 41.2022 38.6226C42.4714 39.289 44.0523 39.0694 45.0657 38.0796C45.7966 37.3658 46.1333 36.4921 46.098 35.4745C46.0985 35.4558 46.1029 35.4375 46.1108 35.4206C46.1183 35.4045 46.1288 35.3901 46.1418 35.3782C47.3606 34.5537 48.3853 33.5268 49.312 32.401L49.3122 32.4008C49.3502 32.3543 49.3885 32.3081 49.4272 32.2621C49.4663 32.2842 49.5066 32.307 49.547 32.3305C49.7489 32.4482 49.9508 32.5663 50.1527 32.6845C50.6049 32.9492 51.0575 33.2141 51.5121 33.4748C51.7137 33.5905 51.8581 33.7322 51.9527 33.8984C52.0474 34.0648 52.0954 34.2614 52.0954 34.4916C52.097 41.319 52.0967 48.1464 52.0943 54.9738C52.0937 56.717 50.9482 58.2725 49.3157 58.7388C48.9952 58.8285 48.6639 58.874 48.3311 58.8742H48.331C44.6151 58.8802 40.8992 58.882 37.1833 58.8795C35.4548 58.8783 33.9543 57.6595 33.5446 55.9032L33.5446 55.9031C33.466 55.5675 33.4256 55.224 33.4242 54.8792C33.4215 48.094 33.4194 41.3087 33.4176 34.5235C33.4176 34.2799 33.4672 34.0751 33.566 33.902C33.6648 33.729 33.8161 33.5814 34.0289 33.4578C36.7506 31.8781 39.4687 30.2921 42.1832 28.7C42.3852 28.5815 42.5725 28.5245 42.7554 28.5236C42.9381 28.5226 43.1248 28.5776 43.3259 28.6968C44.2386 29.2383 45.1562 29.7718 46.0734 30.3051C46.4164 30.5045 46.7593 30.7039 47.1019 30.9036L47.1522 30.8173L47.1019 30.9037C47.1304 30.9203 47.161 30.9363 47.1952 30.9541C47.2119 30.9628 47.2294 30.972 47.248 30.9818Z" fill="#549FDA" stroke="#549FDA" stroke-width="0.2"/>
<path d="M36.5227 45.3897L36.5227 45.3898C36.5186 45.8254 36.601 46.2575 36.7651 46.661C37.5543 48.6073 40.135 49.0194 41.4236 47.3739C42.2014 46.3806 42.3085 45.243 41.8605 44.095C41.4647 43.0808 40.675 42.5386 39.835 42.3892C38.9989 42.2405 38.1111 42.4805 37.5121 43.0291C36.8168 43.6659 36.533 44.4764 36.5227 45.3897ZM38.5394 46.5228C38.2701 46.1838 38.1806 45.7832 38.1754 45.3565C38.1823 44.9654 38.2507 44.6136 38.4516 44.3007C38.6545 43.9848 38.9527 43.8234 39.2524 43.8105C39.552 43.7975 39.8628 43.9325 40.0919 44.2297C40.3119 44.515 40.4342 44.9168 40.4478 45.329C40.4614 45.7411 40.3658 46.1511 40.1649 46.4523C39.9596 46.76 39.6654 46.9173 39.3703 46.9302C39.0753 46.9431 38.7694 46.8121 38.5394 46.5228Z" fill="#549FDA" stroke="#549FDA" stroke-width="0.2"/>
<path d="M48.9975 51.0343L48.9978 51.0242L48.996 51.0143C48.9888 50.9743 48.9817 50.9209 48.9733 50.8582C48.9492 50.6779 48.9148 50.4208 48.8399 50.1838C48.5043 49.1229 47.8013 48.4052 46.6691 48.2261C46.1071 48.1372 45.5831 48.1847 45.1198 48.3794C44.656 48.5743 44.2591 48.9143 43.9482 49.4005C43.2077 50.5582 43.1957 51.791 43.91 52.9668C44.7168 54.2948 46.5147 54.63 47.7704 53.7208C48.6302 53.0982 48.9701 52.2108 48.9975 51.0343ZM46.9231 49.9922C47.2277 50.3392 47.333 50.7604 47.3387 51.2049C47.3334 51.6166 47.2599 51.9777 47.0472 52.2951C46.8479 52.5925 46.5613 52.7466 46.2714 52.762C45.9815 52.7775 45.6794 52.6547 45.4485 52.3806C45.1986 52.0841 45.0668 51.6448 45.0642 51.1961C45.0616 50.7475 45.1881 50.3059 45.4347 50.0047C45.8238 49.5296 46.508 49.5194 46.9231 49.9922Z" fill="#549FDA" stroke="#549FDA" stroke-width="0.2"/>
<path d="M38.3348 53.0942L38.3347 53.0942L38.3327 53.0982C38.0832 53.6081 38.4268 54.1691 38.9879 54.171L38.9885 54.171C39.1209 54.1707 39.2512 54.1378 39.368 54.0753C39.4841 54.0132 39.5833 53.9236 39.657 53.8144C42.0365 50.5629 44.4162 47.3117 46.7961 44.0605L46.7155 44.0015L46.7961 44.0605C46.8259 44.0199 46.8565 43.9789 46.8875 43.9374C46.9797 43.8142 47.0749 43.6868 47.1579 43.5536C47.3831 43.1923 47.2926 42.7502 46.9502 42.5254L46.95 42.5252C46.7838 42.4169 46.5824 42.3766 46.3874 42.4126C46.1925 42.4486 46.0188 42.5581 45.9023 42.7185C43.4664 46.0458 41.031 49.3735 38.5962 52.7016C38.4978 52.8246 38.4104 52.956 38.3348 53.0942Z" fill="#549FDA" stroke="#549FDA" stroke-width="0.2"/>
<defs>
<linearGradient id="paint0_linear_147_1339" x1="42.8907" y1="-12.3458" x2="43" y2="85" gradientUnits="userSpaceOnUse">
<stop stop-color="#96BFDF" stop-opacity="0.75"/>
<stop offset="1" stop-color="#CFFDFF"/>
</linearGradient>
<linearGradient id="paint1_linear_147_1339" x1="42.9139" y1="-0.731362" x2="43.0861" y2="67.4743" gradientUnits="userSpaceOnUse">
<stop stop-color="#549FDA" stop-opacity="0.42"/>
<stop offset="1" stop-color="#B2F8FB" stop-opacity="0.62"/>
</linearGradient>
</defs>
</svg>
