<svg width="86" height="85" viewBox="0 0 86 85" fill="none" xmlns="http://www.w3.org/2000/svg">
<circle opacity="0.2" cx="43" cy="42.5" r="42.5" fill="url(#paint0_linear_152_1428)"/>
<circle opacity="0.12" cx="43" cy="42.5" r="33.5" fill="url(#paint1_linear_152_1428)"/>
<path d="M44.9677 59.8391C45.1413 59.8351 45.3132 59.8035 45.4768 59.7455L45.4781 59.745C46.1428 59.4987 46.8085 59.2545 47.4745 59.0102C49.3009 58.3402 51.1287 57.6696 52.9387 56.9554C54.8732 56.192 56.7777 55.3511 58.6785 54.5119L58.8773 54.4241C59.9243 53.9619 60.8233 53.2858 61.0976 52.0432L61.1 52.0326V52.0217V51.1779V51.1594L61.0934 51.1421C61.0828 51.1145 61.0725 51.0892 61.0627 51.065C61.0433 51.0175 61.0258 50.9745 61.0116 50.9274C60.719 49.9607 60.0723 49.3523 59.097 49.1138L59.0968 49.1137C58.4015 48.9449 57.6723 48.9785 56.9954 49.2105M44.9677 59.8391C44.8044 59.8441 44.6401 59.8406 44.4789 59.8371C44.4407 59.8363 44.4027 59.8355 44.365 59.8348C44.166 59.8312 43.9716 59.8307 43.7802 59.8487C42.6059 59.9589 41.5325 59.6644 40.4678 59.2274C38.4897 58.4157 36.4939 57.6436 34.4806 56.9254C34.2384 56.839 33.9702 56.8134 33.6788 56.8048C33.578 56.8019 33.473 56.801 33.3657 56.8001C33.204 56.7988 33.037 56.7974 32.8706 56.7888C32.8706 56.9064 32.8708 57.02 32.871 57.1308C32.8715 57.4374 32.8719 57.7217 32.87 58.0057C32.8678 58.3205 32.8157 58.5622 32.6584 58.721C32.5007 58.8802 32.2612 58.9323 31.9493 58.9325C29.8991 58.9341 27.8488 58.934 25.7986 58.9323H25.7985C25.4965 58.932 25.2622 58.8775 25.1074 58.7196C24.953 58.5621 24.9006 58.325 24.9005 58.0199C24.8998 53.65 24.8998 49.2801 24.9005 44.9103C24.9005 44.6054 24.9522 44.3688 25.1065 44.2119C25.2611 44.0546 25.4956 44.0011 25.7986 44.0008C27.8606 43.9985 29.9226 43.9986 31.9846 44.001L31.9846 44.001C32.2785 44.0014 32.5074 44.0554 32.6602 44.2095C32.8125 44.3632 32.8666 44.5938 32.8696 44.8893C32.8726 45.1767 32.8719 45.4646 32.8711 45.7635C32.8709 45.8676 32.8706 45.9731 32.8705 46.0803H33.1947C33.5142 46.0803 33.8339 46.0796 34.1537 46.0789C35.0524 46.0769 35.9522 46.0749 36.8513 46.0888L36.8516 46.0888C37.1318 46.094 37.4075 46.1605 37.6592 46.2838L37.6602 46.2843C38.4064 46.661 39.1501 47.0473 39.8932 47.4332C40.4801 47.7381 41.0667 48.0428 41.6538 48.3423C41.815 48.4234 41.9924 48.4671 42.1728 48.4702C43.1062 48.476 44.039 48.4744 44.9723 48.4729C45.5381 48.472 46.1041 48.471 46.6704 48.4717C47.6618 48.4729 48.4682 48.8382 48.9796 49.4566C49.4855 50.0681 49.6936 50.916 49.5193 51.8746C49.9057 51.737 50.2913 51.5998 50.6763 51.4627C51.6618 51.112 52.6436 50.7625 53.6249 50.412C53.9846 50.2835 54.3441 50.1526 54.7039 50.0217C55.4648 49.7447 56.2272 49.4673 56.9954 49.2105M44.9677 59.8391C44.9679 59.8391 44.9681 59.8391 44.9682 59.8391L44.9651 59.7391L44.9674 59.8391C44.9675 59.8391 44.9676 59.8391 44.9677 59.8391ZM56.9954 49.2105C56.9955 49.2105 56.9957 49.2104 56.9958 49.2104L57.0274 49.3051L56.995 49.2106C56.9952 49.2106 56.9953 49.2106 56.9954 49.2105ZM42.07 58.2914L42.0701 58.2912L42.0635 58.2886C41.5889 58.1063 41.1142 57.9242 40.6396 57.7422C38.8754 57.0656 37.1117 56.3893 35.3543 55.6966C34.7924 55.4752 34.2265 55.3254 33.6067 55.3726C33.4307 55.386 33.2565 55.3828 33.0684 55.3792C33.009 55.3781 32.9483 55.377 32.8857 55.3763V47.5306C32.8966 47.5295 32.9072 47.5284 32.9177 47.5274C32.9932 47.5198 33.0601 47.513 33.1303 47.5129C33.3357 47.5126 33.5411 47.5122 33.7465 47.5117C34.7243 47.5096 35.7013 47.5075 36.6783 47.5185C36.8594 47.5253 37.0368 47.5724 37.1974 47.6564L37.1982 47.6568C37.7629 47.9456 38.3269 48.239 38.8912 48.5327C39.6461 48.9255 40.4017 49.3186 41.1605 49.7015L41.1608 49.7017C41.4228 49.8326 41.7106 49.9036 42.0033 49.9095L42.0045 49.9095C42.9792 49.9176 43.955 49.9134 44.93 49.9092C45.5256 49.9066 46.1209 49.904 46.7156 49.9042C47.104 49.9044 47.4171 49.999 47.652 50.1702C47.8861 50.3409 48.0505 50.5935 48.1322 50.9249C48.3205 51.6896 47.7672 52.4771 46.997 52.4909C45.5829 52.5162 44.1688 52.5205 42.7539 52.5247C42.2007 52.5263 41.6474 52.528 41.0938 52.5309C40.9595 52.5316 40.8239 52.531 40.6878 52.5304C40.4363 52.5292 40.1829 52.5281 39.9315 52.5352C39.706 52.5416 39.5144 52.6114 39.3785 52.7391C39.2417 52.8677 39.1704 53.0466 39.1722 53.252C39.1739 53.4568 39.2493 53.6351 39.3885 53.7618C39.5269 53.8877 39.7199 53.9551 39.9449 53.9562C40.7671 53.9601 41.5894 53.9595 42.4114 53.959C42.7378 53.9587 43.0642 53.9585 43.3905 53.9586C43.7533 53.9586 44.1158 53.9569 44.4779 53.9551C45.3577 53.9509 46.2357 53.9466 47.1139 53.9685V53.9685L47.116 53.9685C47.7121 53.9711 48.3034 53.8607 48.8585 53.6431C51.2903 52.7689 53.7247 51.9019 56.1617 51.0421C56.7531 50.8334 57.3511 50.6414 57.9557 50.4834C58.1605 50.4299 58.4034 50.4578 58.6448 50.495C59.191 50.579 59.5427 50.9051 59.6319 51.341C59.737 51.8543 59.5482 52.3768 59.0943 52.6316C58.985 52.693 58.876 52.7546 58.767 52.8162C58.0293 53.2333 57.2943 53.6488 56.5189 53.9548C55.1603 54.4911 53.7922 55.0097 52.4233 55.5285C50.4222 56.2871 48.4195 57.0461 46.4433 57.8618C45.1242 58.4063 43.8091 58.3994 42.4345 58.3904C42.3082 58.3787 42.1849 58.3452 42.07 58.2914ZM26.3669 57.4612V45.4513H31.4124V57.4612H26.3669Z" fill="#549FDA" stroke="#549FDA" stroke-width="0.2"/>
<path d="M38.0505 34.6073C38.0505 34.6074 38.0505 34.6074 38.0505 34.6074L37.9505 34.6072C37.9436 39.182 41.6781 42.9373 46.2508 42.9538L38.0505 34.6073ZM38.0505 34.6073C38.0437 39.1271 41.7337 42.8375 46.2511 42.8538H46.2513C47.3359 42.8594 48.4109 42.6508 49.4147 42.24C50.4185 41.8291 51.3313 41.2242 52.1008 40.4597C52.8702 39.6953 53.4812 38.7865 53.8986 37.7854C54.316 36.7843 54.5317 35.7107 54.5332 34.6261C54.5338 32.4416 53.6671 30.3462 52.1235 28.8005C50.5799 27.2547 48.4857 26.3849 46.3012 26.3825C44.1167 26.38 42.0205 27.2449 40.4734 28.7872C38.9263 30.3294 38.0548 32.4228 38.0505 34.6073ZM46.3004 44.2987H46.3006C48.8641 44.291 51.3203 43.2686 53.1322 41.455C54.944 39.6415 55.9641 37.1843 55.9693 34.6208V34.6206C55.9719 29.2797 51.6024 24.9148 46.2727 24.9352L46.2727 24.9352C43.7093 24.9462 41.2547 25.9728 39.4467 27.79C37.6387 29.6073 36.6246 32.067 36.6266 34.6304L36.6266 34.6306C36.6376 39.9677 40.9776 44.3057 46.3004 44.2987Z" fill="#549FDA" stroke="#549FDA" stroke-width="0.2"/>
<path d="M42.0135 39.7663L41.9848 39.7659C41.6538 39.7603 41.3972 39.6218 41.2576 39.4152C41.1175 39.208 41.1026 38.9423 41.2384 38.7073L41.2408 38.7032L41.2409 38.7032C41.3084 38.5983 41.3891 38.5024 41.481 38.418C44.3456 35.5512 47.2111 32.6853 50.0773 29.8201C50.1448 29.7491 50.2171 29.6829 50.2939 29.6221L50.2943 29.6218C50.4291 29.5159 50.5976 29.4621 50.7688 29.4701C50.9399 29.478 51.1024 29.5472 51.2268 29.6649C51.3585 29.7873 51.4381 29.9557 51.4489 30.1352C51.4597 30.3147 51.401 30.4915 51.285 30.6289M42.0135 39.7663L51.2083 30.5646M42.0135 39.7663L42.038 39.7516C42.2125 39.6466 42.3769 39.5258 42.5292 39.3906L42.5293 39.3907L42.5335 39.3866C45.3772 36.5478 48.2196 33.7077 51.0608 30.8663M42.0135 39.7663L50.9913 30.7943M51.285 30.6289C51.2849 30.629 51.2848 30.6291 51.2847 30.6292L51.2083 30.5646M51.285 30.6289C51.2851 30.6287 51.2852 30.6286 51.2853 30.6285L51.2083 30.5646M51.285 30.6289C51.2154 30.7127 51.1405 30.792 51.0608 30.8663M51.2083 30.5646C51.141 30.6458 51.0685 30.7225 50.9913 30.7943M51.0608 30.8663C51.0612 30.8658 51.0616 30.8654 51.062 30.865L50.9913 30.7943M51.0608 30.8663C51.0603 30.8667 51.0599 30.8671 51.0594 30.8675L50.9913 30.7943" fill="#549FDA" stroke="#549FDA" stroke-width="0.2"/>
<path d="M45.717 31.8013C45.7108 32.2471 45.5726 32.681 45.3201 33.0484C45.0675 33.4159 44.7117 33.7003 44.2976 33.8657C43.8836 34.0312 43.4298 34.0703 42.9935 33.9782C42.5572 33.886 42.158 33.6668 41.8463 33.348C41.5345 33.0292 41.3241 32.6252 41.2417 32.187C41.1592 31.7488 41.2084 31.296 41.383 30.8857C41.5576 30.4754 41.8498 30.1261 42.2228 29.8817C42.5957 29.6373 43.0327 29.5088 43.4785 29.5125M45.717 31.8013C45.7218 31.5036 45.6676 31.208 45.5574 30.9314C45.4472 30.6548 45.2833 30.4028 45.0751 30.19C44.867 29.9771 44.6187 29.8077 44.3446 29.6914C44.0706 29.5751 43.7762 29.5143 43.4785 29.5125M45.717 31.8013C45.717 31.8013 45.717 31.8013 45.717 31.8014L45.617 31.7997L45.717 31.8011C45.717 31.8012 45.717 31.8012 45.717 31.8013ZM43.4785 29.5125C43.4785 29.5125 43.4784 29.5125 43.4784 29.5125L43.4778 29.6125L43.4786 29.5125C43.4786 29.5125 43.4785 29.5125 43.4785 29.5125ZM43.4461 32.6015L43.4446 32.6015C43.2284 32.5989 43.0219 32.5115 42.8696 32.358C42.7174 32.2047 42.6314 31.9977 42.6303 31.7817C42.6317 31.5625 42.7197 31.3528 42.8752 31.1982C43.0307 31.0435 43.2412 30.9566 43.4605 30.9566C43.6799 30.9565 43.8904 31.0432 44.0461 31.1978C44.2016 31.3523 44.2898 31.5621 44.2913 31.7813C44.2909 31.8909 44.2687 31.9993 44.2258 32.1002C44.1829 32.2013 44.1203 32.2927 44.0415 32.3692C43.9628 32.4457 43.8695 32.5056 43.7673 32.5455C43.665 32.5854 43.5558 32.6045 43.4461 32.6015Z" fill="#549FDA" stroke="#549FDA" stroke-width="0.2"/>
<path d="M49.1236 35.1877L49.1235 35.1877C48.5227 35.1892 47.947 35.4292 47.5231 35.8551C47.0991 36.2809 46.8617 36.8576 46.8629 37.4585L46.8629 37.4585C46.864 37.9066 46.9979 38.3442 47.2476 38.7161C47.4974 39.0881 47.8519 39.3776 48.2662 39.5481C48.6805 39.7186 49.1361 39.7624 49.5753 39.674C50.0145 39.5856 50.4177 39.3689 50.7337 39.0514C51.0498 38.7339 51.2647 38.3298 51.3511 37.8902C51.4376 37.4506 51.3917 36.9952 51.2194 36.5817C51.047 36.1681 50.7559 35.815 50.3829 35.5668C50.0098 35.3187 49.5716 35.1868 49.1236 35.1877ZM49.9482 37.4996L49.9481 37.4996L49.948 37.5027C49.9374 37.7183 49.8419 37.9209 49.6824 38.0664C49.523 38.2118 49.3125 38.2883 49.0969 38.2791C48.9873 38.274 48.8799 38.2472 48.7807 38.2004C48.6815 38.1536 48.5925 38.0876 48.5189 38.0062C48.4453 37.9248 48.3886 37.8297 48.3519 37.7262C48.3153 37.6229 48.2995 37.5133 48.3054 37.4038C48.318 37.1884 48.4151 36.9867 48.5755 36.8424C48.7359 36.6981 48.9468 36.6228 49.1624 36.633L49.165 36.633C49.2743 36.6353 49.3821 36.66 49.4815 36.7055C49.581 36.7509 49.6702 36.8162 49.7435 36.8974C49.8168 36.9785 49.8728 37.0738 49.908 37.1774C49.9432 37.2809 49.9569 37.3906 49.9482 37.4996Z" fill="#549FDA" stroke="#549FDA" stroke-width="0.2"/>
<defs>
<linearGradient id="paint0_linear_152_1428" x1="42.8907" y1="-12.3458" x2="43" y2="85" gradientUnits="userSpaceOnUse">
<stop stop-color="#96BFDF" stop-opacity="0.75"/>
<stop offset="1" stop-color="#CFFDFF"/>
</linearGradient>
<linearGradient id="paint1_linear_152_1428" x1="42.9139" y1="-0.731362" x2="43.0861" y2="67.4743" gradientUnits="userSpaceOnUse">
<stop stop-color="#549FDA" stop-opacity="0.42"/>
<stop offset="1" stop-color="#B2F8FB" stop-opacity="0.62"/>
</linearGradient>
</defs>
</svg>
