<svg width="86" height="85" viewBox="0 0 86 85" fill="none" xmlns="http://www.w3.org/2000/svg">
<circle opacity="0.2" cx="43" cy="42.5" r="42.5" fill="url(#paint0_linear_152_1442)"/>
<circle opacity="0.12" cx="43" cy="42.5" r="33.5" fill="url(#paint1_linear_152_1442)"/>
<path d="M32.9031 41.75H35.6875L31.6343 46.5826L27.5943 41.7667H30.2672H30.3559L30.3665 41.6786C31.0443 36.0042 33.78 31.7058 38.7926 28.9796C42.377 27.0302 46.2085 26.6259 50.1617 27.6331C58.0943 29.6543 63.171 37.4363 61.8204 45.5603C60.4618 53.7315 53.3143 58.8359 46.3114 58.7778V56.4666C51.0588 56.2615 54.8498 54.2663 57.496 50.278C59.4301 47.363 60.0602 44.1235 59.4787 40.6838C58.3074 33.7563 51.8962 28.861 44.9318 29.545C37.8149 30.244 33.2272 36.0686 32.8034 41.6424L32.7952 41.75H32.9031Z" fill="#549FDA" stroke="url(#paint2_linear_152_1442)" stroke-width="0.2"/>
<path d="M40.4617 58.8883H38.7514V48.216H40.4668V52.2246V52.5451L40.6491 52.2815C40.6957 52.2141 40.7331 52.1593 40.765 52.1125C40.8201 52.0317 40.8587 51.9751 40.9001 51.9192L40.9001 51.9193L40.9009 51.9181C41.0858 51.6608 41.3358 51.4574 41.6253 51.3286C41.9147 51.1998 42.2332 51.1503 42.5481 51.1851C42.8629 51.22 43.1629 51.3379 43.4172 51.5269C43.6714 51.7159 43.8709 51.969 43.995 52.2605L43.995 52.2605L43.9966 52.264C44.1269 52.5394 44.2024 52.8374 44.2191 53.1416C44.2347 54.5982 44.2328 56.0547 44.2309 57.5274C44.2303 57.9832 44.2297 58.4406 44.2297 58.9H42.529C42.5281 58.8877 42.5273 58.8756 42.5264 58.8636C42.5205 58.7793 42.515 58.7012 42.5149 58.6208C42.5133 57.1493 42.5127 55.6778 42.513 54.2063C42.5159 54.0618 42.5111 53.9173 42.4986 53.7734L42.4986 53.7734L42.4984 53.7713C42.4654 53.4657 42.3614 53.2235 42.1754 53.061C41.9893 52.8985 41.736 52.8284 41.4309 52.8365C41.1496 52.8439 40.9114 52.9269 40.742 53.0959C40.5724 53.2651 40.4845 53.5076 40.4784 53.8084C40.462 54.617 40.4623 55.4263 40.4626 56.2344C40.4627 56.5332 40.4628 56.8319 40.462 57.1304C40.461 57.5495 40.4612 57.9686 40.4615 58.3963C40.4616 58.5589 40.4617 58.7228 40.4617 58.8883Z" fill="#549FDA" stroke="url(#paint3_linear_152_1442)" stroke-width="0.2"/>
<path d="M26.0013 48.1914L26.0017 48.1913C26.6739 48.021 27.3793 48.0325 28.0456 48.2246L28.0458 48.2246C28.527 48.3621 28.9039 48.6011 29.1761 48.9257C29.4485 49.2505 29.6205 49.6663 29.6832 50.1641C29.8527 51.51 29.3745 52.6776 28.6608 53.7898C28.2355 54.4525 27.7967 55.1058 27.3572 55.76C27.1536 56.0631 26.9499 56.3664 26.7473 56.671C26.7001 56.7419 26.6542 56.8146 26.6001 56.9005C26.5723 56.9446 26.5423 56.9921 26.5088 57.0447L26.4108 57.1985H26.5931H29.7151V58.8864H24.2003C24.2138 58.7187 24.2133 58.5519 24.2101 58.3884C24.2092 58.3449 24.2082 58.3017 24.2071 58.2588C24.2034 58.1026 24.1997 57.95 24.2053 57.7971C24.2195 57.4115 24.2928 57.0397 24.5701 56.6759C25.4491 55.5225 26.2433 54.3025 27.021 53.0818C27.2971 52.6484 27.4986 52.1644 27.6951 51.6924C27.7423 51.5791 27.7892 51.4664 27.8368 51.3554C27.911 51.182 27.9118 50.9744 27.9126 50.8034C27.9126 50.7889 27.9127 50.7746 27.9128 50.7607C27.9148 50.4907 27.8612 50.2694 27.7367 50.1032C27.6108 49.9353 27.4231 49.8378 27.1863 49.7951C26.912 49.7455 26.6621 49.7721 26.4557 49.883C26.2483 49.9945 26.0959 50.1853 26.0068 50.4426L26.1013 50.4753L26.0068 50.4426C25.9663 50.5594 25.94 50.6793 25.9171 50.8004C25.9086 50.8454 25.9007 50.8899 25.8928 50.9345C25.8833 50.9874 25.8739 51.0405 25.8633 51.0951H24.1281C23.9309 49.8404 24.7927 48.4923 26.0013 48.1914Z" fill="#549FDA" stroke="url(#paint4_linear_152_1442)" stroke-width="0.2"/>
<path d="M34.6982 55.4246V52.9275H36.4121V55.427V55.5223L36.5072 55.5269L37.1389 55.5575V57.2343H36.5253H36.4253V57.3343V58.8984H34.6984V57.3382V57.2382H34.5984H30.7921C30.799 57.0558 30.7993 56.876 30.7989 56.6993C30.7988 56.6766 30.7987 56.654 30.7987 56.6314C30.7981 56.4437 30.7976 56.2598 30.8039 56.0771C30.818 55.6684 30.8664 55.2727 31.0228 54.8789C31.7449 53.06 32.4288 51.2258 33.1123 49.3929C33.2303 49.0765 33.3482 48.7601 33.4664 48.4438C33.5081 48.3323 33.5474 48.2719 33.5933 48.2372C33.637 48.2044 33.7013 48.184 33.8189 48.1884C34.2262 48.2035 34.6354 48.2006 35.0665 48.1976C35.2013 48.1967 35.3383 48.1957 35.478 48.1953L32.8172 55.3899L32.7674 55.5246H32.911H34.5982H34.6982V55.4246Z" fill="#549FDA" stroke="url(#paint5_linear_152_1442)" stroke-width="0.2"/>
<path d="M47.2619 42.1858H50.8011V44.5405H44.8305V35.0152H47.1619V42.0858V42.1858H47.2619Z" fill="#549FDA" stroke="url(#paint6_linear_152_1442)" stroke-width="0.2"/>
<defs>
<linearGradient id="paint0_linear_152_1442" x1="42.8907" y1="-12.3458" x2="43" y2="85" gradientUnits="userSpaceOnUse">
<stop stop-color="#96BFDF" stop-opacity="0.75"/>
<stop offset="1" stop-color="#CFFDFF"/>
</linearGradient>
<linearGradient id="paint1_linear_152_1442" x1="42.9139" y1="-0.731362" x2="43.0861" y2="67.4743" gradientUnits="userSpaceOnUse">
<stop stop-color="#549FDA" stop-opacity="0.42"/>
<stop offset="1" stop-color="#B2F8FB" stop-opacity="0.62"/>
</linearGradient>
<linearGradient id="paint2_linear_152_1442" x1="44.7587" y1="27" x2="44.7587" y2="58.8783" gradientUnits="userSpaceOnUse">
<stop stop-color="#EAF4FA"/>
<stop offset="1" stop-color="#EDFAFC"/>
</linearGradient>
<linearGradient id="paint3_linear_152_1442" x1="41.4918" y1="48.116" x2="41.4918" y2="59" gradientUnits="userSpaceOnUse">
<stop stop-color="#EAF4FA"/>
<stop offset="1" stop-color="#EDFAFC"/>
</linearGradient>
<linearGradient id="paint4_linear_152_1442" x1="26.9087" y1="47.9716" x2="26.9087" y2="58.9864" gradientUnits="userSpaceOnUse">
<stop stop-color="#EAF4FA"/>
<stop offset="1" stop-color="#EDFAFC"/>
</linearGradient>
<linearGradient id="paint5_linear_152_1442" x1="33.9632" y1="48.0878" x2="33.9632" y2="58.9984" gradientUnits="userSpaceOnUse">
<stop stop-color="#EAF4FA"/>
<stop offset="1" stop-color="#EDFAFC"/>
</linearGradient>
<linearGradient id="paint6_linear_152_1442" x1="47.8158" y1="34.9152" x2="47.8158" y2="44.6405" gradientUnits="userSpaceOnUse">
<stop stop-color="#EAF4FA"/>
<stop offset="1" stop-color="#EDFAFC"/>
</linearGradient>
</defs>
</svg>
