<svg width="86" height="85" viewBox="0 0 86 85" fill="none" xmlns="http://www.w3.org/2000/svg">
<circle opacity="0.2" cx="43" cy="42.5" r="42.5" fill="url(#paint0_linear_152_1456)"/>
<circle opacity="0.12" cx="43" cy="42.5" r="33.5" fill="url(#paint1_linear_152_1456)"/>
<path d="M54.7117 48.5976C55.1023 48.8985 55.4775 49.2189 55.836 49.5573C56.8825 50.6288 56.8908 52.1376 55.8547 53.2218C55.1135 53.9973 54.3519 54.7532 53.5698 55.4893C52.4711 56.5216 51.0857 56.4998 49.9879 55.4685C49.9668 55.4487 49.9465 55.4279 49.9256 55.4078C48.5776 54.1097 48.5776 54.1097 46.7476 54.9141C46.7476 55.4355 46.7674 55.9853 46.7436 56.5333C46.7265 57.1784 46.4623 57.7924 46.0057 58.2484C45.5491 58.7045 44.9348 58.9678 44.2896 58.9842C43.1596 59.0204 42.0271 59.0123 40.8964 58.9873C39.5198 58.9569 38.5031 57.9543 38.4109 56.5771C38.3973 56.3749 38.4045 56.1712 38.4056 55.9681C38.4138 54.4192 38.3691 54.3391 36.8709 53.8844C36.7563 53.8707 36.6401 53.8818 36.5302 53.917C36.4203 53.9521 36.3192 54.0105 36.2338 54.0881C33.9266 56.2146 33.1253 56.2053 30.8919 53.9825C30.4191 53.512 29.9415 53.0447 29.4937 52.551C28.5022 51.4579 28.5126 50.1184 29.4995 49.0313C29.5172 49.0083 29.5378 48.9876 29.5607 48.9697C30.8427 48.135 30.9971 47.0842 30.0091 45.7551C29.6181 45.7551 29.0735 45.7656 28.5294 45.753C27.1102 45.7203 26.0559 44.6953 26.0207 43.2811C25.9933 42.1795 25.9941 41.0764 26.017 39.9747C26.0473 38.5115 26.9899 37.5393 28.449 37.4222C28.5356 37.4153 28.6228 37.4149 28.7098 37.4123C30.5344 37.3588 30.5344 37.3588 31.3136 35.371C30.9141 35.0898 30.5346 34.7811 30.1781 34.4471C29.0953 33.3132 29.0947 31.9542 30.1702 30.8016C30.902 30.0174 31.6572 29.2552 32.4358 28.5149C33.4985 27.5044 34.8598 27.5187 35.9421 28.5135C36.0702 28.6312 36.1938 28.7538 36.3179 28.8758C37.3892 29.9285 37.5996 29.9698 38.8985 29.2271C39.0674 29.1306 39.1853 28.8365 39.2107 28.6203C39.2611 28.1909 39.2063 27.7502 39.2379 27.3174C39.2728 26.7174 39.5291 26.1518 39.9571 25.73C40.3851 25.3082 40.9544 25.0602 41.5548 25.034C42.7423 24.9905 43.9337 24.9891 45.1215 25.0276C46.4718 25.0714 47.3862 25.9674 47.5112 27.3141C47.5607 27.7757 47.5714 28.2407 47.543 28.7041C47.5015 29.2478 47.7523 29.4733 48.205 29.7521C49.1211 30.3163 49.6931 30.105 50.3846 29.34C51.5845 28.0124 52.9582 28.0389 54.2579 29.2752C54.9722 29.9548 55.6675 30.6548 56.3582 31.3585C57.4895 32.5109 57.4924 33.8982 56.3792 35.0513C56.2583 35.1765 56.134 35.2984 56.0107 35.4212C55.1161 36.3119 55.0449 36.9394 55.7585 38.0097C55.8829 38.1479 56.0566 38.2318 56.2421 38.2432C56.6454 38.2775 57.0538 38.2441 57.4594 38.2587C58.8768 38.3096 59.9259 39.321 59.9737 40.739C60.0118 41.8689 60.005 43.0017 59.9754 44.1321C59.9433 45.3572 59.1612 46.2625 57.9604 46.5231C57.7335 46.5695 57.5029 46.595 57.2714 46.5993C55.4398 46.6534 55.4398 46.6514 54.7117 48.5976ZM42.4816 57.0732C42.9456 57.0732 43.4113 57.0485 43.8734 57.079C44.5617 57.1245 44.8183 56.7936 44.8001 56.1452C44.7829 55.5366 44.802 54.927 44.7888 54.3182C44.7739 53.6349 45.1009 53.2687 45.7533 53.0718C46.5561 52.8325 47.3424 52.5413 48.1073 52.1999C48.7551 51.9078 49.2612 51.9663 49.744 52.4937C50.2136 53.0067 50.7296 53.477 51.2052 53.9848C51.5911 54.3966 51.9504 54.3581 52.3241 53.9881C52.9836 53.3352 53.639 52.6781 54.3033 52.0302C54.7456 51.5988 54.7417 51.1886 54.2965 50.7623C53.8358 50.3211 53.3949 49.8591 52.9307 49.4217C52.4578 48.9761 52.4203 48.5184 52.7269 47.9423C53.1501 47.1523 53.5276 46.3386 53.8577 45.5054C54.0962 44.8978 54.477 44.6436 55.1097 44.6649C55.7761 44.6874 56.4442 44.6592 57.1106 44.6806C57.7214 44.7001 58.0375 44.4544 58.0305 43.8191C58.0204 42.8911 58.0254 41.9629 58.0298 41.0349C58.0324 40.4632 57.7736 40.1765 57.1839 40.1908C56.5462 40.2062 55.9075 40.1843 55.2699 40.2031C54.6292 40.2219 54.2551 39.9458 54.0504 39.3273C53.7603 38.4503 53.3356 37.6128 53.1067 36.7228C53.0137 36.271 53.099 35.8007 53.3448 35.4104C53.7539 34.8248 54.3205 34.3422 54.8546 33.8531C55.3217 33.4255 55.3395 33.0589 54.8736 32.6203C54.2192 32.0043 53.5863 31.3647 52.9584 30.7214C52.5199 30.2721 52.1314 30.2854 51.7064 30.7472C51.2748 31.2163 50.8041 31.6491 50.3565 32.1037C49.9053 32.5619 49.4441 32.5963 48.87 32.282C48.1129 31.8589 47.3259 31.4918 46.5153 31.1835C45.8694 30.9447 45.5823 30.561 45.5925 29.8937C45.6032 29.1978 45.5771 28.5014 45.5872 27.8056C45.5957 27.2196 45.3216 26.958 44.7423 26.9653C43.8143 26.9769 42.8862 26.9793 41.958 26.9723C41.3578 26.968 41.1361 27.2726 41.1549 27.8442C41.1759 28.4817 41.1627 29.1202 41.1648 29.7583C41.1669 30.3959 40.8537 30.7581 40.243 30.9546C39.4159 31.214 38.6039 31.5192 37.8108 31.8689C37.1925 32.1473 36.711 32.0897 36.2467 31.5979C35.7891 31.1132 35.2729 30.6818 34.8339 30.1819C34.3892 29.6753 34.015 29.639 33.5452 30.1451C32.934 30.8036 32.2998 31.4407 31.6427 32.0563C31.1705 32.499 31.2036 32.8791 31.6474 33.3029C32.1086 33.7434 32.5435 34.2115 33.0031 34.6537C33.4725 35.1052 33.4893 35.578 33.1964 36.1435C32.7894 36.909 32.4244 37.6959 32.1028 38.501C31.8592 39.131 31.4782 39.4398 30.8059 39.424C30.1392 39.4084 29.4714 39.4334 28.8049 39.4137C28.1955 39.3957 27.8906 39.6202 27.9136 40.2756C27.9461 41.2026 27.9382 42.1317 27.9228 43.0596C27.9137 43.61 28.1444 43.8589 28.7003 43.8449C29.3379 43.8289 29.9768 43.8605 30.6143 43.8435C31.2918 43.8254 31.6789 44.1227 31.8879 44.7759C32.1605 45.6276 32.4799 46.4675 32.8355 47.2882C33.0755 47.8421 33.0339 48.2806 32.5927 48.7006C32.0467 49.2203 31.528 49.7685 30.9857 50.2922C30.6208 50.6446 30.6119 50.9832 30.9647 51.341C31.6366 52.0226 32.3121 52.7006 32.9768 53.389C33.4192 53.8472 33.8142 53.7967 34.2322 53.3471C34.6862 52.8589 35.1697 52.3982 35.6382 51.9233C36.0406 51.5156 36.4776 51.477 36.9784 51.7478C37.5816 52.0925 38.2025 52.4053 38.8384 52.6849C40.3162 53.2934 40.3216 53.2752 40.3247 54.8772C40.3295 57.3726 40.0479 57.0536 42.4816 57.0732Z" fill="#549FDA"/>
<path d="M50.2845 42.0449C50.2815 46.0952 47.013 49.3409 42.9087 49.3694C38.972 49.3967 35.6357 46.0335 35.6211 42.0231C35.6066 38.0074 38.9928 34.6158 42.9758 34.6569C43.9417 34.6593 44.8975 34.8526 45.7883 35.2257C46.6791 35.5988 47.4874 36.1443 48.1666 36.8309C48.8459 37.5176 49.3826 38.3317 49.7461 39.2265C50.1096 40.1213 50.2926 41.0791 50.2845 42.0449ZM48.3786 42.0313C48.3799 39.0011 46.0285 36.6425 42.9709 36.6072C40.0089 36.5731 37.5438 39.0355 37.5442 42.0279C37.542 42.7406 37.6804 43.4467 37.9515 44.1058C38.2227 44.7649 38.6212 45.364 39.1243 45.8688C39.6273 46.3737 40.2251 46.7742 40.8832 47.0476C41.5414 47.321 42.247 47.4619 42.9597 47.4621C43.6724 47.4623 44.3781 47.3219 45.0364 47.0489C45.6947 46.776 46.2927 46.3757 46.7961 45.8712C47.2995 45.3668 47.6984 44.7679 47.97 44.109C48.2415 43.45 48.3804 42.744 48.3786 42.0313Z" fill="#549FDA"/>
<defs>
<linearGradient id="paint0_linear_152_1456" x1="42.8907" y1="-12.3458" x2="43" y2="85" gradientUnits="userSpaceOnUse">
<stop stop-color="#96BFDF" stop-opacity="0.75"/>
<stop offset="1" stop-color="#CFFDFF"/>
</linearGradient>
<linearGradient id="paint1_linear_152_1456" x1="42.9139" y1="-0.731362" x2="43.0861" y2="67.4743" gradientUnits="userSpaceOnUse">
<stop stop-color="#549FDA" stop-opacity="0.42"/>
<stop offset="1" stop-color="#B2F8FB" stop-opacity="0.62"/>
</linearGradient>
</defs>
</svg>
