<svg width="86" height="85" viewBox="0 0 86 85" fill="none" xmlns="http://www.w3.org/2000/svg">
<circle opacity="0.2" cx="43" cy="42.5" r="42.5" fill="url(#paint0_linear_152_1484)"/>
<circle opacity="0.12" cx="43" cy="42.5" r="33.5" fill="url(#paint1_linear_152_1484)"/>
<path d="M56.6798 39.4C56.6798 38.6051 56.0347 37.96 55.2398 37.96C54.4449 37.96 53.7998 38.6051 53.7998 39.4C53.7998 39.7427 53.7998 49.8572 53.7998 50.2C53.7998 50.9948 54.4449 51.64 55.2398 51.64C56.0347 51.64 56.6798 50.9948 56.6798 50.2C56.6798 49.8572 56.6798 39.7427 56.6798 39.4Z" stroke="#549FDA" stroke-width="1.7" stroke-miterlimit="10"/>
<path d="M45.1601 58.84C45.955 58.84 46.6001 58.1948 46.6001 57.4C46.6001 56.6051 45.955 55.96 45.1601 55.96C44.8174 55.96 41.9028 55.96 41.5601 55.96C40.7652 55.96 40.1201 56.6051 40.1201 57.4C40.1201 58.1948 40.7652 58.84 41.5601 58.84C41.9028 58.84 44.8174 58.84 45.1601 58.84Z" stroke="#549FDA" stroke-width="1.7" stroke-miterlimit="10"/>
<path d="M30.7598 38.6799C30.7598 31.9199 36.2397 26.4399 42.9998 26.4399C49.7598 26.4399 55.2398 31.9199 55.2398 38.6799" stroke="#549FDA" stroke-width="1.7" stroke-miterlimit="10"/>
<path d="M56.6797 39.3999C58.6683 39.3999 60.2797 41.8169 60.2797 44.7999C60.2797 47.7814 58.6683 50.1999 56.6797 50.1999" stroke="#549FDA" stroke-width="1.7" stroke-miterlimit="10"/>
<path d="M29.3203 39.4C29.3203 38.6051 29.9654 37.96 30.7603 37.96C31.5552 37.96 32.2003 38.6051 32.2003 39.4C32.2003 39.7427 32.2003 49.8572 32.2003 50.2C32.2003 50.9948 31.5552 51.64 30.7603 51.64C29.9654 51.64 29.3203 50.9948 29.3203 50.2C29.3203 49.8572 29.3203 39.7427 29.3203 39.4Z" stroke="#549FDA" stroke-width="1.7" stroke-miterlimit="10"/>
<path d="M29.3197 39.3999C27.3318 39.3999 25.7197 41.8169 25.7197 44.7999C25.7197 47.7814 27.3318 50.1999 29.3197 50.1999" stroke="#549FDA" stroke-width="1.7" stroke-miterlimit="10"/>
<path d="M55.2396 51.64C55.2396 55.24 53.0796 57.4 49.4796 57.4H46.5996" stroke="#549FDA" stroke-width="1.7" stroke-miterlimit="10"/>
<defs>
<linearGradient id="paint0_linear_152_1484" x1="42.8907" y1="-12.3458" x2="43" y2="85" gradientUnits="userSpaceOnUse">
<stop stop-color="#96BFDF" stop-opacity="0.75"/>
<stop offset="1" stop-color="#CFFDFF"/>
</linearGradient>
<linearGradient id="paint1_linear_152_1484" x1="42.9139" y1="-0.731362" x2="43.0861" y2="67.4743" gradientUnits="userSpaceOnUse">
<stop stop-color="#549FDA" stop-opacity="0.42"/>
<stop offset="1" stop-color="#B2F8FB" stop-opacity="0.62"/>
</linearGradient>
</defs>
</svg>
