<svg width="86" height="85" viewBox="0 0 86 85" fill="none" xmlns="http://www.w3.org/2000/svg">
<circle opacity="0.2" cx="43" cy="42.5" r="42.5" fill="url(#paint0_linear_152_1470)"/>
<circle opacity="0.12" cx="43" cy="42.5" r="33.5" fill="url(#paint1_linear_152_1470)"/>
<path d="M29.4356 53.4653C29.0076 52.7957 28.5584 52.1385 28.1554 51.4541C26.6753 48.9321 25.8604 46.0753 25.7871 43.152C25.7821 43.0035 25.7683 42.8552 25.7465 42.5213C25.0016 42.6045 24.2649 42.6868 23.5283 42.7691L23.4986 42.49L27.2553 38.8427L30.9106 42.6077L27.6196 42.6448C27.7928 43.9285 27.8603 45.1506 28.1316 46.3256C30.4076 56.1818 42.0206 60.919 50.5622 55.5111C52.9345 54.0223 54.8468 51.904 56.0861 49.3924C56.5688 48.431 56.33 48.3981 57.5157 48.8633C57.7448 48.9531 57.9628 49.0708 58.3776 49.2658C57.6321 50.5065 57.0175 51.7733 56.1851 52.8755C50.4533 60.4651 40.0586 61.9415 32.4185 56.2964C32.1608 56.1059 31.8986 55.9216 31.6385 55.7344L29.4356 53.4653Z" fill="#549FDA"/>
<path d="M28.7721 37.1894L27.1086 36.5535C28.686 31.7789 34.1807 26.3141 41.9699 26.0013C45.0311 25.8708 48.0697 26.5808 50.7561 28.0544C53.4425 29.5279 55.6743 31.7087 57.2095 34.3604C58.7724 37.0401 59.4746 39.9528 59.5269 43.117C60.328 43.0794 61.0478 43.0455 61.7677 43.0117L61.8342 43.2228L58.1002 46.8479L54.4392 43.077L57.4804 43.0528C57.9204 37.5829 54.2311 31.5131 48.4486 29.0715C45.9586 28.0201 43.3654 27.7186 40.7087 28.0361C38.1031 28.3484 35.6335 29.371 33.5698 30.9922C31.4638 32.6105 29.8112 34.7451 28.7721 37.1894Z" fill="#549FDA"/>
<path d="M51.4019 36.7847L49.1579 35.0937C49.0884 35.0391 49.0025 35 48.9044 35C48.8063 35 48.7164 35.0391 48.6469 35.0976L40.4841 45.1185C40.4841 45.1185 37.2754 42.17 37.1855 42.0841C37.0956 41.9982 36.977 41.8537 36.7972 41.8537C36.6173 41.8537 36.5356 41.9747 36.4416 42.0646C36.3721 42.1349 35.2276 43.283 34.6635 43.8532C34.6308 43.8883 34.6104 43.9078 34.5818 43.9352C34.5327 44.0016 34.5 44.0758 34.5 44.1578C34.5 44.2437 34.5327 44.314 34.5818 44.3804L34.6962 44.4819C34.6962 44.4819 40.3901 49.7071 40.4841 49.7969C40.5781 49.8867 40.6926 50 40.8602 50C41.0237 50 41.1586 49.8321 41.2362 49.7579L51.4182 37.2611C51.4673 37.1947 51.5 37.1205 51.5 37.0346C51.5 36.937 51.4591 36.855 51.4019 36.7847Z" fill="#549FDA"/>
<defs>
<linearGradient id="paint0_linear_152_1470" x1="42.8907" y1="-12.3458" x2="43" y2="85" gradientUnits="userSpaceOnUse">
<stop stop-color="#96BFDF" stop-opacity="0.75"/>
<stop offset="1" stop-color="#CFFDFF"/>
</linearGradient>
<linearGradient id="paint1_linear_152_1470" x1="42.9139" y1="-0.731362" x2="43.0861" y2="67.4743" gradientUnits="userSpaceOnUse">
<stop stop-color="#549FDA" stop-opacity="0.42"/>
<stop offset="1" stop-color="#B2F8FB" stop-opacity="0.62"/>
</linearGradient>
</defs>
</svg>
