<svg width="26" height="26" viewBox="0 0 26 26" fill="none" xmlns="http://www.w3.org/2000/svg">
<g clip-path="url(#clip0_402_15495)">
<path d="M6.09781 0H19.8981V26H6.09375L6.09781 0Z" fill="white"/>
<path d="M-1 2H5.99897V26H-1V2ZM20.001 2H27V26H20.0052L20.001 2ZM8.09701 13.6L7.5488 13.82L10.0796 16.52C10.2734 17.205 10.0137 17.41 9.84882 17.77L12.594 17.35L12.528 20.7L13.101 20.685L12.9732 17.355L15.7225 17.755C15.5535 17.32 15.401 17.09 15.5576 16.395L18.0844 13.845L17.6433 13.645C17.2806 13.305 17.7999 12.015 17.8741 11.2C17.8741 11.2 16.4026 11.815 16.3078 11.49L15.9286 10.615L14.5849 12.405C14.4406 12.45 14.3788 12.38 14.3417 12.23L14.96 8.49L13.979 9.16C13.8965 9.205 13.8141 9.165 13.7646 9.05L12.8166 6.75L11.8438 9.14C11.7696 9.225 11.6954 9.235 11.6377 9.175L10.6938 8.54L11.2585 12.245C11.2132 12.395 11.106 12.435 10.9823 12.355L9.69631 10.59C9.53143 10.915 9.41602 11.445 9.19343 11.565C8.97085 11.68 8.22479 11.34 7.72604 11.215C7.89916 11.955 8.42676 13.195 8.09701 13.6Z" fill="#D52B1E"/>
</g>
<defs>
<clipPath id="clip0_402_15495">
<rect width="26" height="26" rx="13" fill="white"/>
</clipPath>
</defs>
</svg>
