<svg width="26" height="27" viewBox="0 0 26 27" fill="none" xmlns="http://www.w3.org/2000/svg">
<path d="M11.5303 25.8905C12.1866 25.8582 12.8689 25.3981 13.1209 24.6747L16.0956 16.1289L23.7399 11.7396C24.3887 11.3671 24.7182 10.5947 24.644 9.91785C24.5696 9.24101 24.0803 8.56108 23.3665 8.3409L2.4774 1.89605C1.76223 1.67549 0.999947 1.96034 0.574266 2.48008C0.0602611 3.05808 0.0532883 3.90129 0.326539 4.5238L9.82245 24.8371C10.2449 25.6598 10.8177 25.9242 11.5303 25.8905ZM11.3529 22.4395L3.03923 4.65051L21.3197 10.2885L14.539 14.1836C14.288 14.3279 14.0962 14.5615 13.9988 14.8415L11.3529 22.4395Z" fill="#5CE1E6"/>
<path d="M22.8621 10.0274L1.94101 3.68221L10.885 24.7014L15.4769 14.9933L22.8621 10.0274Z" fill="#5CE1E6"/>
</svg>
