<svg width="53" height="53" viewBox="0 0 53 53" fill="none" xmlns="http://www.w3.org/2000/svg">
<circle opacity="0.25" cx="26.0118" cy="26.0118" r="26.0118" fill="url(#paint0_linear_398_12363)"/>
<path d="M19.3647 36.6062C19.3647 36.7438 19.3645 36.8798 19.3644 37.0148C19.3639 37.41 19.3635 37.7955 19.3656 38.1809C19.3665 38.3491 19.4065 38.4948 19.4974 38.6094C19.5885 38.724 19.7213 38.7956 19.8854 38.8336L19.8864 38.8338C20.0062 38.8602 20.1285 38.873 20.2511 38.8721M19.3647 36.6062L20.2508 38.8721C20.2509 38.8721 20.251 38.8721 20.2511 38.8721M19.3647 36.6062L18.1562 36.6062C18.0997 36.6062 18.0428 36.6065 17.9857 36.6067C17.8576 36.6072 17.7282 36.6077 17.5996 36.6057C17.3933 36.6025 17.2187 36.5415 17.0958 36.4163C16.973 36.2911 16.9151 36.1149 16.9152 35.9078C16.9171 33.2719 16.9192 30.6359 16.9216 28C16.9218 27.0556 16.9201 26.1115 16.9184 25.1673C16.9172 24.4872 16.9159 23.807 16.9154 23.1266C16.915 22.6276 16.9152 22.1287 16.9154 21.6299C16.9157 20.6143 16.9161 19.599 16.9117 18.5835C16.9107 18.3375 16.9787 18.1344 17.1608 17.9546C17.5939 17.5272 18.0231 17.096 18.4526 16.6644C18.6016 16.5146 18.7507 16.3648 18.9001 16.2151C19.4181 15.6957 19.9361 15.1763 20.4539 14.6567L20.4541 14.6566C20.9892 14.1215 21.5251 13.5871 22.0618 13.0535C22.1442 12.9714 22.2266 12.8893 22.309 12.8073C22.5375 12.5798 22.7658 12.3526 22.9927 12.1238C23.0603 12.054 23.142 11.9993 23.2324 11.9633C23.3222 11.9276 23.4186 11.9112 23.5152 11.9152L23.7345 11.9155C27.0193 11.9196 30.3039 11.9237 33.5884 11.9117C33.8416 11.9108 34.0429 11.9878 34.1781 12.133C34.3126 12.2775 34.3691 12.4758 34.3611 12.6929C34.3473 13.0685 34.3503 13.4434 34.3534 13.8293C34.3545 13.9654 34.3557 14.1029 34.3561 14.2423H34.4546C34.6153 14.2422 34.776 14.2421 34.9368 14.242C35.308 14.2417 35.6793 14.2414 36.0506 14.2422C36.2745 14.2428 36.4593 14.2947 36.587 14.4217C36.7148 14.5488 36.7668 14.7328 36.7669 14.9553C36.7673 17.3139 36.7675 19.6725 36.7673 22.0311L36.7676 28.1183L36.7676 34.3963C36.7676 34.6607 36.7677 34.9251 36.7678 35.1895C36.7681 36.1794 36.7684 37.1695 36.7642 38.1595L36.7642 38.1609C36.7617 38.2987 36.7342 38.4349 36.683 38.5628C36.6431 38.6639 36.5835 38.7462 36.4963 38.8018C36.4097 38.8568 36.306 38.8791 36.1889 38.8788C33.5007 38.871 30.8124 38.8693 28.1241 38.8736H28.1239C25.4997 38.8736 22.8754 38.8731 20.2511 38.8721M19.3647 36.6062L20.2511 38.8721M23.5067 18.0239V18.0239C23.5066 16.359 23.5067 14.694 23.507 13.0291C23.507 12.8877 23.5277 12.8367 23.5505 12.8138C23.5733 12.7909 23.6242 12.7698 23.7664 12.7698C27.0035 12.7693 30.2405 12.7692 33.4776 12.7695C33.4833 12.7695 33.4889 12.7697 33.4945 12.77V35.7436H17.7652V35.6515C17.7656 33.4205 17.7659 31.1895 17.766 28.9585L17.7661 22.4047L17.766 18.7132C17.766 18.6364 17.7696 18.5826 17.7777 18.5436C17.7856 18.5059 17.7962 18.49 17.8046 18.4818C17.8131 18.4733 17.8296 18.4627 17.8686 18.4547C17.9086 18.4465 17.9637 18.4429 18.0418 18.4429C18.0418 18.4429 18.0419 18.4429 18.0419 18.4429L23.0875 18.4425C23.1586 18.4425 23.2216 18.4403 23.2743 18.4307C23.328 18.4209 23.3813 18.4016 23.4235 18.3595C23.4657 18.3174 23.485 18.2641 23.4949 18.2105C23.5045 18.1578 23.5067 18.0948 23.5067 18.0239ZM34.3564 20.2801V20.28L34.3562 15.2002V15.0875H35.9139V38.0111H20.2225V36.6062L20.3661 36.6062L25.4134 36.6063L33.5624 36.6063C33.8229 36.6063 34.0302 36.5586 34.1692 36.4209C34.3085 36.2828 34.3566 36.0769 34.3561 35.8186C34.3552 35.3458 34.354 34.8732 34.3527 34.4005C34.3501 33.4048 34.3475 32.4092 34.3479 31.4135C34.3512 27.7023 34.354 23.9912 34.3564 20.2801ZM22.6591 15.687V15.6871C22.6596 16.265 22.6594 16.843 22.6585 17.421C22.6584 17.4786 22.6566 17.5166 22.6521 17.5433C22.6489 17.5626 22.6451 17.5696 22.644 17.5713C22.6423 17.5724 22.6361 17.5757 22.6201 17.5788C22.5953 17.5837 22.5585 17.586 22.5014 17.5861L22.5014 17.5861C21.3172 17.5901 20.1331 17.589 18.9491 17.5828C18.936 17.5827 18.9081 17.5762 18.8799 17.5617C18.8671 17.5551 18.8577 17.5486 18.8521 17.5437C18.8512 17.5338 18.8518 17.5154 18.8587 17.4906C18.8674 17.4592 18.8811 17.436 18.8904 17.4265C19.2785 17.0294 19.6719 16.6375 20.0658 16.245C20.1628 16.1483 20.2599 16.0516 20.357 15.9547L20.2863 15.8839L20.3569 15.9548C20.8807 15.4331 21.4041 14.911 21.9271 14.3885C22.0297 14.286 22.1322 14.182 22.2343 14.0784C22.3069 14.0048 22.3792 13.9314 22.4514 13.8588L22.3805 13.7883L22.4514 13.8588C22.459 13.8512 22.4658 13.8442 22.4722 13.8376C22.4839 13.8256 22.4944 13.8148 22.5063 13.8035C22.5238 13.787 22.5376 13.7761 22.5491 13.7695C22.56 13.7633 22.5645 13.7634 22.5649 13.7634C22.5653 13.7634 22.5664 13.7635 22.5687 13.7643C22.5711 13.7653 22.5757 13.7675 22.5825 13.7726C22.5962 13.7831 22.6149 13.8066 22.6305 13.8418C22.6458 13.8761 22.6537 13.9114 22.6542 13.9371C22.6612 14.3784 22.6604 14.8194 22.6596 15.2615C22.6594 15.4032 22.6591 15.545 22.6591 15.687Z" fill="#549FDA" stroke="#549FDA" stroke-width="0.2"/>
<path d="M19.6099 23.6388H19.6099C19.5436 23.6388 19.4852 23.6386 19.4388 23.6327C19.3924 23.6268 19.3386 23.6134 19.297 23.5712C19.2557 23.5293 19.2427 23.4754 19.237 23.429C19.2312 23.3822 19.2309 23.3233 19.2308 23.2561C19.2308 23.2465 19.2308 23.237 19.2308 23.2276C19.2309 23.1848 19.2309 23.1451 19.2288 23.1052L19.6099 23.6388ZM19.6099 23.6388L25.6761 23.6388M19.6099 23.6388L25.6761 23.6388M25.6761 23.6388C27.67 23.639 29.6639 23.6389 31.6577 23.6388C31.6885 23.6388 31.7179 23.639 31.7456 23.6392C31.8037 23.6397 31.8541 23.6402 31.894 23.638C31.9505 23.635 32.0195 23.6266 32.0712 23.5791C32.1244 23.5302 32.137 23.4612 32.142 23.4022C32.1465 23.3489 32.146 23.2792 32.1454 23.1951C32.1453 23.1824 32.1452 23.1693 32.1451 23.156C32.1448 23.0957 32.1436 23.0414 32.1366 22.9968M25.6761 23.6388L32.1366 22.9968M19.3052 22.8693C19.3673 22.8091 19.453 22.7925 19.5367 22.7927C21.3225 22.7966 23.1083 22.7988 24.8941 22.7996C25.693 22.7997 26.4919 22.7981 27.2908 22.7966C27.838 22.7956 28.3852 22.7945 28.9325 22.794C29.88 22.7931 30.8274 22.7932 31.7748 22.7944L19.3052 22.8693ZM19.3052 22.8693C19.2412 22.9312 19.2243 23.0176 19.2288 23.1052L19.3052 22.8693ZM32.1366 22.9968C32.1295 22.9516 32.1144 22.9015 32.0741 22.8622M32.1366 22.9968L32.0741 22.8622M32.0741 22.8622C32.0341 22.8232 31.9836 22.8088 31.9381 22.8021M32.0741 22.8622L31.9381 22.8021M31.9381 22.8021C31.8927 22.7954 31.8373 22.7944 31.7749 22.7944L31.9381 22.8021Z" fill="#549FDA" stroke="#549FDA" stroke-width="0.2"/>
<path d="M19.6013 20.4407H19.6013L25.6711 20.4407C27.6656 20.4405 29.66 20.4405 31.6545 20.4407L31.6617 20.4407C31.7534 20.4408 31.8304 20.4408 31.8903 20.4343C31.9509 20.4277 32.0161 20.4127 32.0653 20.3642C32.1147 20.3155 32.1303 20.2506 32.1372 20.1903C32.144 20.1306 32.1441 20.0538 32.1442 19.9627L32.1442 19.9568C32.1443 19.8938 32.1443 19.8382 32.1392 19.7941C32.1342 19.7507 32.1224 19.698 32.0821 19.657C32.0415 19.6156 31.9889 19.6032 31.9454 19.5979C31.9016 19.5925 31.8464 19.5924 31.7842 19.5924C27.7551 19.5922 23.726 19.5922 19.6969 19.5924L19.6934 19.5924C19.6068 19.5924 19.5334 19.5924 19.4761 19.599C19.4185 19.6057 19.3558 19.6208 19.3084 19.6687C19.2614 19.7163 19.2463 19.779 19.2393 19.8368C19.2324 19.8942 19.2315 19.9679 19.2304 20.0551C19.2304 20.057 19.2304 20.059 19.2303 20.0609C19.2296 20.1244 19.23 20.1812 19.2368 20.228C19.2435 20.2752 19.2584 20.3264 19.2979 20.3671C19.3376 20.4081 19.3885 20.4242 19.4357 20.4319C19.4822 20.4394 19.5385 20.4407 19.6013 20.4407Z" fill="#549FDA" stroke="#549FDA" stroke-width="0.2"/>
<path d="M20.9967 30.0522H20.9967L31.6599 30.0497C31.6822 30.0497 31.7035 30.0495 31.7241 30.0493C31.7662 30.0488 31.8058 30.0484 31.8469 30.05L31.8506 29.95L31.8469 30.05C31.9307 30.0531 32.0151 30.0358 32.0753 29.9736C32.1353 29.9117 32.1499 29.8269 32.1448 29.744C32.1432 29.7164 32.1436 29.6912 32.1441 29.6621C32.1444 29.6466 32.1446 29.63 32.1446 29.6114V29.6064C32.1446 29.535 32.1446 29.4734 32.1394 29.4251C32.1341 29.3766 32.1219 29.3197 32.0794 29.2759C32.0364 29.2314 31.9797 29.2182 31.9314 29.2125C31.8835 29.2069 31.8224 29.2069 31.7524 29.2069L31.7492 29.2069L25.7979 29.2068V29.2062H25.6979H19.7334L19.7274 29.2062C19.6314 29.2061 19.551 29.2061 19.4885 29.2131C19.4255 29.2202 19.3587 29.2362 19.3087 29.2866C19.2588 29.337 19.2432 29.4039 19.2364 29.4671C19.2297 29.5299 19.2299 29.6108 19.2302 29.7075L19.2302 29.7134C19.2303 29.7656 19.2321 29.8142 19.2402 29.8559C19.2485 29.8989 19.2653 29.944 19.3025 29.9801C19.3394 30.0158 19.3849 30.0315 19.4281 30.0394C19.4705 30.0472 19.5204 30.0491 19.575 30.0493C20.0489 30.0513 20.5228 30.0523 20.9967 30.0522Z" fill="#549FDA" stroke="#549FDA" stroke-width="0.2"/>
<path d="M19.5938 26.8393H19.5938L25.6784 26.8394L31.6935 26.8394L31.6994 26.8394C31.7819 26.8394 31.8521 26.8394 31.9069 26.8333C31.9622 26.8271 32.0239 26.8129 32.0705 26.766C32.1171 26.7192 32.1311 26.6575 32.1372 26.602C32.1432 26.5471 32.1431 26.4766 32.1429 26.3937L32.1429 26.3879C32.1428 26.3208 32.1425 26.2619 32.1367 26.2151C32.131 26.1687 32.1179 26.1147 32.0762 26.0728C32.0344 26.0308 31.9804 26.0176 31.9339 26.0119C31.8873 26.0061 31.8285 26.0058 31.7616 26.0058L25.8866 26.0059L19.6964 26.0064C19.6944 26.0064 19.6924 26.0064 19.6904 26.0064C19.6032 26.0064 19.5293 26.0064 19.4718 26.0128C19.4138 26.0192 19.3504 26.034 19.3025 26.082C19.2547 26.13 19.2402 26.1936 19.2339 26.2516C19.2277 26.3091 19.228 26.3831 19.2282 26.4705C19.2282 26.4724 19.2282 26.4744 19.2282 26.4763C19.2284 26.5376 19.2292 26.5923 19.2357 26.6369C19.2422 26.6817 19.2563 26.7325 19.2964 26.7723C19.3364 26.812 19.3873 26.826 19.4322 26.8323C19.477 26.8386 19.532 26.8393 19.5938 26.8393Z" fill="#549FDA" stroke="#549FDA" stroke-width="0.2"/>
<path d="M21.1949 33.2534C24.7265 33.2519 28.2581 33.2498 31.7897 33.2473C31.8477 33.2472 31.9002 33.246 31.944 33.2386C31.9887 33.2311 32.037 33.2154 32.0751 33.1762C32.1128 33.1375 32.1278 33.0891 32.1352 33.0449C32.1426 33.001 32.1445 32.9481 32.1455 32.8893C32.1458 32.8667 32.1455 32.8416 32.1452 32.8186C32.145 32.8059 32.1448 32.7939 32.1448 32.7833C32.1446 32.7215 32.144 32.6665 32.1379 32.6221C32.1319 32.5778 32.1185 32.5265 32.0785 32.4863C32.0384 32.4461 31.9871 32.4326 31.9428 32.4265C31.8985 32.4206 31.8436 32.4201 31.7822 32.4201L25.6955 32.42H25.5955V32.4212C25.0986 32.4211 24.6017 32.421 24.1047 32.4208C22.6468 32.4202 21.1887 32.4197 19.7306 32.4233C19.7052 32.4233 19.681 32.4233 19.6579 32.4233C19.5804 32.4232 19.5164 32.4231 19.4675 32.4267C19.4078 32.4311 19.3348 32.4421 19.285 32.498C19.2371 32.5518 19.232 32.6244 19.2305 32.6804C19.2297 32.7107 19.2303 32.7506 19.231 32.7961C19.2316 32.8364 19.2323 32.881 19.2322 32.9271C19.232 32.9783 19.2333 33.026 19.2407 33.0666C19.2483 33.1083 19.2642 33.1533 19.3015 33.189C19.3383 33.2241 19.3837 33.2384 19.4248 33.2453C19.4655 33.2521 19.5135 33.2534 19.5656 33.2534H19.5656C20.1087 33.2537 20.6518 33.2536 21.1949 33.2534ZM21.1949 33.2534L21.1949 33.1534M21.1949 33.2534L21.1949 33.1534M21.1949 33.1534C20.6518 33.1536 20.1087 33.1537 19.5657 33.1534L25.6955 32.52H25.7955L31.7822 32.5201C32.034 32.5201 32.044 32.5304 32.0448 32.7836C32.0448 32.7967 32.045 32.8099 32.0452 32.8231C32.0455 32.8446 32.0458 32.8661 32.0455 32.8876C32.0414 33.125 32.0229 33.1471 31.7896 33.1473C28.258 33.1498 24.7264 33.1519 21.1949 33.1534Z" fill="#549FDA" stroke="#549FDA" stroke-width="0.2"/>
<path d="M25.0032 17.2298H25.0032L28.4023 17.23C28.4023 17.23 28.4023 17.23 28.4023 17.23C29.5006 17.2301 30.5989 17.2301 31.6973 17.2299L31.7023 17.2299C31.7848 17.2299 31.8551 17.2299 31.91 17.2237C31.9653 17.2174 32.027 17.2029 32.0734 17.1555C32.1195 17.1084 32.1333 17.0465 32.1392 16.9909C32.1451 16.9356 32.1449 16.8647 32.1446 16.7811L32.1446 16.7754C32.1444 16.7054 32.1438 16.6444 32.1374 16.5956C32.1311 16.5471 32.1172 16.4927 32.0759 16.4503C32.0341 16.4072 31.98 16.3925 31.9317 16.3859C31.8836 16.3794 31.8237 16.3789 31.7558 16.3789L31.7558 16.3789C29.5534 16.3795 27.3509 16.3795 25.1485 16.379C25.1387 16.379 25.129 16.379 25.1195 16.379C25.0266 16.3789 24.9506 16.3788 24.8927 16.3843C24.8314 16.3901 24.762 16.4038 24.7127 16.4567C24.6642 16.5088 24.655 16.5781 24.6518 16.6358C24.6494 16.6767 24.6499 16.7282 24.6505 16.7874C24.6507 16.8144 24.651 16.843 24.651 16.8729C24.651 16.9332 24.6515 16.987 24.6572 17.0304C24.6628 17.0735 24.6756 17.1243 24.7147 17.1641C24.7542 17.2043 24.8048 17.2176 24.8479 17.2235C24.8909 17.2293 24.944 17.2298 25.0032 17.2298Z" fill="#549FDA" stroke="#549FDA" stroke-width="0.2"/>
<defs>
<linearGradient id="paint0_linear_398_12363" x1="25.9449" y1="-7.55612" x2="26.0786" y2="45.4036" gradientUnits="userSpaceOnUse">
<stop stop-color="#549FDA" stop-opacity="0.42"/>
<stop offset="1" stop-color="#B2F8FB" stop-opacity="0.62"/>
</linearGradient>
</defs>
</svg>
