<svg width="18" height="18" viewBox="0 0 18 18" fill="none" xmlns="http://www.w3.org/2000/svg">
<circle cx="9" cy="9" r="8.25" fill="white" stroke="#1A4363" stroke-width="1.5"/>
<path d="M9.04278 14.104C8.72211 14.104 8.47511 14.013 8.30178 13.831C8.13711 13.6403 8.05478 13.376 8.05478 13.038V8.592C8.05478 8.24533 8.13711 7.981 8.30178 7.799C8.47511 7.60833 8.72211 7.513 9.04278 7.513C9.35478 7.513 9.59311 7.60833 9.75778 7.799C9.93111 7.981 10.0178 8.24533 10.0178 8.592V13.038C10.0178 13.376 9.93545 13.6403 9.77078 13.831C9.60611 14.013 9.36345 14.104 9.04278 14.104ZM9.04278 6.447C8.67878 6.447 8.39711 6.36467 8.19778 6.2C8.00711 6.02667 7.91178 5.784 7.91178 5.472C7.91178 5.15133 8.00711 4.90867 8.19778 4.744C8.39711 4.57067 8.67878 4.484 9.04278 4.484C9.40678 4.484 9.68411 4.57067 9.87478 4.744C10.0654 4.90867 10.1608 5.15133 10.1608 5.472C10.1608 5.784 10.0654 6.02667 9.87478 6.2C9.68411 6.36467 9.40678 6.447 9.04278 6.447Z" fill="#1A4363"/>
</svg>
