<svg width="34" height="34" viewBox="0 0 34 34" fill="none" xmlns="http://www.w3.org/2000/svg">
<circle cx="16.75" cy="17" r="16.75" fill="#549FDA"/>
<path d="M20.6316 12.5644H21.7405M13.4238 9.23779H20.0771C21.2535 9.23779 22.3817 9.70511 23.2135 10.5369C24.0454 11.3688 24.5127 12.497 24.5127 13.6733V20.3266C24.5127 21.503 24.0454 22.6312 23.2135 23.463C22.3817 24.2949 21.2535 24.7622 20.0771 24.7622H13.4238C12.2474 24.7622 11.1192 24.2949 10.2874 23.463C9.4556 22.6312 8.98828 21.503 8.98828 20.3266V13.6733C8.98828 12.497 9.4556 11.3688 10.2874 10.5369C11.1192 9.70511 12.2474 9.23779 13.4238 9.23779ZM16.7505 20.3266C15.8682 20.3266 15.022 19.9762 14.3982 19.3523C13.7743 18.7284 13.4238 17.8823 13.4238 17C13.4238 16.1177 13.7743 15.2716 14.3982 14.6477C15.022 14.0238 15.8682 13.6733 16.7505 13.6733C17.6328 13.6733 18.4789 14.0238 19.1028 14.6477C19.7266 15.2716 20.0771 16.1177 20.0771 17C20.0771 17.8823 19.7266 18.7284 19.1028 19.3523C18.4789 19.9762 17.6328 20.3266 16.7505 20.3266Z" stroke="white" stroke-width="1.8"/>
</svg>
