<svg width="17" height="17" viewBox="0 0 17 17" fill="none" xmlns="http://www.w3.org/2000/svg">
<path d="M12.125 4.35714H13.1607M5.39286 1.25H11.6071C12.7059 1.25 13.7596 1.68648 14.5366 2.46341C15.3135 3.24035 15.75 4.2941 15.75 5.39286V11.6071C15.75 12.7059 15.3135 13.7596 14.5366 14.5366C13.7596 15.3135 12.7059 15.75 11.6071 15.75H5.39286C4.2941 15.75 3.24035 15.3135 2.46341 14.5366C1.68648 13.7596 1.25 12.7059 1.25 11.6071V5.39286C1.25 4.2941 1.68648 3.24035 2.46341 2.46341C3.24035 1.68648 4.2941 1.25 5.39286 1.25ZM8.5 11.6071C7.67593 11.6071 6.88562 11.2798 6.30292 10.6971C5.72022 10.1144 5.39286 9.32407 5.39286 8.5C5.39286 7.67593 5.72022 6.88562 6.30292 6.30292C6.88562 5.72022 7.67593 5.39286 8.5 5.39286C9.32407 5.39286 10.1144 5.72022 10.6971 6.30292C11.2798 6.88562 11.6071 7.67593 11.6071 8.5C11.6071 9.32407 11.2798 10.1144 10.6971 10.6971C10.1144 11.2798 9.32407 11.6071 8.5 11.6071Z" stroke="white" stroke-width="1.5"/>
</svg>
