<svg width="15" height="15" viewBox="0 0 15 15" fill="none" xmlns="http://www.w3.org/2000/svg">
<path d="M3.4082 4.87398V15H0.185547V4.87398H3.4082ZM3.61328 1.74728C3.61979 2.24455 3.4554 2.66008 3.12012 2.99387C2.78483 3.32766 2.34375 3.49455 1.79688 3.49455H1.77734C1.24349 3.49455 0.813802 3.32766 0.488281 2.99387C0.16276 2.66008 0 2.24455 0 1.74728C0 1.24319 0.167643 0.825954 0.50293 0.495572C0.838216 0.165191 1.27604 0 1.81641 0C2.35677 0 2.78971 0.165191 3.11523 0.495572C3.44076 0.825954 3.60677 1.24319 3.61328 1.74728ZM15 9.19619V15H11.7871V9.58447C11.7871 8.86921 11.6553 8.30892 11.3916 7.90361C11.1279 7.4983 10.7161 7.29564 10.1562 7.29564C9.74609 7.29564 9.40267 7.41315 9.12598 7.64816C8.84928 7.88317 8.64258 8.17439 8.50586 8.5218C8.43425 8.72616 8.39844 9.00204 8.39844 9.34945V15H5.18555C5.19857 12.282 5.20508 10.0783 5.20508 8.38896C5.20508 6.69959 5.20182 5.69142 5.19531 5.36444L5.18555 4.87398H8.39844V6.34537H8.37891C8.50911 6.12738 8.64258 5.93665 8.7793 5.77316C8.91602 5.60967 9.09993 5.43256 9.33105 5.24183C9.56217 5.05109 9.84538 4.90293 10.1807 4.79734C10.516 4.69176 10.8887 4.63896 11.2988 4.63896C12.4121 4.63896 13.3073 5.02554 13.9844 5.79871C14.6615 6.57187 15 7.70436 15 9.19619Z" fill="white"/>
</svg>
