<svg width="212" height="212" viewBox="0 0 212 212" fill="none" xmlns="http://www.w3.org/2000/svg">
<path d="M114.613 57.1848H73.5905C69.8342 57.1848 66.7557 60.2522 66.7557 64.0019V87.8431C66.7557 91.5929 69.8342 94.6536 73.5905 94.6536H77.009V104.876L90.683 94.6536H97.5244" fill="#539DDB"/>
<path d="M114.613 57.1848H73.5905C69.8342 57.1848 66.7557 60.2522 66.7557 64.0019V87.8431C66.7557 91.5929 69.8342 94.6536 73.5905 94.6536H77.009V104.876L90.683 94.6536H97.5244" fill="#539DDB"/>
<path d="M97.8667 94.6536H98.5513L111.883 64.0019L114.613 57.1848H106.753L93.4192 86.1405C93.0791 87.1607 92.0522 87.8431 91.0253 87.8431C90.0007 88.1832 89.3161 88.5255 88.6315 88.8656L77.009 98.0611V104.876L90.683 94.6536H97.8667Z" fill="#3E66BA"/>
<mask id="mask0_31_1898" style="mask-type:luminance" maskUnits="userSpaceOnUse" x="95" y="63" width="51" height="49">
<path d="M95.5414 63.8826H145.379V111.651H95.5414V63.8826Z" fill="white"/>
</mask>
<g mask="url(#mask0_31_1898)">
<path d="M111.883 64.0017H138.54C142.301 64.0017 145.379 67.0669 145.379 70.81V94.6534C145.379 98.4009 142.301 101.468 138.54 101.468H135.126V111.686L121.452 101.468H97.5244C96.8399 101.468 96.1575 101.468 95.8152 101.128" fill="#5CE1E6"/>
</g>
<mask id="mask1_31_1898" style="mask-type:luminance" maskUnits="userSpaceOnUse" x="95" y="63" width="41" height="49">
<path d="M95.5414 63.8826H135.68V111.651H95.5414V63.8826Z" fill="white"/>
</mask>
<g mask="url(#mask1_31_1898)">
<path d="M119.058 94.6534H110.507C108.12 94.6534 106.411 92.2728 107.435 89.8878L118.716 64.0017H111.883L98.5513 94.6534L95.8152 101.128C96.4976 101.128 97.1821 101.468 97.5244 101.468H121.452L135.126 111.686V104.876L123.163 96.0159C122.136 94.9935 120.767 94.6534 119.058 94.6534Z" fill="#CCE2EF"/>
</g>
<mask id="mask2_31_1898" style="mask-type:luminance" maskUnits="userSpaceOnUse" x="92" y="52" width="26" height="55">
<path d="M92.7147 52.7151H117.589V106.283H92.7147V52.7151Z" fill="white"/>
</mask>
<g mask="url(#mask2_31_1898)">
<path d="M116.322 53.7839L94.1038 104.876" stroke="white" stroke-width="2" stroke-miterlimit="10" stroke-linecap="round" stroke-linejoin="round"/>
</g>
<path d="M128.287 92.9488C127.26 92.9488 126.575 92.2731 126.575 91.2506V77.6252C126.575 76.6028 125.891 75.9226 124.872 75.9226H118.031C117.006 75.9226 116.322 76.6028 116.322 77.6252V91.2506C116.322 92.2731 115.637 92.9488 114.613 92.9488C113.592 92.9488 112.908 92.2731 112.908 91.2506V77.6252C112.908 74.9001 115.295 72.5151 118.031 72.5151H124.872C127.602 72.5151 129.996 74.9001 129.996 77.6252V91.2506C129.996 92.2731 129.311 92.9488 128.287 92.9488Z" fill="#1A4363"/>
<path d="M97.5244 69.1054H80.4297C79.405 69.1054 78.7205 68.4253 78.7205 67.4094C78.7205 66.387 79.405 65.7046 80.4297 65.7046H97.5244C98.5513 65.7046 99.227 66.387 99.227 67.4094C99.227 68.4253 98.5513 69.1054 97.5244 69.1054ZM126.575 86.1405H116.322C115.295 86.1405 114.613 85.4581 114.613 84.4357C114.613 83.4132 115.295 82.7308 116.322 82.7308H126.575C127.602 82.7308 128.287 83.4132 128.287 84.4357C128.287 85.4581 127.602 86.1405 126.575 86.1405Z" fill="#1A4363"/>
<path d="M97.1821 89.548C96.8398 89.548 96.4975 89.548 96.4975 89.2057C88.2891 85.1181 82.8235 76.6027 82.4834 67.7495C82.4834 66.7271 83.1658 66.0447 84.1926 66.0447C85.2195 66.0447 85.9019 66.7271 85.9019 67.7495C86.2442 75.5803 91.0252 82.7308 98.2089 86.4806C98.8847 86.8207 99.227 87.8431 98.8847 88.8656C98.2089 89.2057 97.5244 89.548 97.1821 89.548Z" fill="#1A4363"/>
<path d="M88.9738 69.1054C87.9469 69.1054 87.2645 68.4252 87.2645 67.4094V64.002C87.2645 62.9795 87.9469 62.2971 88.9738 62.2971C90.0007 62.2971 90.683 62.9795 90.683 64.002V67.4094C90.683 68.4252 90.0007 69.1054 88.9738 69.1054ZM83.8505 86.8207C83.1659 86.8207 82.8236 86.4806 82.4835 86.1405C81.7989 85.4581 82.1412 84.4357 82.8236 83.7533C88.2892 80.0124 91.7099 74.2177 92.0522 67.4094C92.0522 66.387 92.7368 65.7046 93.7615 65.7046C94.7883 65.7046 95.4729 66.727 95.4729 67.4094C95.1306 75.2402 91.0253 82.3907 84.535 86.4806C84.535 86.8207 84.1928 86.8207 83.8505 86.8207Z" fill="#1A4363"/>
<path d="M19.0377 138.675C17.854 138.675 17.2622 138.066 17.2622 136.847V121.848H11.8473C10.8337 121.848 10.328 121.351 10.328 120.355C10.328 119.372 10.8337 118.88 11.8473 118.88H26.2368C27.2483 118.88 27.7562 119.372 27.7562 120.355C27.7562 121.351 27.2483 121.848 26.2368 121.848H20.822V136.847C20.822 138.066 20.2258 138.675 19.0377 138.675Z" fill="white"/>
<path d="M34.723 138.675C33.5393 138.675 32.9475 138.066 32.9475 136.847V120.682C32.9475 119.48 33.5482 118.88 34.7495 118.88H41.4452C43.5873 118.88 45.2435 119.396 46.4095 120.425C47.5755 121.45 48.1585 122.888 48.1585 124.736C48.1585 126.202 47.7787 127.413 47.019 128.367C46.2638 129.316 45.1751 129.957 43.7507 130.292C44.6914 130.588 45.4688 131.299 46.0827 132.43L48.1585 136.29C48.4765 136.88 48.5383 137.425 48.344 137.924C48.1497 138.426 47.6727 138.675 46.913 138.675C46.4117 138.675 46.0032 138.569 45.6852 138.357C45.3716 138.145 45.0956 137.816 44.8548 137.368L42.0547 132.209C41.719 131.58 41.3237 131.158 40.871 130.946C40.4161 130.734 39.8397 130.628 39.1397 130.628H36.4985V136.847C36.4985 138.066 35.9067 138.675 34.723 138.675ZM36.4985 127.987H40.8357C43.4261 127.987 44.7223 126.933 44.7223 124.824C44.7223 122.735 43.4261 121.689 40.8357 121.689H36.4985V127.987Z" fill="white"/>
<path d="M55.3484 138.675C54.6991 138.675 54.2376 138.454 53.9615 138.013C53.6833 137.567 53.6921 137.028 53.988 136.396L61.3197 120.161C61.5604 119.626 61.8519 119.242 62.1942 119.012C62.5343 118.778 62.9274 118.659 63.369 118.659C63.7975 118.659 64.1839 118.778 64.5262 119.012C64.8663 119.242 65.1578 119.626 65.4007 120.161L72.7589 136.396C73.0526 137.046 73.0703 137.587 72.8119 138.022C72.5513 138.457 72.1074 138.675 71.478 138.675C70.9591 138.675 70.555 138.552 70.2679 138.304C69.9852 138.053 69.7313 137.666 69.5082 137.147L68.1214 133.932H58.5725L57.2122 137.147C56.9693 137.684 56.7198 138.072 56.4614 138.313C56.2008 138.554 55.8298 138.675 55.3484 138.675ZM63.316 122.74L59.7915 131.096H66.9024L63.369 122.74H63.316Z" fill="white"/>
<path d="M80.6398 138.675C79.5268 138.675 78.9703 138.101 78.9703 136.953V120.434C78.9703 119.865 79.1117 119.425 79.3943 119.118C79.6814 118.814 80.059 118.659 80.525 118.659C80.949 118.659 81.267 118.738 81.479 118.897C81.6954 119.052 81.9516 119.313 82.2475 119.684L92.1585 132.545V120.355C92.1585 119.224 92.715 118.659 93.828 118.659C94.9167 118.659 95.4622 119.224 95.4622 120.355V137.015C95.4622 137.534 95.3319 137.94 95.0735 138.234C94.8129 138.527 94.464 138.675 94.0223 138.675C93.5917 138.675 93.2494 138.591 92.9977 138.428C92.7503 138.265 92.4787 137.995 92.185 137.624L82.274 124.736V136.953C82.274 138.101 81.7285 138.675 80.6398 138.675Z" fill="white"/>
<path d="M109.646 138.728C108.403 138.728 107.193 138.589 106.016 138.313C104.843 138.037 103.821 137.622 102.951 137.067C102.527 136.791 102.266 136.449 102.173 136.043C102.085 135.632 102.116 135.246 102.271 134.886C102.43 134.528 102.679 134.28 103.021 134.144C103.361 134.002 103.757 134.071 104.205 134.347C105.018 134.83 105.877 135.184 106.784 135.407C107.69 135.625 108.644 135.734 109.646 135.734C111.106 135.734 112.168 135.491 112.835 135C113.5 134.506 113.833 133.87 113.833 133.092C113.833 132.445 113.597 131.94 113.127 131.573C112.654 131.202 111.846 130.897 110.698 130.654L107.641 130.018C104.165 129.276 102.43 127.49 102.43 124.657C102.43 123.433 102.752 122.367 103.401 121.459C104.048 120.553 104.943 119.851 106.087 119.357C107.235 118.857 108.56 118.606 110.062 118.606C111.168 118.606 112.221 118.745 113.224 119.021C114.224 119.299 115.123 119.705 115.918 120.24C116.289 120.5 116.51 120.821 116.581 121.203C116.656 121.58 116.611 121.931 116.448 122.254C116.282 122.579 116.017 122.802 115.653 122.925C115.293 123.044 114.871 122.965 114.39 122.687C113.705 122.298 113.012 122.022 112.305 121.856C111.603 121.686 110.848 121.6 110.035 121.6C108.756 121.6 107.756 121.87 107.032 122.404C106.312 122.941 105.954 123.645 105.954 124.515C105.954 125.182 106.175 125.714 106.617 126.114C107.063 126.516 107.822 126.825 108.896 127.042L111.917 127.686C113.754 128.075 115.119 128.685 116.015 129.515C116.916 130.345 117.367 131.456 117.367 132.845C117.367 134.011 117.051 135.04 116.422 135.928C115.79 136.818 114.896 137.507 113.736 137.995C112.581 138.483 111.219 138.728 109.646 138.728Z" fill="white"/>
<path d="M125.38 138.454C124.178 138.454 123.578 137.845 123.578 136.626V120.602C123.578 119.401 124.169 118.8 125.353 118.8C126.537 118.8 127.129 119.401 127.129 120.602V135.424H135.185C136.22 135.424 136.739 135.926 136.739 136.926C136.739 137.946 136.22 138.454 135.185 138.454H125.38Z" fill="white"/>
<path d="M142.537 138.675C141.887 138.675 141.426 138.454 141.15 138.013C140.872 137.567 140.88 137.028 141.176 136.396L148.508 120.161C148.749 119.626 149.04 119.242 149.383 119.012C149.723 118.778 150.116 118.659 150.557 118.659C150.986 118.659 151.372 118.778 151.715 119.012C152.055 119.242 152.346 119.626 152.589 120.161L159.947 136.396C160.241 137.046 160.259 137.587 160 138.022C159.74 138.457 159.296 138.675 158.666 138.675C158.147 138.675 157.743 138.552 157.456 138.304C157.174 138.053 156.92 137.666 156.697 137.147L155.31 133.932H145.761L144.401 137.147C144.158 137.684 143.908 138.072 143.65 138.313C143.389 138.554 143.018 138.675 142.537 138.675ZM150.504 122.74L146.98 131.096H154.091L150.557 122.74H150.504Z" fill="white"/>
<path d="M172.651 138.675C171.468 138.675 170.876 138.066 170.876 136.847V121.848H165.461C164.447 121.848 163.942 121.351 163.942 120.355C163.942 119.372 164.447 118.88 165.461 118.88H179.85C180.862 118.88 181.37 119.372 181.37 120.355C181.37 121.351 180.862 121.848 179.85 121.848H174.436V136.847C174.436 138.066 173.839 138.675 172.651 138.675Z" fill="white"/>
<path d="M193.001 138.675C191.817 138.675 191.225 138.057 191.225 136.82V129.462L185.28 121.106C185.044 120.77 184.938 120.415 184.962 120.037C184.991 119.655 185.143 119.33 185.422 119.065C185.698 118.796 186.086 118.659 186.588 118.659C187.312 118.659 187.941 119.039 188.478 119.798L193.054 126.291L197.665 119.798C197.965 119.392 198.252 119.101 198.53 118.924C198.806 118.747 199.149 118.659 199.555 118.659C200.279 118.659 200.756 118.924 200.986 119.454C201.216 119.98 201.118 120.538 200.694 121.132L194.776 129.489V136.82C194.776 138.057 194.184 138.675 193.001 138.675Z" fill="white"/>
</svg>
