<svg width="16" height="17" viewBox="0 0 16 17" fill="none" xmlns="http://www.w3.org/2000/svg">
<path d="M13.6043 15.6728L13.6043 15.6728L13.6064 15.6716C14.2813 15.2707 14.7512 14.8585 14.9238 14.4206C15.0045 14.2235 15.0775 13.9646 15.145 13.6501C15.2129 13.3335 15.25 13.0636 15.25 12.8466C15.25 12.7411 15.2408 12.6315 15.2056 12.5386C15.1791 12.4606 15.1304 12.3961 15.0843 12.3461C15.0339 12.2915 14.9712 12.238 14.9011 12.1856C14.7621 12.0817 14.5731 11.967 14.3395 11.8416C14.211 11.7621 14.0319 11.6555 13.8033 11.5225C13.5721 11.3881 13.3627 11.2644 13.175 11.1515C12.9919 11.0414 12.8201 10.9348 12.6596 10.8317C12.6211 10.8017 12.5375 10.7393 12.4143 10.6481C12.2699 10.5413 12.1403 10.4563 12.0275 10.398C11.9018 10.3329 11.7682 10.2955 11.6293 10.2955C11.5004 10.2955 11.3802 10.3439 11.2752 10.408C11.1688 10.473 11.0616 10.5641 10.9538 10.6739C10.7449 10.8865 10.5536 11.1175 10.3801 11.3667C10.2204 11.596 10.0516 11.8074 9.87398 12.0011C9.78876 12.0941 9.71964 12.1542 9.66642 12.1895C9.62245 12.2187 9.6012 12.2231 9.59884 12.2237C9.58266 12.2232 9.54206 12.2169 9.46934 12.1881C9.38274 12.1537 9.32517 12.1276 9.29135 12.1095C9.25645 12.0908 9.18579 12.0472 9.07263 11.9723C8.97859 11.91 8.90647 11.8627 8.87347 11.8433C7.98347 11.3143 7.22366 10.7109 6.59186 10.034C5.96001 9.35699 5.39599 8.54202 4.90119 7.58645C4.8842 7.553 4.84039 7.47636 4.78122 7.37372C4.7114 7.25261 4.67006 7.17593 4.65197 7.13718C4.63429 7.09929 4.60945 7.03614 4.57719 6.94282C4.54845 6.85967 4.54119 6.80951 4.54119 6.7848C4.54119 6.78089 4.54347 6.75206 4.57846 6.69155C4.61252 6.63265 4.66937 6.55793 4.75582 6.46693C4.93662 6.27662 5.13368 6.09608 5.34717 5.92537C5.58039 5.7389 5.79623 5.53375 5.99459 5.31003C6.18932 5.09041 6.34091 4.85208 6.34091 4.61151C6.34091 4.47215 6.30821 4.33606 6.24924 4.20518C6.1957 4.08637 6.11719 3.94868 6.01767 3.79426C5.93195 3.66125 5.87365 3.57171 5.84603 3.53115C5.7496 3.35872 5.64983 3.17414 5.54673 2.97736C5.44129 2.77615 5.32582 2.55169 5.20028 2.30391C5.07596 2.05855 4.97654 1.86666 4.90241 1.72924C4.7856 1.4794 4.67901 1.27785 4.58275 1.12996C4.53427 1.05548 4.48471 0.988815 4.43384 0.934927C4.3884 0.886788 4.32618 0.831719 4.24706 0.800642C4.15317 0.760051 4.04393 0.75 3.94318 0.75C3.73521 0.75 3.4793 0.790661 3.1824 0.863789C2.88755 0.936413 2.64321 1.0154 2.4564 1.10322C2.24187 1.20033 2.04254 1.3781 1.85483 1.60958C1.66487 1.84383 1.47534 2.14739 1.28507 2.51507L1.28506 2.51507L1.28407 2.51703C0.930859 3.21454 0.75 3.9135 0.75 4.61151C0.75 4.81336 0.762212 5.01042 0.786828 5.20258C0.811721 5.3969 0.855619 5.61195 0.917283 5.84686C0.977218 6.07518 1.0269 6.25012 1.06594 6.36802C1.10315 6.48036 1.17175 6.67929 1.27114 6.96327C1.37122 7.24923 1.4291 7.41826 1.44737 7.47697L1.44732 7.47698L1.44891 7.48176C1.68543 8.19131 1.9671 8.82863 2.295 9.3923C2.83027 10.3214 3.55692 11.2757 4.47136 12.2555C5.38566 13.2351 6.27699 14.0144 7.14583 14.589C7.67349 14.9413 8.27029 15.2441 8.9348 15.4984L8.93478 15.4985L8.94006 15.5003C8.994 15.5196 9.15095 15.5813 9.41816 15.6887C9.68319 15.7951 9.86915 15.8688 9.97437 15.9088C10.0857 15.9511 10.2501 16.0046 10.4634 16.0689C10.684 16.1354 10.8868 16.183 11.0709 16.2101C11.2525 16.2368 11.4387 16.25 11.6293 16.25C12.2907 16.25 12.9501 16.0532 13.6043 15.6728Z" fill="#549FDA" stroke="#549FDA" stroke-width="0.5"/>
</svg>
