<svg width="13" height="18" viewBox="0 0 13 18" fill="none" xmlns="http://www.w3.org/2000/svg">
<path d="M6.5 17.2522C6.33391 17.0636 6.1183 16.8146 5.86773 16.5153C5.26494 15.7955 4.46213 14.788 3.66036 13.6362C2.85757 12.483 2.06237 11.1944 1.46949 9.9117C0.873426 8.62215 0.5 7.37688 0.5 6.3C0.5 3.11226 3.17237 0.5 6.5 0.5C9.82763 0.5 12.5 3.11226 12.5 6.3C12.5 7.37688 12.1266 8.62215 11.5305 9.9117C10.9376 11.1944 10.1424 12.483 9.33964 13.6362C8.53787 14.788 7.73506 15.7955 7.13227 16.5153C6.8817 16.8146 6.66608 17.0636 6.5 17.2522ZM3.67857 6.3C3.67857 7.83276 4.95727 9.05 6.5 9.05C8.04273 9.05 9.32143 7.83276 9.32143 6.3C9.32143 4.76724 8.04273 3.55 6.5 3.55C4.95727 3.55 3.67857 4.76724 3.67857 6.3Z" fill="#549FDA" stroke="#549FDA"/>
</svg>
