<svg width="81" height="13" viewBox="0 0 81 13" fill="none" xmlns="http://www.w3.org/2000/svg">
<path d="M21.6108 3.92471L17.5457 4.49751L17.4737 4.51175C17.3647 4.53987 17.2653 4.5956 17.1857 4.67325C17.1062 4.7509 17.0492 4.84768 17.0207 4.95372C16.9922 5.05975 16.9931 5.17124 17.0235 5.2768C17.0538 5.38236 17.1124 5.4782 17.1933 5.55455L20.1383 8.3405L19.4438 12.2758L19.4355 12.3439C19.4289 12.4534 19.4523 12.5627 19.5034 12.6606C19.5545 12.7585 19.6314 12.8414 19.7263 12.9009C19.8212 12.9604 19.9307 12.9943 20.0435 12.9991C20.1563 13.0039 20.2684 12.9795 20.3684 12.9284L24.0041 11.0707L27.6315 12.9284L27.6952 12.9569C27.8004 12.9972 27.9147 13.0095 28.0264 12.9927C28.1381 12.9758 28.2432 12.9304 28.3308 12.8611C28.4185 12.7918 28.4856 12.701 28.5253 12.5982C28.565 12.4953 28.5758 12.384 28.5567 12.2758L27.8615 8.3405L30.8078 5.55393L30.8575 5.50129C30.9285 5.41631 30.975 5.31456 30.9924 5.20641C31.0097 5.09825 30.9973 4.98756 30.9563 4.8856C30.9153 4.78365 30.8472 4.69407 30.759 4.62601C30.6708 4.55794 30.5656 4.51381 30.4542 4.49813L26.389 3.92471L24.5718 0.345516C24.5192 0.241815 24.4378 0.15449 24.3368 0.0934268C24.2358 0.0323635 24.1192 0 24.0002 0C23.8813 0 23.7647 0.0323635 23.6637 0.0934268C23.5627 0.15449 23.4813 0.241815 23.4287 0.345516L21.6108 3.92471Z" fill="#FFCD1C"/>
<path d="M4.61084 3.92471L0.545686 4.49751L0.473685 4.51175C0.36469 4.53987 0.265327 4.5956 0.185742 4.67325C0.106158 4.7509 0.0492035 4.84768 0.0206956 4.95372C-0.00781232 5.05975 -0.00685245 5.17124 0.0234771 5.2768C0.0538067 5.38236 0.112419 5.4782 0.19333 5.55455L3.13834 8.3405L2.44382 12.2758L2.43554 12.3439C2.42887 12.4534 2.45227 12.5627 2.50337 12.6606C2.55446 12.7585 2.63139 12.8414 2.7263 12.9009C2.82121 12.9604 2.93068 12.9943 3.04349 12.9991C3.15631 13.0039 3.26843 12.9795 3.36836 12.9284L7.00406 11.0707L10.6315 12.9284L10.6952 12.9569C10.8004 12.9972 10.9147 13.0095 11.0264 12.9927C11.1381 12.9758 11.2432 12.9304 11.3308 12.8611C11.4185 12.7918 11.4856 12.701 11.5253 12.5982C11.565 12.4953 11.5758 12.384 11.5567 12.2758L10.8615 8.3405L13.8078 5.55393L13.8575 5.50129C13.9285 5.41631 13.975 5.31456 13.9924 5.20641C14.0097 5.09825 13.9973 4.98756 13.9563 4.8856C13.9153 4.78365 13.8472 4.69407 13.759 4.62601C13.6708 4.55794 13.5656 4.51381 13.4542 4.49813L9.389 3.92471L7.57178 0.345516C7.5192 0.241815 7.4378 0.15449 7.33679 0.0934268C7.23578 0.0323635 7.1192 0 7.00024 0C6.88128 0 6.7647 0.0323635 6.66369 0.0934268C6.56268 0.15449 6.48128 0.241815 6.4287 0.345516L4.61084 3.92471Z" fill="#FFCD1C"/>
<path d="M37.9402 3.92471L33.5847 4.49751L33.5075 4.51175C33.3907 4.53987 33.2843 4.5956 33.199 4.67325C33.1137 4.7509 33.0527 4.84768 33.0222 4.95372C32.9916 5.05975 32.9927 5.17124 33.0252 5.2768C33.0577 5.38236 33.1204 5.4782 33.2071 5.55455L36.3625 8.3405L35.6184 12.2758L35.6095 12.3439C35.6024 12.4534 35.6274 12.5627 35.6822 12.6606C35.7369 12.7585 35.8194 12.8414 35.921 12.9009C36.0227 12.9604 36.14 12.9943 36.2609 12.9991C36.3818 13.0039 36.5019 12.9795 36.609 12.9284L40.5044 11.0707L44.3909 12.9284L44.4591 12.9569C44.5718 12.9972 44.6943 13.0095 44.814 12.9927C44.9337 12.9758 45.0462 12.9304 45.1402 12.8611C45.2341 12.7918 45.306 12.701 45.3486 12.5982C45.3911 12.4953 45.4027 12.384 45.3821 12.2758L44.6373 8.3405L47.7941 5.55393L47.8473 5.50129C47.9234 5.41631 47.9732 5.31456 47.9918 5.20641C48.0104 5.09825 47.9971 4.98756 47.9532 4.8856C47.9093 4.78365 47.8363 4.69407 47.7418 4.62601C47.6473 4.55794 47.5346 4.51381 47.4152 4.49813L43.0596 3.92471L41.1126 0.345516C41.0563 0.241815 40.9691 0.15449 40.8608 0.0934268C40.7526 0.0323635 40.6277 0 40.5003 0C40.3728 0 40.2479 0.0323635 40.1397 0.0934268C40.0314 0.15449 39.9442 0.241815 39.8879 0.345516L37.9402 3.92471Z" fill="#FFCD1C"/>
<path d="M54.6108 3.92471L50.5457 4.49751L50.4737 4.51175C50.3647 4.53987 50.2653 4.5956 50.1857 4.67325C50.1062 4.7509 50.0492 4.84768 50.0207 4.95372C49.9922 5.05975 49.9931 5.17124 50.0235 5.2768C50.0538 5.38236 50.1124 5.4782 50.1933 5.55455L53.1383 8.3405L52.4438 12.2758L52.4355 12.3439C52.4289 12.4534 52.4523 12.5627 52.5034 12.6606C52.5545 12.7585 52.6314 12.8414 52.7263 12.9009C52.8212 12.9604 52.9307 12.9943 53.0435 12.9991C53.1563 13.0039 53.2684 12.9795 53.3684 12.9284L57.0041 11.0707L60.6315 12.9284L60.6952 12.9569C60.8004 12.9972 60.9147 13.0095 61.0264 12.9927C61.1381 12.9758 61.2432 12.9304 61.3308 12.8611C61.4185 12.7918 61.4856 12.701 61.5253 12.5982C61.565 12.4953 61.5758 12.384 61.5567 12.2758L60.8615 8.3405L63.8078 5.55393L63.8575 5.50129C63.9285 5.41631 63.975 5.31456 63.9924 5.20641C64.0097 5.09825 63.9973 4.98756 63.9563 4.8856C63.9153 4.78365 63.8472 4.69407 63.759 4.62601C63.6708 4.55794 63.5656 4.51381 63.4542 4.49813L59.389 3.92471L57.5718 0.345516C57.5192 0.241815 57.4378 0.15449 57.3368 0.0934268C57.2358 0.0323635 57.1192 0 57.0002 0C56.8813 0 56.7647 0.0323635 56.6637 0.0934268C56.5627 0.15449 56.4813 0.241815 56.4287 0.345516L54.6108 3.92471Z" fill="#FFCD1C"/>
<path d="M71.6108 3.92471L67.5457 4.49751L67.4737 4.51175C67.3647 4.53987 67.2653 4.5956 67.1857 4.67325C67.1062 4.7509 67.0492 4.84768 67.0207 4.95372C66.9922 5.05975 66.9931 5.17124 67.0235 5.2768C67.0538 5.38236 67.1124 5.4782 67.1933 5.55455L70.1383 8.3405L69.4438 12.2758L69.4355 12.3439C69.4289 12.4534 69.4523 12.5627 69.5034 12.6606C69.5545 12.7585 69.6314 12.8414 69.7263 12.9009C69.8212 12.9604 69.9307 12.9943 70.0435 12.9991C70.1563 13.0039 70.2684 12.9795 70.3684 12.9284L74.0041 11.0707L77.6315 12.9284L77.6952 12.9569C77.8004 12.9972 77.9147 13.0095 78.0264 12.9927C78.1381 12.9758 78.2432 12.9304 78.3308 12.8611C78.4185 12.7918 78.4856 12.701 78.5253 12.5982C78.565 12.4953 78.5758 12.384 78.5567 12.2758L77.8615 8.3405L80.8078 5.55393L80.8575 5.50129C80.9285 5.41631 80.975 5.31456 80.9924 5.20641C81.0097 5.09825 80.9973 4.98756 80.9563 4.8856C80.9153 4.78365 80.8472 4.69407 80.759 4.62601C80.6708 4.55794 80.5656 4.51382 80.4542 4.49813L76.389 3.92471L74.5718 0.345516C74.5192 0.241815 74.4378 0.15449 74.3368 0.0934269C74.2358 0.0323635 74.1192 0 74.0002 0C73.8813 0 73.7647 0.0323635 73.6637 0.0934269C73.5627 0.15449 73.4813 0.241815 73.4287 0.345516L71.6108 3.92471Z" fill="#FFCD1C"/>
</svg>
