<svg width="26" height="26" viewBox="0 0 26 26" fill="none" xmlns="http://www.w3.org/2000/svg">
<g clip-path="url(#clip0_402_14931)">
<path d="M0 0H26V26H0V0Z" fill="#012169"/>
<path d="M3.04688 0L12.9594 9.80417L22.8312 0H26V3.35833L16.25 13.0542L26 22.6958V26H22.75L13 16.3042L3.29062 26H0V22.75L9.70937 13.1083L0 3.46667V0H3.04688Z" fill="white"/>
<path d="M17.225 15.2208L26 23.8333V26L14.9906 15.2208H17.225ZM9.75 16.3042L9.99375 18.2L2.19375 26H0L9.75 16.3042ZM26 0V0.1625L15.8844 10.3458L15.9656 7.9625L23.9688 0H26ZM0 0L9.70937 9.53333H7.27187L0 2.275V0Z" fill="#C8102E"/>
<path d="M9.79062 0V26H16.2906V0H9.79062ZM0 8.66667V17.3333H26V8.66667H0Z" fill="white"/>
<path d="M0 10.4542V15.6542H26V10.4542H0ZM11.0906 0V26H14.9906V0H11.0906Z" fill="#C8102E"/>
</g>
<defs>
<clipPath id="clip0_402_14931">
<rect width="26" height="26" rx="13" fill="white"/>
</clipPath>
</defs>
</svg>
