<svg width="39" height="24" viewBox="0 0 39 24" fill="none" xmlns="http://www.w3.org/2000/svg">
<path d="M28.5068 23.2168C27.0361 23.2168 25.5654 23.2168 24.0946 23.217C23.6165 23.2173 23.1443 23.1914 23.1124 22.5562C23.0895 22.1006 23.4981 21.8014 24.1115 21.8008C26.7747 21.7985 29.4379 21.7984 32.1012 21.8005C34.4457 21.8046 36.633 19.9733 37.2103 17.9766C38.0652 15.0202 36.8669 12.3445 34.2279 11.1719C33.3262 10.7713 32.2455 10.7545 31.2393 10.6135C30.7516 10.5452 30.2366 10.6538 29.7547 10.5673C29.5037 10.5222 29.1472 10.2628 29.0947 10.0399C28.5694 7.81323 27.4618 5.94811 25.6938 4.50196C24.4078 3.43545 22.8641 2.72556 21.2174 2.44339C17.4941 1.79873 14.471 3.04843 12.0082 5.79799C11.5584 6.3002 11.2258 6.91398 10.8806 7.50062C10.5513 8.06038 10.1913 8.48379 9.44801 8.40278C8.95701 8.34927 8.45499 8.40595 7.95858 8.39085C5.21766 8.30742 2.49742 10.4995 1.80773 13.0174C0.753042 16.8677 2.57795 20.148 6.12032 21.4865C6.67973 21.6979 7.31801 21.774 7.92175 21.7829C10.2466 21.8174 12.5724 21.7878 14.8974 21.8154C15.2001 21.8281 15.4886 21.9477 15.7115 22.1528C16.0988 22.5402 15.858 23.1228 15.3129 23.194C15.0358 23.2194 14.7574 23.227 14.4794 23.2166C12.3727 23.2181 10.2635 23.1524 8.15977 23.232C4.67093 23.364 1.33911 20.6663 0.368837 17.5205C-0.886777 13.4496 1.16407 9.16444 4.99194 7.50515C6.17171 6.99556 7.45184 6.76071 8.73567 6.81834C9.28438 6.83922 9.62163 6.65359 9.88689 6.19896C10.9962 4.2977 12.5872 2.90612 14.5351 1.91205C16.6316 0.84216 18.8959 0.561848 21.1735 0.888196C24.0375 1.29856 26.433 2.70051 28.2743 4.95025C29.1603 6.0328 29.8432 7.25086 30.2279 8.60875C30.3552 9.0583 30.62 9.19937 31.0569 9.16468C32.6081 9.04152 34.0848 9.31265 35.4314 10.1071C37.2307 11.1686 38.3971 12.6874 38.8271 14.771C39.4477 17.7788 38.3694 20.1237 36.0501 21.9618C35.1213 22.6978 34.009 23.1486 32.7989 23.1832C31.3693 23.2242 29.9376 23.1929 28.5069 23.1929L28.5068 23.2168Z" fill="#549FDA"/>
<path d="M20.2008 11.5934C20.2008 11.8485 20.2008 12.1036 20.2008 12.3587C20.2019 15.6693 20.203 18.98 20.2042 22.2906C20.2043 22.6497 20.2228 23.0208 19.7946 23.1779C19.2454 23.3796 18.7983 23.0764 18.793 22.4788C18.782 21.2497 18.7897 20.0206 18.79 18.7915C18.7906 16.6108 18.791 14.4301 18.7911 12.2494C18.791 12.0338 18.7732 11.8182 18.7581 11.478C18.5473 11.5961 18.3868 11.6455 18.2826 11.7505C17.1338 12.9094 15.99 14.0731 14.8512 15.2418C14.7735 15.3308 14.6889 15.4135 14.5982 15.4892C14.2307 15.7607 13.8281 16.0007 13.4572 15.542C13.1391 15.1485 13.2407 14.7422 13.5888 14.3895C15.056 12.9033 16.5222 11.4161 17.9874 9.92793C18.2761 9.63508 18.5521 9.3284 18.8563 9.05256C19.3438 8.61033 19.6822 8.5987 20.1423 9.06061C21.9199 10.8452 23.6882 12.6391 25.4472 14.4421C25.7933 14.7957 25.7933 15.3132 25.4893 15.5909C25.0099 16.0287 24.6365 15.704 24.3156 15.3857C23.2545 14.3332 22.2193 13.2547 21.1686 12.1918C20.9204 11.9407 20.6502 11.7113 20.3901 11.4719C20.327 11.5124 20.2639 11.5529 20.2008 11.5934Z" fill="#549FDA"/>
</svg>
