<svg width="69" height="71" viewBox="0 0 69 71" fill="none" xmlns="http://www.w3.org/2000/svg">
<path d="M58.0554 26.5926L53.148 17.7592L48.2406 11.8704L39.4073 7.94443H34.4999L30.574 8.92591L19.7777 11.8704L14.8703 17.7592L10.9443 26.5926V36.4074L14.8703 45.2407L12.9073 56.037L19.7777 54.0741L26.648 56.037L36.4629 57.0185L47.2592 54.0741L55.111 47.2037L58.0554 36.4074V26.5926Z" fill="#4ECB71"/>
<g filter="url(#filter0_d_64_305)">
<path d="M53.2764 12.9973C50.8347 10.4523 47.9263 8.43443 44.7208 7.06141C41.5154 5.68839 38.0771 4.98769 34.6065 5.00016C20.0648 5.00016 8.21307 17.2294 8.21307 32.2342C8.21307 37.0435 9.43819 41.7153 11.7286 45.8375L8 59.963L21.9824 56.1705C25.8442 58.3416 30.1854 59.4958 34.6065 59.4958C49.1482 59.4958 61 47.2666 61 32.2617C61 24.9791 58.2568 18.1363 53.2764 12.9973ZM34.6065 54.8789C30.6648 54.8789 26.803 53.7796 23.4206 51.7185L22.6216 51.2239L14.3121 53.4774L16.5226 45.123L15.99 44.2711C13.8 40.6627 12.6372 36.4918 12.6342 32.2342C12.6342 19.7577 22.4884 9.58956 34.5799 9.58956C40.4392 9.58956 45.9523 11.953 50.0804 16.2401C52.1244 18.3395 53.7443 20.8368 54.8461 23.587C55.9479 26.3372 56.5097 29.2858 56.499 32.2617C56.5523 44.7383 46.698 54.8789 34.6065 54.8789ZM46.6447 37.9504C45.9789 37.6206 42.7296 35.9717 42.1437 35.7244C41.5312 35.5045 41.105 35.3946 40.6523 36.0541C40.1995 36.7412 38.9477 38.2801 38.5749 38.7198C38.202 39.187 37.8025 39.242 37.1367 38.8847C36.4708 38.555 34.3402 37.813 31.8367 35.5045C29.8658 33.6907 28.5608 31.4648 28.1613 30.7777C27.7884 30.0907 28.108 29.7334 28.4543 29.3762C28.7472 29.0739 29.1201 28.5792 29.4397 28.1945C29.7593 27.8097 29.8925 27.5074 30.1055 27.0677C30.3186 26.6005 30.2121 26.2158 30.0523 25.886C29.8925 25.5563 28.5608 22.2035 28.0281 20.8295C27.4955 19.5103 26.9362 19.6752 26.5367 19.6477H25.2583C24.8055 19.6477 24.1131 19.8126 23.5005 20.4997C22.9146 21.1867 21.21 22.8356 21.21 26.1883C21.21 29.5411 23.5804 32.7839 23.9 33.2236C24.2196 33.6907 28.5608 40.5611 35.1658 43.5016C36.7372 44.2161 37.9623 44.6283 38.9211 44.9306C40.4925 45.4528 41.9306 45.3703 43.0759 45.2054C44.3543 45.0131 46.991 43.5566 47.5236 41.9626C48.0829 40.3687 48.0829 39.0221 47.8965 38.7198C47.71 38.4175 47.3105 38.2801 46.6447 37.9504Z" fill="white"/>
</g>
<defs>
<filter id="filter0_d_64_305" x="0" y="0" width="69" height="70.963" filterUnits="userSpaceOnUse" color-interpolation-filters="sRGB">
<feFlood flood-opacity="0" result="BackgroundImageFix"/>
<feColorMatrix in="SourceAlpha" type="matrix" values="0 0 0 0 0 0 0 0 0 0 0 0 0 0 0 0 0 0 127 0" result="hardAlpha"/>
<feOffset dy="3"/>
<feGaussianBlur stdDeviation="4"/>
<feComposite in2="hardAlpha" operator="out"/>
<feColorMatrix type="matrix" values="0 0 0 0 0 0 0 0 0 0 0 0 0 0 0 0 0 0 0.18 0"/>
<feBlend mode="normal" in2="BackgroundImageFix" result="effect1_dropShadow_64_305"/>
<feBlend mode="normal" in="SourceGraphic" in2="effect1_dropShadow_64_305" result="shape"/>
</filter>
</defs>
</svg>
